<mxfile host="app.diagrams.net" modified="2024-05-01T15:34:04.477Z" agent="Mozilla/5.0 (Windows NT 10.0; Win64; x64; rv:125.0) Gecko/20100101 Firefox/125.0" etag="3QnD8KqPdf24vkRGonyD" version="24.1.0" type="google">
  <diagram name="Page-1" id="6PCOa4UJ9Pi5o_xVKxKS">
    <mxGraphModel grid="0" page="1" gridSize="10" guides="1" tooltips="1" connect="1" arrows="1" fold="1" pageScale="1" pageWidth="827" pageHeight="1169" math="0" shadow="0">
      <root>
        <mxCell id="0" />
        <mxCell id="1" parent="0" />
        <mxCell id="Jj0kBVMKE85HHvG1EGaV-35" value="" style="group" connectable="0" vertex="1" parent="1">
          <mxGeometry x="15" y="61" width="797.23" height="839.48" as="geometry" />
        </mxCell>
        <mxCell id="Jj0kBVMKE85HHvG1EGaV-1" value="" style="shape=image;verticalLabelPosition=bottom;labelBackgroundColor=default;verticalAlign=top;aspect=fixed;imageAspect=0;image=data:image/png,iVBORw0KGgoAAAANSUhEUgAAAtUAAAMrCAYAAACGXG62AAAABmJLR0QA/wD/AP+gvaeTAAAgAElEQVR4nOzdeVyU9d4//tcAw2wMmyAQirK4kVq5dITkmMdzPC63IIHKSSvr5E2WoZlK7rtpmno0Od6WeUpLceHGcsvKG5eH5tdSj4RluCKZghsg+/L+/eGPOY0gDszADPB6Ph7zeNRnPnNdn+uaa16+ueaaz6UQEQEREREREdWZnbUHQERERETU2LGoJiIiIiIyE4tqIiIiIiIzsagmIiIiIjKTQ11feOzYMSxfvtySYyEiapRCQkIwceJEaw/DbMx1ImoOJk6ciJCQEIsvt85nqq9evYrt27dbcix1sn37dmRmZlp7GPSAzMxMmzg+bB2P38bvu+++w7Fjx6w9DItgrlNNmOum4fFr27Zv346rV6/Wy7LrfKa60rZt2ywxjjpTKBR46623MHz4cKuOg4xt3boVI0aMsPrxYet4/DZ+w4YNs/YQLM7an1t+LmwTc900PH5tm0KhqLdl85pqIiIiIiIzsagmIiIiIjITi2oiIiIiIjOxqCYiIiIiMhOLaiIiIiIiM7GoJiIiakDLli1Dy5YtoVAosHbtWkP7nj174OLigi+//PKhbe+++y5cXFygUChw+vTpBh87ET0ci+oGVFFRgWHDhkGv16N///5ISUlBVlYWZs2aZe2hERERGianJ02ahKNHj1ZpF5FHtk2dOhX/8z//Y7GxEJHlsKhuQEePHkVkZCR+/PFHtG/fHlFRUQgLC8OoUaOsPTQiIoJ1c3rw4MHIycnBkCFDamwjIttk9s1fyHS9e/c2/PcHH3yADz74wIqjISKiBzGniaiueKbawg4ePIinn34aWq0Wzs7O6NKlC3JzcwHc/xpv+fLl6NSpE1QqFdzc3DB06FD8/PPPAICEhATodDpotVrs3LkTAwcOhLOzM1q1aoXNmzcb1nH48GEEBwfDxcUFarUaXbp0wVdffWWV7SUiamxsMaePHDkCPz8/KBQKQyFfXVt1bty4gbZt28LBwQEDBgywxC4iojpgUW1B+fn5CA8PR3R0NG7fvo309HS0b98eJSUlAIA5c+Zg6tSpmD59OrKysnDo0CFcvXoVYWFhuHHjBl5//XW89dZbKCwshF6vR2JiIi5cuICAgACMGTMGpaWlAO4H6IgRI3D58mVcu3YNTk5OGDlypDU3nYioUbDVnO7du3eV66yra6uOu7s7evTogaSkJOzbt8+MvUNE5mBRbUGXL19Gbm4uHn/8cajVanh5eWHHjh3w8PBAYWEhli9fjueeew6jRo2Ci4sLunTpgrVr1+LmzZtYt26d0bJCQ0Ph7OwMT09PxMTEID8/HxkZGQCA6OhozJ49G25ubnB3d0d4eDhu3bqF7Oxsa2w2EVGj0dRyuqysDC+99BJeffVVhIeHW3TZRFQ7LKotKCAgAC1btsSoUaMwZ84cXL582fBcWloa7t27hx49ehi9pmfPnnB0dMTx48cfulxHR0cAMJwBeZBSqQQAlJeXm7kFRERNW1PK6fLycjz//PNo2bIlL/sgsgEsqi1Io9HgwIED6N27NxYuXIiAgADExMSgsLAQd+/eBQA4OTlVeZ2rqyvy8vJMXs/u3bvx7LPPwtPTEyqVClOmTLHYNtia6uZtbc5ee+01KBQKw6O6GQm++eYbTJ06FTt27EBAQICh7wsvvFClb//+/aHX62Fvb4/HH38cJ0+ebIjNqJV58+YhODgYzs7OUKlUCAoKwpQpU3Dv3j2jfkeOHMEzzzwDrVYLHx8fxMfHo7i4GADwxRdfYMmSJVUKmuTkZKP96eHh0WDbRdbRlHJ63LhxSE9Px9q1a3H27FmLL7++MNeNNcdcX7JkCTp27AiNRgOdToeOHTti5syZht82NNbMZlFtYY8//ji+/PJLXLt2DfHx8UhMTMSyZcvg6uoKANWG8t27d9GqVSuTlp+RkYHIyEh4e3vj+PHjyMnJwZIlSyy6Dbakunlbmzt3d3fs3bsX586dw/r1642emz17NlatWoVp06YhKioKFy9eRGBgIFq0aIFNmzZh9+7dRv3379+Pbdu2YciQIUhLS0O3bt0aclNMcuDAAYwbNw6XL1/GzZs3sWjRIqxcuRLDhg0z9ElLS0P//v3Rr18/ZGdnIykpCR9//DHGjh0LAAgPD4darUa/fv0MhRMAREREIDMzE4cOHcKgQYMafNvIOppKTg8fPhxff/01XF1d8eKLL6KsrMzi66gPzPWqmluuHz58GGPGjEFGRgZu3LiB+fPnY8mSJYiOjgbQeDObRbUFXbt2zXC2wNPTE++++y66deuGs2fPonPnznBycsL3339v9Jrjx4+jpKQE3bt3N2kdqampKC0txeuvv46AgACo1WooFAqLb4utsPYcrYWFhQgNDbXKuh9Go9FgwIABaN++PVQqlaF98eLF2LJlC7Zu3Qq9Xm/0mlWrVsHOzg6xsbHIyclp6CGbxcnJCbGxsXB3d4der8fw4cMRGRmJffv24erVqwCA+fPnw9vbG3PnzoVOp0NISAji4+Pxr3/9yzBrw/jx4/HEE09g0KBBhuJDoVDA19cXYWFhaNeundW2kRpOU8rpvn37wsPDA+vWrcMPP/yABQsWWHwd9YG5XlVzy3VHR0e88cYb8PT0hJOTE4YNG4ahQ4fi66+/xm+//QagcWY2i2oLunbtGl577TX8/PPPKCkpwalTp3DlyhX06tULarUab7/9NpKSkrBp0ybk5uYiNTUVY8eOhY+PD2JjY01ah5+fH4D7XwUVFRUhPT29xuv8yDzr169HVlaWtYfxSOfPn8fMmTMxd+5cqNXqKs+HhoZiwoQJ+PXXXzFp0iQrjLDudu3aBXt7e6O2yq/8CgoKUFZWht27d6NPnz5GhcvAgQMhIti5c6ehbc6cOTh9+jRWrlzZMIMnm9MUczo8PByjR4/GwoUL8cMPP9TbepoK5rr1JSUlVdkmX19fADC6tK/RZbbUUWJiopjxcosBIImJidYehoiIXL58WUJDQ8XNzU3s7e3lsccek+nTp0tZWZmIiFRUVMjSpUulXbt2olQqxc3NTSIjI+XcuXMiIrJmzRrRarUCQNq1aycXLlyQdevWibOzswCQNm3ayC+//CLx8fHi7u4urq6uMmzYMPnggw8EgAQGBkpGRoY1d4GBJY6Pw4cPS+vWrQWArF69WkT+s480Go0kJyfLgAEDRK/Xi6+vr3z++eciIvKPf/xDVCqVeHp6SmxsrHh7e4tKpZKQkBD57rvvRETkzTffFKVSKV5eXob1vf7664b9n52dLePHjxdHR0cBYNi/IiJ79+4VvV4vCxYsMGv7RGp//MbGxoqvr2+V9jfffFPs7e0lPz+/ynOBgYFy6dIlKSgokPbt2wsA+frrrw3P7927VyIiIgz/X1FRIe+//7507NhRHB0dxdXVVSIiIuSnn34SEdPeAxGRsrIymTlzprRu3VrUarV06dJFtmzZYvK21iQiIkI0Go0UFxfLuXPnBIDMmjXLqE9hYaEAkOeff96ofcCAAeLr6ysVFRVG7ePHj5cWLVrUeizR0dESHR1d+42wQc0h120hpydMmCBeXl4CQHQ6nTz33HOyevVq8fb2FgCi1WolPDy82rYdO3aIm5ubAJC2bdtKVlaW5ObmGrLSyclJPv3003rZd8x10zDX62bw4MHi6uoqxcXFRu2Wzuz6zBcW1VQvLHV8XL161Sh8RUSmT58uAOTbb7+VnJwcycrKkrCwMNHpdFJSUiIi90NKp9PJ2bNnpaioSNLS0qRnz56i1+sNf3iMHDnSKHxFRJYuXWoIXxGRqKgoQ+hW2rVrl+j1epk3b57Z22ep8A0ICJDg4OBqX1MZviIiR48eFTs7O2nbtq3cu3dPRKqG76xZs8TR0VE2btwod+/elTNnzki3bt3Ew8NDrl+/LiKmvQeTJk0SlUol27dvlzt37si0adPEzs5OTpw4YfL2Vic/P1/0er3ExcWJiMjBgwcFgCxdurRKX41GI/369TNqmzp1qgCQU6dOGbWzqGauU82Y66ZhrpuupKREMjMzZfXq1aJSqWTjxo1V+lg6s+szX3j5BzVaNc0RCwAODg6Gu6IFBwcjISEBeXl52LBhg1nrHTx4MHJzczFz5kxzN8Ei8vPzcenSJQQGBj6yb0hICN566y1cvnwZ77zzTpXnLTVPb1FRERISEhAZGYmoqCi4urpixowZUCqVZu//RYsWwcfHx3D9aOUMHw9eIgLcn8assLDQqK3yOrzU1FSzxkFElsdcv6+55Hrr1q3RqlUrzJkzB++99x5GjBhRpU9jymwW1dQkPGqOWADo0aMHtFqt4YdrTUVWVhZEBFqt1qT+CxYsQIcOHbBmzRocOXLE6DlLzdN77tw5FBQUoHPnzobnNRoNvL29zdr/SUlJ2Lp1K7766ivDj3Yqr8urbuaDkpISaDQao7bK/XTjxo06j4OI6h9zvenn+tWrV5GVlYXPP/8cn3zyCZ566qkq17s3psxmUU3NikqlanJ3niwqKgIAo1+M10StVmPDhg1QKBR45ZVXjM7kWmqe3vz8fADAjBkzjOYUvXLlCgoKCkxaxoO2bNmCxYsXIyUlBW3btjW0e3t7A4BhftNKBQUFKCoqgo+Pj1F7ZZFdud+IqHFjrjfeXFcqlfD09ET//v2xZcsWpKWlYdGiRUZ9GlNms6imZqO0tLRWc802FpWBU5s7tYWEhGDixIlIT0/H/PnzDe2WmqfX09MTALBixQrI/d9uGB7Hjh0zeZyVVq9ejU2bNuHAgQN47LHHjJ7z9/eHXq/HlStXjNrPnz8PAOjatatRe0lJCQBUOYNNRI0Pc/0/GluuPygoKAj29vZIS0szam9Mmc2impqNlJQUiAh69eoF4P61eTV9rdhYtGzZEgqFotbzlM6fPx8dO3bEqVOnDG2Wmqe3devWUKvVOH36dK3G9CARQXx8PFJTU5GcnFztmRYHBwcMGjQIhw4dQkVFhaF97969UCgUCA8PN+pfuZ+8vLzMGhsRWR9z3VhjyPVbt27h+eefr9Kenp6O8vJytG7d2qi9MWU2i2pqsioqKnDnzh2UlZXhzJkzmDBhAvz8/DB69GgA9/8qvn37NpKTk1FaWors7OwqZzvd3d1x7do1XL58GXl5eSgtLcXevXvh7OyMhQsXWmGrqtJqtQgICEBmZmatXlf5deHvf+BnqXl61Wo1Xn75ZWzevBkJCQnIzc1FeXk5MjMzDRP7x8TEwMvLq8Zb6J49exbvvfcePvzwQyiVSqOvHBUKBZYtWwYAmDlzJm7cuIHZs2cjPz8fx44dw9KlSzF69Gh06NDBaJmV+6lLly612l9EZH3M9Zo1hlzX6XTYv38/Dhw4gNzcXJSWluLUqVN46aWXoNPpMHHiRKP+jSqz6zptCKdeoppY4viobo5WU+eIjY2NFaVSKb6+vuLg4CDOzs4ydOhQuXDhgmH5t27dkr59+4parRZ/f3958803ZfLkyQJAgoKCJCMjQ06ePClt2rQRjUYjvXv3luvXr8uePXtsbj7TuLg4USqVUlBQYGhLSkqSwMBAASAeHh4ybty4apc5efLkKvOZWmKe3uLiYomPjxc/Pz9xcHAQT09PiYqKkrS0NBERiYyMrHZ+6d9LTU01zCdb3eP30+gdPHhQnn76aVGpVOLj4yOTJ0+WoqKiKsscPHgw56l+COY61YS5bhrmes25LiISHh4u/v7+4uTkJCqVSgIDAyUmJkZSU1Or9LV0ZtdnvrCopnph7eMjNjZW3N3drbZ+U1kqfNPT08XBwaHaOT5tVXl5uYSFhcn69esbbJ03b94UtVoty5Ytq/Ici2rrf24rMddtk7WPD+a67bN0rtdHZtdnvvDyD2qyavMDj8aksLAQX331FdLT0w0/4AgKCsK8efMwb948o1u82qry8nIkJycjLy8PMTExDbbeOXPm4Mknn0RcXByA+9dsX7t2DUeOHDH8sJGIbBdz3XbVR643tsx2sPYALGHEiBHVThhO1BTdvn0bAwYMAACMHDkSmzZtAgBMnToV9+7dQ0xMDD777DO4uLhYc5g1SklJwY4dO7B3716T52E11/Lly3H69Gns2bMHSqUSALBz505ERkYa+rRo0aJBxkKPxlyn5oS5XlVjzOwmUVRPmDABISEh1h4G/c6xY8ewcuVKq6x72rRp2LBhA0pKSuDv74+lS5ciOjraKmOxtLVr12Lt2rUPfX7hwoXYv38/3n33XSxevLgBR1Y7/fr1Q79+/RpsfTt37kRxcTFSUlKMfsAzdOhQ3P82kGwNc932MNfrB3O9qsaa2U2iqA4JCcHw4cOtPQx6gLXCd9GiRVUmj29O+vfvj/79+1t7GDYlIiICERER1h4G1QJz3TYx162jueV6Y81sXlNNRERERGQmFtVERERERGZiUU1EREREZCYW1UREREREZmJRTURERERkpgYrqmNiYqBQKEx67Nq1q17G8N1336FTp06ws7ODQqGAl5cXFixYUC/rqo0dO3YgICDAsP3e3t4YNWqUtYdFRFQj5vrDMdeJmp8GPVO9f/9+3L17F6Wlpfjtt98AAOHh4SgpKUF+fj6ysrIwZsyYelt/r1698NNPPxmmpTl37hxmzJhRb+szVVRUFC5evIjAwEC4uLjg+vXrhonfiYhsGXO9esx1ouanwYpqhUKBZ555Bi4uLnBwcDBqVyqV0Gq18PT0RPfu3RtqSFZTWFiI0NBQaw+DiMgszPX/YK4TUYPd/GXz5s0m9YuNja3nkVjf+vXrkZWVZe1hEBGZhbn+H8x1IuIPFQEkJCRAp9NBq9Vi586dGDhwIJydndGqVSvDPxqrVq2CWq1Gy5Yt8dprr8HHxwdqtRqhoaE4fvw4ACAuLg6Ojo7w9vY2LPuNN96ATqeDQqHAzZs3MWHCBLz99tu4cOECFAoFgoKCaj3ew4cPIzg4GC4uLlCr1ejSpQu++uorAMCrr75quIYvMDAQp06dAgC8/PLL0Gq1cHFxwRdffIHy8nLMmjULfn5+0Gg06Nq1KxITEwEA7733HrRaLfR6PbKysvD222/D19cX586dM2s/ExE1FOY6c52owUkdJSYmihkvl99++00ASERERJ2XISICQBITE2v1mr/+9a8CQO7cuWNomz59ugCQb7/9VnJyciQrK0vCwsJEp9NJSUmJiIjExsaKTqeTs2fPSlFRkaSlpUnPnj1Fr9dLRkaGiIiMHDlSvLy8jNa3dOlSASDZ2dkiIhIVFSWBgYFVxhUYGCguLi6PHP+2bdtkzpw5cvv2bbl165b06tVLWrRoYXg+KipK7O3t5ddffzV63fPPPy9ffPGFiIhMmjRJVCqVbN++Xe7cuSPTpk0TOzs7OXHihNH+GD9+vKxevVqee+45+emnnx45tkrmHh/NRV2OX7It0dHREh0dbe1hWARznbleE+a6aZjrtq0+358Gu/yjsQgNDYVarQZw/5fthw8fRkZGBgIDAwEADg4O6NSpEwAgODgYCQkJ6NmzJzZs2IBZs2Y1yBijo6MRHR1t+P/w8HBMmzYN2dnZ8PT0xNixY7Fjxw5s2LAB06dPBwDk5ubixIkT+PTTT1FUVISEhARERkYiKioKADBjxgy8//772LBhA3r06GFY9uLFi6FWqzFu3Lg6jXXr1q1mbGnzcOzYMWsPgcyQmZmJVq1aWXsYVAPmOnO9oTHXmycW1TVwdHQEAJSWlj60T48ePaDVavHzzz831LCqUCqVAIDy8nIAwJ/+9Ce0b98eH3/8MaZNmwaFQoEtW7YgJiYG9vb2+PHHH1FQUIDOnTsblqHRaODt7W3x7RgxYoRFl9cUrVy5EitXrrT2MMgMvy+GyLYx183HXH805nrzxGuqLUClUiE7O7vB1rd79248++yz8PT0hEqlwpQpU4yeVygUeO2113Dx4kV8++23AIBPP/0Uf//73wEA+fn5AO6fxfj9PLJXrlxBQUGBRccqInzU8ACAxMREq4+Dj7o/WFA3Tcz1h7P2Z87WHwBz3ZYf9YlFtZlKS0tx9+7dev/699ChQ1ixYgUyMjIQGRkJb29vHD9+HDk5OViyZEmV/qNHj4ZarcZHH32Ec+fOwdnZGW3atAEAeHp6AgBWrFhR5WDjV1ZE1Nwx14moLnj5h5lSUlIgIujVqxeA+9fm1fS1Yl398MMP0Ol0SE1NRWlpKV5//XUEBAQAuH8G40Fubm4YMWIEtmzZAr1eb3TzhdatW0OtVuP06dMWHycRUWPHXCeiuuCZ6lqqqKjAnTt3UFZWhjNnzmDChAnw8/PD6NGjAQBBQUG4ffs2kpOTUVpaiuzsbFy5csVoGe7u7rh27RouX76MvLy8GsO6tLQUN27cQEpKCnQ6Hfz8/AAA33zzDYqKipCenm6Y+ulBY8eORXFxMXbt2oUhQ4YY2tVqNV5++WVs3rwZCQkJyM3NRXl5OTIzMw13RCMiai6Y60RkEVJHdZ1aJzc3V/74xz+Ku7u7ABA7OzsJCgqShQsX1mkcqMXUKN999508/vjjYmdnJwDE29tbFi5cKGvWrBGtVisApF27dnLhwgVZt26dODs7CwBp06aN/PLLLxIbGytKpVJ8fX3FwcFBnJ2dZejQoXLhwgXDOm7duiV9+/YVtVot/v7+8uabb8rkyZMFgAQFBUlGRoacPHlS2rRpIxqNRnr37i3//Oc/JTAwUADU+EhKShIRkfj4eHF3dxdXV1cZNmyYfPDBBwJAAgMDDVNAVXrqqadk6tSpVfZFcXGxxMfHi5+fnzg4OIinp6dERUVJWlqaLFmyRDQajQCQ1q1by8aNG2v9vnDqJdPU5vgl28Qp9ZjrzHX6Pea6bavP96fBi2pLa8iDNzY2Vtzd3RtkXZYyaNAguXjxYoOv11aOD1vH8G38WFRbHnO9Zsx128Zct231+f7w8o9aqpzeyFb9/ivHM2fOQK1Ww9/f34ojIiKybcx1IrIE/lCxiYmPj8fYsWMhInj55ZexceNGaw+JiIjMwFwnahx4ptpE06ZNw4YNG5CTkwN/f39s377d2kOqllarRceOHfHnP/8Zc+bMQXBwsLWHRERkk5jrRGRJLKpNtGjRIhQXF0NEcOnSJZu94cOCBQtQXl6OjIwMo1+GExGRMeY6EVkSi2oiIiIiIjOxqCYiIiIiMhOLaiIiIiIiM7GoJiIiIiIyU5OYUu/YsWPWHgI9gO8JEZmDGWJ7+J4QPUJd7xpjK3dWwiNuAcuHdR9UM9Tyzk6xsbFG+3fkyJFV+nz99dfyzjvvyPbt28Xf39/Qd9SoUVX6/uUvfxEnJyexs7OT4OBg+eGHH8zanvowd+5c6dSpk+j1enF0dJTAwECZPHmy5OXlGfU7fPiwhIaGikajEW9vb5kyZYoUFRWJiMjOnTtl8eLFUlZWZvSa//3f/zXany1atKj1+HhHRcuzdm7xwVw3B3P90RYvXiwdOnQQtVotWq1WOnToIDNmzJCcnBwRqd/Mru37U6tl1/WFthS+vB2o7bGV48PW1SV83d3dZe/evXLu3DlD0Vhp1qxZMmTIEMnNzTW0BQYGSosWLQSA7Nq1q8oy9+7dKxEREXXfiHrWp08fWbNmjdy6dUtyc3MlMTFRlEqlDBgwwNDnxx9/FI1GIzNnzpR79+7J0aNHxcPDQ15++WVDn5UrV0qfPn3kzp07hraKigrJzMyUQ4cOyaBBg1hU28jnlrlum2zl+LB1zPVHGzx4sCxbtkyysrIkLy9Ptm7dKkqlUv7yl78Y+tRXZtdnvvCaampyCgsLERoa2uiWbSqNRoMBAwagffv2UKlUhvbFixdjy5Yt2Lp1K/R6vdFrVq1aBTs7O8TGxiInJ6ehh2wWJycnxMbGwt3dHXq9HsOHD0dkZCT27duHq1evAgDmz58Pb29vzJ07FzqdDiEhIYiPj8e//vUv/PzzzwCA8ePH44knnsCgQYNQVlYGAFAoFPD19UVYWBjatWtntW0kopox15tWrjs6OuKNN96Ap6cnnJycMGzYMAwdOhRff/01fvvtNwCNM7NZVFOTs379emRlZTW6ZZvj/PnzmDlzJubOnQu1Wl3l+dDQUEyYMAG//vorJk2aZIUR1t2uXbtgb29v1Obh4QEAKCgoQFlZGXbv3o0+ffpAoVAY+gwcOBAigp07dxra5syZg9OnT2PlypUNM3gisgjmetPK9aSkpCrb5OvrCwC4d++eoa2xZTaLarIZIoLly5ejU6dOUKlUcHNzw9ChQw1nGuPi4uDo6Ahvb2/Da9544w3odDooFArcvHkTEyZMwNtvv40LFy5AoVAgKCgIq1atglqtRsuWLfHaa6/Bx8cHarUaoaGhOH78uFnLBoB9+/bB2dkZCxcubMC9ZWzVqlUQEYSHhz+0z4IFC9C+fXt89NFH+Oabbx7a71HvQ0JCAnQ6HbRaLXbu3ImBAwfC2dkZrVq1wubNmw3LKS8vx6xZs+Dn5weNRoOuXbsiMTHRItv766+/QqPRwN/fHxcvXsS9e/fg5+dn1CcwMBAAcObMGUObm5sb+vTpg5UrV+L+t4BEVJ+Y63XX3HI9PT0drq6uaNOmjaGt0WV2Xa8bsZVrq8Br72xSXY6PWbNmiaOjo2zcuFHu3r0rZ86ckW7duomHh4dcv35dRERGjhwpXl5eRq9bunSpAJDs7GwREYmKipLAwECjPrGxsaLT6eTs2bNSVFQkaWlp0rNnT9Hr9ZKRkWHWsnft2iV6vV7mzZtXq+0Vqdu1d76+vlXaAwICJDg4uNrXBAYGyqVLl0RE5OjRo2JnZydt27aVe/fuiUjVa+9MeR+mT58uAOTbb7+VnJwcycrKkrCwMNHpdFJSUiIiIpMmTRKVSiXbt2+XO3fuyLRp08TOzk5OnDhh8vZWJz8/X/R6vcTFxYmIyMGDBwWALF26tEpfjUYj/fr1M2qbOnWqAJBTp04ZtY8fP57XVDPXqQbMddMw101XUlIimZmZsnr1amcmVkwAACAASURBVFGpVLJx48YqfSyd2fWZLzxTTTahsLAQy5cvx3PPPYdRo0bBxcUFXbp0wdq1a3Hz5k2sW7fO7HU4ODgY/koPDg5GQkIC8vLysGHDBrOWO3jwYOTm5mLmzJlmj7Eu8vPzcenSJcOZ2ZqEhITgrbfewuXLl/HOO+9Ueb6270NoaCicnZ3h6emJmJgY5OfnIyMjA0VFRUhISEBkZCSioqLg6uqKGTNmQKlUmr2/Fy1aBB8fHyxYsAAAUFxcDABVLhEBAKVSicLCQqO2yuvwUlNTzRoHEdWMuV53zSXXW7dujVatWmHOnDl47733MGLEiCp9GlNms6gmm5CWloZ79+6hR48eRu09e/aEo6Oj4es8S+rRowe0Wq3h66/GKisrCyICrVZrUv8FCxagQ4cOWLNmDY4cOWL0nDnvg6OjIwCgtLQU586dQ0FBATp37mx4XqPRwNvb26z9nZSUhK1bt+Krr74y/Gin8rq8yh+y/F5JSQk0Go1RW+V+unHjRp3HQUSPxlyvu+aS61evXkVWVhY+//xzfPLJJ3jqqaeqXN/emDKbRXUtFRcXY/z48fD29oZWq8Wf//xntGzZEgqFAmvXrq339S9ZsgQdO3aERqOBTqdDx44dMXPmTOTm5hr6zJs3D8HBwXB2doZKpUJQUBCmTJlidPG/rbl79y6A+zM9PMjV1RV5eXn1sl6VSoXs7Ox6WXZDKSoqAgCjX4zXRK1WY8OGDVAoFHjllVeMzuRa6n3Iz88HAMyYMQMKhcLwuHLlCgoKCkxaxoO2bNmCxYsXIyUlBW3btjW0V14v+fvPAHD/R4xFRUXw8fExaq8ssiv3GxFzvX4w1+uuueS6UqmEp6cn+vfvjy1btiAtLQ2LFi0y6tOYMptFdS29//772LdvH37++WesXLkSr732Go4ePdpg6z98+DDGjBmDjIwM3LhxA/Pnz8eSJUsQHR1t6HPgwAGMGzcOly9fxs2bN7Fo0SKsXLkSw4YNa7Bx1parqysAVPvhvnv3Llq1amXxdZaWltbbshtSZeCUl5eb/JqQkBBMnDgR6enpmD9/vqHdUu+Dp6cnAGDFihWQ+/PhGx51uSvb6tWrsWnTJhw4cACPPfaY0XP+/v7Q6/W4cuWKUfv58+cBAF27djVqLykpAYAqZ7Cp+WKu1w/met01h1x/UFBQEOzt7ZGWlmbU3pgym0V1LSUnJ6NHjx5wdXXFf//3fxuFnqVVN3emKXM7mjKvr63p3LkznJyc8P333xu1Hz9+HCUlJejevTuA+9fPlZaWWmSdKSkpEBH06tXL4stuSJVn1Go7T+n8+fPRsWNHnDp1ytBm6vvwKK1bt4Zarcbp06drNaYHiQji4+ORmpqK5OTkas+0ODg4YNCgQTh06BAqKioM7Xv37oVCoajyy/nK/eTl5WXW2KjpYK7XD+Z63TXlXL916xaef/75Ku3p6ekoLy9H69atjdobU2azqK6lzMxMKJXKBllXdXNnmjK346Pm9bVFarUab7/9NpKSkrBp0ybk5uYiNTUVY8eOhY+PD2JjYwHc/0v29u3bSE5ORmlpKbKzs6ucoXR3d8e1a9dw+fJl5OXlGQK1oqICd+7cQVlZGc6cOYMJEybAz88Po0ePNmvZe/futerUS1qtFgEBAcjMzKzV6yq/Lvz9sWLq+2DKsl9++WVs3rwZCQkJyM3NRXl5OTIzMw1FQkxMDLy8vHDy5MmHLufs2bN477338OGHH0KpVBp95ahQKLBs2TIAwMyZM3Hjxg3Mnj0b+fn5OHbsGJYuXYrRo0ejQ4cORsus3E9dunSp1f6ipou5Xj+Y63XXlHNdp9Nh//79OHDgAHJzc1FaWopTp07hpZdegk6nw8SJE436N6rMruu0Ic1t6qX9+/dLYGCg0T3ndTqdiIikp6cLAPnnP/9p6F9RUSHvv/++dOzYURwdHcXV1VUiIiLkp59+MvQ5dOiQdOrUSZydnUWlUknnzp1l3759InJ/qhhHR0fDuh6c7uf3Bg8eLK6urlJcXPzQPhEREaLRaGrsY0l1OT4qKipk6dKl0q5dO1EqleLm5iaRkZFy7tw5Q59bt25J3759Ra1Wi7+/v7z55psyefJkASBBQUGSkZEhJ0+elDZt2ohGo5HevXvL9evXJTY2VpRKpfj6+oqDg4M4OzvL0KFD5cKFC2Yve8+ePaLX62XBggW13k+1PX4fNvVSXFycKJVKKSgoMLQlJSUZjlkPDw8ZN25ctcucPHmy0dRLj3of1qxZI1qtVgBIu3bt5MKFC7Ju3TpxdnYWANKmTRv55ZdfpLi4WOLj48XPz08cHBzE09NToqKiJC0tTUREIiMjBYDMmjXrodubmppq9Jl78PH7afQOHjwoTz/9tKhUKvHx8ZHJkydXud2vyP3Pi6+vr1RUVBi1c0o95jpzvWbMddMw12vOdRGR8PBw8ff3FycnJ1GpVBIYGCgxMTGSmppapa+lM7s+84VFdS15eXnJSy+9ZNRWXfiaMifktm3bZM6cOXL79m25deuW9OrVy+gAqW7uzEqmzO1Y6cF5fRuCrRwflWJjY8Xd3d3aw6jCUuGbnp4uDg4ONR4Htqa8vFzCwsJk/fr1DbbOmzdvilqtlmXLllV5jkW17XxumevMdVMw122PpXO9PjK7PvOFl3/UA1PnhIyOjsbs2bPh5uYGd3d3hIeH49atWyb9atmUuR0rPTivb3NVmx982LLCwkJ89dVXSE9PN/yAIygoCPPmzcO8efNsejaASuXl5UhOTkZeXh5iYmIabL1z5szBk08+ibi4OAD3r9m+du0ajhw5YvhhI1F1mOu2ibluO+oj1xtbZrOorgd1nROy8po+U0LClLkdgern9aXG7fbt2xgwYADat2+PV155xdA+depUDBs2DDExMbX+cUtDS0lJwY4dO7B3716T52E11/Lly3H69Gns2bPH8FnbuXMnfH19ERYWht27dzfIOKhxYq5TfWKuV9UYM5tFdT0wdU7I3bt349lnn4WnpydUKhWmTJli8jpMmdvxYfP6NjfTpk3Dhg0bkJOTA39/f2zfvt3aQ6qztWvXGk1jtGnTJqPnFy5ciLi4OLz77rtWGqFp+vXrh88++8wwx3R927lzJ4qLi5GSkgI3NzdD+9ChQ432582bNxtkPNT4MNdtC3Pd9lgy1xtrZrOorgemzAmZkZGByMhIeHt74/jx48jJycGSJUvqtL7q5nasaV7f5mbRokUoLi6GiODSpUv1Ol2WLejfvz8WL15s7WHYlIiICEydOrXaW5kTmYK5bluY601bY81sFtX1wJQ5IVNTU1FaWorXX38dAQEBUKvVUCgUNS7XlLkdxYR5fYmIqHaY60T0KCyq64Epc0L6+fkBAL755hsUFRUhPT29yjV5D86d6ejo+Mi5HU2d15eIiEzHXCeiR2FRbaIrV66gW7duuHHjBj777DN0794dO3bswPLly9G7d28AwKRJkxAVFQUAmD17NhYtWoR58+bBw8MDffr0Qdu2bZGSkgKdTocuXbogPj4ea9asgY+PD6ZPn45nn30WANC7d29cvXoVY8eORcuWLREcHIxBgwahoKAAzzzzDF599VX4+vpCr9dj2LBhaNu2Lb777jt07twZ92eLISKiR2GuE5ElKaSOn9atW7dixIgRVv+wKxQKJCYmYvjw4VYdBxmzlePD1vH4bfyGDRsGANi2bZuVR2I+W/nc8nNhm2zl+LB1PH5tW32+PzxTTURERERkJhbVRERERERmYlFNRERERGQmFtVERERERGZiUU1EREREZCYW1UREREREZmJRTURERERkJhbVRERERERmcjB3AZU3PrCmFStWNIkbLzQlmZmZAGzj+LB1PH4bt++++w69evWy9jAsyhY+t/xc2B7muul4/DZPdb6j4rFjx7B8+XJLj4eoVr777ju0a9cOLVq0sPZQqBkLCQnBxIkTrT0MszHXqaH98ssvAID27dtbeSTUnEycOBEhISEWX26di2oiW8DbwRIRNV6V2b1161Yrj4TIfLymmoiIiIjITCyqiYiIiIjMxKKaiIiIiMhMLKqJiIiIiMzEopqIiIiIyEwsqomIiIiIzMSimoiIiIjITCyqiYiIiIjMxKKaiIiIiMhMLKqJiIiIiMzEopqIiIiIyEwsqomIiIiIzMSimoiIiIjITCyqiYiIiIjMxKKaiIiIiMhMLKqJiIiIiMzEopqIiIiIyEwsqomIiIiIzMSimoiIiIjITCyqiYiIiIjMxKKaiIiIiMhMLKqJiIiIiMzEopqIiIiIyEwsqomIiIiIzMSimoiIiIjITCyqiYiIiIjMxKKaiIiIiMhMLKqJiIiIiMzEopqIiIiIyEwsqomIiIiIzMSimoiIiIjITCyqiYiIiIjMxKKaiIiIiMhMChERaw+CyBQvvPACTp8+bdR29epVtGjRAlqt1tCmVCrx5ZdfwtfXt6GHSERED/HJJ59gxYoVKC8vN7TdvHkTAODh4WFos7e3x1tvvYWXXnqpwcdIZA4Haw+AyFQdOnTApk2bqrTn5OQY/X+nTp1YUBMR2ZhevXrh3//+d7XPXb9+vUpfosaGl39Qo/H8889DoVDU2EepVGL06NENMyAiIjJZhw4d0LVr1xpzXKFQoGvXrujQoUMDjozIMlhUU6MREBCAp556CnZ2Dz9sy8rKMHz48AYcFRERmerFF1+Evb39Q593cHDgZR/UaLGopkblxRdffGhRrVAo8Ic//AFt27Zt2EEREZFJ/va3v6GiouKhz/PECDVmLKqpUakpkO3s7PDiiy828IiIiMhUjz32GEJCQqo9OWJnZ4fQ0FC0atXKCiMjMh+LampUWrZsiT/+8Y8P/fowKiqqgUdERES18cILL1R7XbVCoeCJEWrUWFRTo/PCCy9UabO3t0e/fv3QsmVLK4yIiIhMNXz48If+WJEnRqgxY1FNjU50dHSVrw5FBKNGjbLSiIiIyFRubm74y1/+YvSNo729Pf7617+iRYsWVhwZkXlYVFOj4+zsjIEDB8LB4T/TrDs4OCAiIsKKoyIiIlONGjXK6PcxPDFCTQGLamqURo0aZbgrl4ODA8LDw+Hs7GzlURERkSmGDh0KlUpl+H+lUokhQ4ZYcURE5mNRTY3SkCFDDLcmLy8vx8iRI608IiIiMpVWq0VERASUSiUcHBwQGRkJJycnaw+LyCwsqqlRUqvVeO655wAAOp0OAwYMsPKIiIioNkaOHImysjKUl5fj+eeft/ZwiMzm8GBDZmYmjh49ao2xENVK5VymPXr0wBdffGHl0RA9WuvWrRESElIvyz527BiuXr1aL8smqg/l5eVQq9UAgLy8PGzdutXKIyIyXbV5Lg9ITEwUAHzwwQcffFj4ER0d/WDkWkx0dLTVt48PPvjgo7k8qsvzKmeqK4nIw55qEAqFAomJibxdqY3bunUrRowYYbXjZf78+Zg2bdpDbwZjK3g807Bhw+p9HdHR0di2bVu9r+dhrJ0H1DAsmWcpKSlQKBTo06ePBUZmOyo/79b8PFL9eVieP7SoJmoMpk6davMFNRERVe+Pf/yjtYdAZDEsqqlR+/1c1URE1Lg8eCMvosaMRzMRERERkZlYVBMRERERmYlFNRERERGRmVhUExERERGZiUW1iXr27Al7e3s8+eSTFl3uq6++Cr1eD4VCgdOnT5vcZ8+ePXBxccGXX35p0fEQETUFzOzqVVRUYMWKFQgNDbXqOIiaIhbVJjpx4gT69u1r8eV+9NFH+PDDD2vdh/PAEhE9HDO7qvT0dPzxj3/ExIkTUVBQYO3hEDU5nI+slhQKhbWHAAAYPHgwcnJyrD0MIiKbxsy+79///jfmzZuHsWPHIj8/3yaKfKKmhmeqa0mpVFp8maaEfn3+wyAi2LZtG9atW1dv6yAisgZm9n1PPPEEduzYgZEjR0KlUtXb2IiasyZXVJeXl2PWrFnw8/ODRqNB165dkZiYCABYuXIldDod7Ozs0L17d3h5eUGpVEKn06Fbt24ICwtD69atoVar4erqiilTplRZ/vnz59GxY0fodDpoNBqEhYXhyJEjJq0fuB+GS5cuRYcOHaBSqeDi4oLJkycbreNRfY4cOQI/Pz8oFAp88MEHAICEhATodDpotVrs3LkTAwcOhLOzM1q1aoXNmzcbjW/RokXo0KEDNBoNPDw84O/vj0WLFvEW2kTU4JjZzGyiJkMekJiYKNU0NzgAkpiYWOvXTZo0SVQqlWzfvl3u3Lkj06ZNEzs7Ozlx4oSIiMyePVsAyPHjxyU/P19u3rwpAwYMEACye/duyc7Olvz8fImLixMAcvr0acOy+/XrJwEBAXLp0iUpLS2VH3/8Uf7whz+IWq2WX375xaT1T58+XRQKhbz//vty584dKSgokDVr1ggAOXXqlMl9rl69KgBk9erVhvFNnz5dAMi3334rOTk5kpWVJWFhYaLT6aSkpERERBYuXCj29vayc+dOKSgokB9++EG8vLzk2WefrcO7ZDvHi62r6/FMTUd0dLRER0c32uWboi55wMxu2MwWEfnDH/4gTzzxRJ1fzzx7NFv4PFL9edj726TOVBcVFSEhIQGRkZGIioqCq6srZsyYAaVSiQ0bNhj1DQ4OhlarRYsWLfC3v/0NAODn5wcPDw9otVqMGjUKAPDzzz8bvU6v16Nt27ZwcHDA448/jg8//BBFRUVYt27dI9dfWFiIFStW4M9//jMmTpwIV1dXaDQauLu7G5ZvSp9HCQ0NhbOzMzw9PRETE4P8/HxkZGQAAJKTk9G9e3eEh4dDo9GgW7duiIiIwKFDh1BSUlKn/U5EVBfM7PuY2URNQ5Mqqs+dO4eCggJ07tzZ0KbRaODt7V0laH/P0dERAFBWVmZoq7wOr7S0tMZ1dunSBS4uLjhz5swj13/+/HkUFBSgX79+D12eKX1qo3LbKrejqKioyg9UysvLoVQqYW9vb5F11oWtTDfVlHzzzTeYOnUqduzYgYCAACgUCigUCrzwwgtV+vbv3x96vR729vZ4/PHHcfLkSSuMuGbz5s1DcHAwnJ2doVKpEBQUhClTpuDevXtG/Y4cOYJnnnkGWq0WPj4+iI+PR3FxMQDgiy++wJIlS1BeXm6NTaAHMLOraiyZbS5mfv1oarm/ZMkSdOzYERqNBjqdDh07dsTMmTORm5sLwPYyvUkV1fn5+QCAGTNmGA4khUKBK1eu1Ov0QUqlEqWlpY9cf2ZmJgDA09PzocsypY85Bg0ahB9++AE7d+5EYWEhvv/+eyQnJ+O//uu/rBrQD/6jQeaZPXs2Vq1ahWnTpiEqKgoXL15EYGAgWrRogU2bNmH37t1G/ffv349t27ZhyJAhSEtLQ7du3aw08oc7cOAAxo0bh8uXL+PmzZtYtGgRVq5ciWHDhhn6pKWloX///ujXrx+ys7ORlJSEjz/+GGPHjgUAhIeHQ61Wo1+/frh79661NoX+f8zsR7PVzDYXM9/ymmLuHz58GGPGjEFGRgZu3LiB+fPnY8mSJYiOjgZge5nepIrqylBbsWIFRMTocezYsXpZZ1lZGW7fvg0/P79Hrl+tVgOA4axZdUzpY445c+bgT3/6E0aPHg1nZ2c899xzGD58+CPnXa1vldNNDRkyxCrrLywsbDI3Q1i8eDG2bNmCrVu3Qq/XGz23atUq2NnZITY2ttFNyejk5ITY2Fi4u7tDr9dj+PDhiIyMxL59+3D16lUAwPz58+Ht7Y25c+dCp9MhJCQE8fHx+Ne//mU48zl+/Hg88cQTGDRokNGZTmp4zOxHs9XMNhcz37Kaau47OjrijTfegKenJ5ycnDBs2DAMHToUX3/9NX777TcAtpXpTaqorvwV+MPuclUf/u///g8VFRXo1q3bI9ffuXNn2NnZ4eDBgw9dnil9zJGWloYLFy4gOzsbpaWlyMjIQEJCAtzc3OplfY3F+vXrkZWVZe1hmO38+fOYOXMm5s6da/jH/vdCQ0MxYcIE/Prrr5g0aZIVRlh3u3btqnJmzsPDAwBQUFCAsrIy7N69G3369DGazmzgwIEQEezcudPQNmfOHJw+fRorV65smMFTtZjZj8bMrh9NJfOBpp37SUlJVbbJ19cXAIwu/bOVTG9SRbVarcbLL7+MzZs3IyEhAbm5uSgvL0dmZqbhLxpzlZSUICcnB2VlZTh58iTi4uLQpk0bjB49+pHr9/T0RHR0NLZv347169cjNzcXZ86cMZpr1JQ+5hg3bhz8/PyqXIdqTXWdbmrVqlVQq9Vo2bIlXnvtNfj4+ECtViM0NBTHjx8HAMTFxcHR0RHe3t6G9b3xxhvQ6XRQKBS4efMmJkyYgLfffhsXLlyAQqFAUFAQAGDfvn1wdnbGwoULG3iP1N2qVasgIggPD39onwULFqB9+/b46KOP8M033zy0n4hg+fLl6NSpE1QqFdzc3DB06FDDGd/aTAlW05Rl5vj111+h0Wjg7++Pixcv4t69e/Dz8zPqExgYCAA4c+aMoc3NzQ19+vTBypUr+TW0FTGzH80WM9tczHzLam65n56eDldXV7Rp08bQZjOZ/uB0ILYyRRrqOGVPcXGxxMfHi5+fnzg4OIinp6dERUVJWlqarFy5UrRarQCQtm3byuHDh2Xx4sXi4uIiAMTLy0s+++wz2bJli3h5eQkAcXNzk82bN4uIyIYNG6Rv377SsmVLcXBwkBYtWsjf/vY3uXLliknrFxHJy8uTMWPGSIsWLcTJyUl69+4ts2bNEgDSqlUr+fe///3IPmPGjBFvb28BIFqtVsLDw2XNmjWGbWvXrp1cuHBB1q1bJ87OzgJA2rRpI7/88oscOHBAWrRoIQAMD6VSKZ06dZIdO3bUen9b6nip63RTsbGxotPp5OzZs1JUVCRpaWnSs2dP0ev1kpGRISIiI0eOFC8vL6P1LV26VABIdna2iIhERUVJYGCgUZ9du3aJXq+XefPmmb19dT2eaysgIECCg4OrfS4wMFAuXbokIiJHjx4VOzs7adu2rdy7d09ERPbu3SsRERGG/rNmzRJHR0fZuHGj3L17V86cOSPdunUTDw8PuX79uoiY9h49asqyusrPzxe9Xi9xcXEiInLw4EEBIEuXLq3SV6PRSL9+/Yzapk6dajTlWX3jlHrVY2Y3TGYfO3ZMnnnmGfHx8TEsx9vbW0JDQ+XgwYO1es8skWdNPfMb8vPYHHK/pKREMjMzZfXq1aJSqWTjxo1V+jRkpj/s/W1yRTXVbM2aNTJhwgSjtuLiYnnrrbdEpVJJQUFBrZbXEEV1YWGhoa1y7tfz58+LyP2AdXFxMVrWiRMnBIDMnTtXROoesJbUEMfzvXv3RKFQyJAhQ6p9/vfhKiLy9ttvCwAZN26ciBiHa0FBgTg5OUlMTIzRMv7f//t/AsDwj86j3qPCwkLRarVGyykoKBCVSiWvv/66Wds7ffp0ad++veTm5oqIyP79+wWALF++vEpfZ2dnCQ0NNWr7+OOPBYB8+umnZo3DVCyqqS4sndmWUN9FdVPI/Ib6PDaX3K/8o7lFixbyj3/8w1C8/15DZnqzmKeaanb9+nXExcXh73//u1G7o6Mj/Pz8UFpa+sjpqKztwemmqtOjRw9otdoap+RqirKysiAi0Gq1JvVfsGABOnTogDVr1hjdYQ64fx3nvXv30KNHD6P2nj17wtHR0fBVa3V+/x7Vdcq0R0lKSsLWrVvx1VdfGX6UU3ndXXU/VCkpKYFGozFqq9xPN27cqPM4iOpTU8hsczHza9Zccv/q1avIysrC559/jk8++QRPPfVUlWvibSHTWVQ3IxqNBkqlEuvXr8eNGzdQWlqKa9eu4aOPPsKsWbMQExMDZ2dnaw/TIlQqFbKzs609jAZVVFQE4P62m0KtVmPDhg1QKBR45ZVXUFhYaHiucmoiJyenKq9zdXVFXl6eSeuojynTtmzZgsWLFyMlJQVt27Y1tFdeQ1k5f2mlgoICFBUVwcfHx6i9ssiu3G9EtuZRmf3kk0/CxcXF6LNV3SMmJsbam1LvmmPmA80n95VKJTw9PdG/f39s2bIFaWlpWLRokVEfW8h0FtXNiIuLC/bv348ff/wR7du3h0ajQXBwMDZs2IDFixfjk08+sfYQLaK0tBR3795Fq1atrD2UBlUZKLWZBD8kJAQTJ05Eeno65s+fb2h3dXUFgGpDtDb71tJTpq1evRqbNm3CgQMH8Nhjjxk95+/vD71ejytXrhi1nz9/HgDQtWtXo/bKu9E9eAabyFY8KrOPHz9e5XNV3WPLli3W3pR61VwzH2geuf+goKAg2NvbIy0tzajdFjLdwWprJqsICwvD119/be1h1KuUlBSICHr16gUAcHBwaPJfkQJAy5YtoVAoaj0P6fz587Fr1y6cOnXKMHNG586d4eTkhO+//96o7/Hjx1FSUoLu3bubtGxLTZkmInjnnXdw584dJCcnw8GhanQ5ODhg0KBBOHToECoqKmBnd/+cwd69e6FQKKr8Mr5yP3l5eZk1NqL61Bwy21zNNfOBpp37t27dwptvvonPP//cqD09PR3l5eVo3bq1UbstZDrPVFOjV1FRgTt37qCsrAxnzpzBhAkT4Ofnh9GjRwO4/1ft7du3kZycjNLSUmRnZ1c5m+nu7o5r167h8uXLyMvLQ2lpKfbu3duoplfSarUICAgw3OHNVJVfB/5+Dmi1Wo23334bSUlJ2LRpE3Jzc5GamoqxY8fCx8cHsbGxJi/7UVOmxcTEwMvLq8Zb5J49exbvvfcePvzwQyiVyipfby9btgwAMHPmTNy4cQOzZ89Gfn4+jh07hqVLl2L06NHo0KGD0TIr91OXLl1qtb+IyLqY+f/RlHNfp9Nh//79OHDgAHJzc1FaWopTp07hpZdegk6nw8SJE43620SmP/jLRVv59TY4+0ejYInjZfXq1XWebio2NlaUSqX4+vqKg4ODODs7SDz8vwAAIABJREFUy9ChQ+XChQuG5d+6dUv69u0rarVa/P395c0335TJkycLAAkKCpKMjAw5efKktGnTRjQajfTu3VuuX78ue/bsEb1eLwsWLDB3NzXY8RwXFydKpdJoRoCkpCQJDAwUAOLh4WH41feDJk+ebDS1UkVFhSxdulTatWsnSqVS3NzcJDIyUs6dOyciYvJ79KgpyyIjIwWAzJo166HblZqaajSl2IOP30+jd/DgQXn66adFpVKJj4+PTJ48WYqKiqosc/DgweLr6ysVFRW128l1xNk/qKkwN8+aQ+Y35Oexqea+iEh4eLj4+/uLk5OTqFQqCQwMlJiYGElNTa3StyEznVPqUb2w9vESGxsr7u7uVlu/qRrqeE5PTxcHB4dq5/C0VeXl5RIWFibr169vsHXevHlT1Gq1LFu2rMHWyaKamgpr/vvcWDK/IT+PzP2Gz3ROqUdNVm1+oNHUBQUFYd68eZg3b16juANbeXk5kpOTkZeX16AzFMyZMwdPPvkk4uLiGmydRGQZzHxjzH3byXSb/qHiihUrsG3bNmsPg2pQ2+u4qP5NnToV9+7dQ0xMDD777DO4uLhYe0gPlZKSgh07dmDv3r0mz7NqruXLl+P06dPYs2cPlEplg6yzuRk2bJi1h0DUrDTn3LelTOeZamq0pk2bhg0bNiAnJwf+/v7Yvn27tYdkMxYuXIi4uDi8++671h5Kjfr164fPPvvMMMd0fdu5cyeKi4uRkpICNze3BlknEVkGM79mzTH3bS3TbfpM9VtvvYXhw4dbexhUg61bt2LEiBFWWfeiRYuqTP5O/9G/f3/079/f2sOwKREREYiIiLD2MJo8fsPYtCkUCqusl5n/aM0t920t03mmmoiIiIjITCyqiYiIiIjMxKKaiIiIiMhMLKqJiIiIiMzEopqIiIiIyExmF9UxMTFQKBQmPXbt2mWJMVexY8cOBAQE1Ljutm3bmr2enj17wt7eHk8++aT5g/6dV199FXq9HgqFAqdPnza5z549e+Di4oIvv/zSouMhoqbPFrK7Jsx15jpRY2ORM9X79+/H3bt3UVpait9++w0AEB4ejpKSEuTn5yMrKwtjxoyxxKqqFRUVhYsXLyIwMBAuLi6Q+7dfR1lZGQoKCnDjxg2LTDB+4sQJ9O3b1wIjNvbRRx/hww8/rHUfEbH4WIio+bB2dteEuU5EjY3Z81QrFAo888wzVcJNoVBAqVRCqVRCq9Wie/fu5q6q1uzt7aHRaKDRaNC+fXuLLddac3Q+aPDgwcjJybH2MIioEbLl7K4Jc52IbJXZRfXmzZtN6hcbG2vuqsySnJxssWXVx20wTQn0+gx9EcH27dtx584d/Pd//3e9rYeIbENjye6aMNdrxlwnaljN7oeKK1euhE6ng52dHbp37w4vLy8olUrodDp069YNYWFhaN26NdRqNVxdXTFlypQqyzh//jw6duwInU4HjUaDsLAwHDlyxPB8eXk5Zs2aBT8/P2g0GnTt2hWJiYmG50UES5cu/f/Yu/OwKMv9f+DvAWZngEEQCETZFLcWl46gZh3P4VQWSIBQWVpXRpoRuUQu4E4aLhw9opdmfDtqggthWZiZaZnmsRMG4RLigqSCGyAMywCf3x/+mOPINjAMs/B5Xdf84TP33Pc9z8y8+fjM89yDfv36QSwWw97eHrNnz9Yao602R48ehaenJwQCAf71r38BAFJSUiCXyyGTybB3714888wzsLOzg4eHh9Yf0Pr6eiQmJqJfv36QSqVwcnKCl5cXEhMT+RcsGWNmh3Odc50xU2DxRXVsbCx+//13rX/Pnj0bRIQNGzbg4sWLuH79Op544glkZ2djzpw5yM7Oxu3btzFp0iQkJSXht99+0+pTqVRi//79KCsrwy+//AK1Wo2///3vyM/PBwB88MEH+Oijj7BmzRpcu3YNzz//PF566SX88ssvAID4+HjExcUhOjoaxcXFuH79Oj744AOtMdpqM2rUKBw7dkzrMdOmTcN7772HqqoqKBQKpKeno6CgAN7e3pgyZQrUajUAYMWKFUhISEBSUhJu376NAwcOoLq6Gg4ODnBwcOi8nc8YYwbAuc65zpgpsriiuqysTOvq8H/+858tth0wYABkMhl69OiBF198EQDg6ekJJycnyGQyTJw4EQBw9uxZrccpFAr06dMHNjY2GDhwIDZv3ozq6mps2rQJ1dXVSElJQWhoKMLCwuDg4ID58+dDKBQiNTUVVVVVWLNmDf72t79hxowZcHBwgFQqhaOjo6Z/Xdq0JTAwEHZ2dnB2dkZUVBQqKytRWFgI4N5XpkOHDkVwcDCkUimGDBmCkJAQ/PDDD6itrdV5DMYY6wqc6/dwrjNm2vQ+p9rU2Nvbo7S0VPPv2NhYnR4nEokAAHV1dZptjefYNR4JaMngwYNhb2+PnJwcnDt3DiqVCoMGDdLcL5VK4erqirNnz+L8+fNQqVQYO3Zsi/3p0qY9Gp9b4/Oorq6GRCLRalNfXw+hUAhra+sOjWEqF/mYssjISERGRhp7GsyIwsPDjT0Fs8S53lRX5HprOM90w38bLVdzeW5xRfWDkpOTu2QcoVAItVqNyspKAMD8+fMxf/58rTZubm4oKioCADg7O7fYly5t9PHss88iKSkJe/fuRVBQEPLy8pCZmYnnnnuuw+F7/7mFrKnIyEjExsYiICDA2FNhRrJmzRpjT8FicK43ZYhcbw3nWesaP+/vvfeekWfCDKGlPLf4oror1NXV4fbt2/D09NQE5po1a5o9mvL9998DAGpqalrsr/FoQ2tt9LFw4UL897//xeTJk1FRUQE3NzdMmDABy5Yt63CffCFM6yIjIxEQEMD7qRvbtWuXsafA2oFzvXWcZ61r/LzzPrJMLeW5xZ1T3ZJr167htddeM0jf33//PRoaGjBkyBDNFeYt/YLWoEGDYGVlhSNHjrTYny5t9JGXl4eCggLcuHEDarUahYWFSElJgVKpNMh4jDFmCJzr/8O5zpjxWXxRTUSoqqrCnj17YGdn1yl91tbWoqysDHV1dfj1118RExOD3r17Y/LkyZBIJHjttdewY8cOpKSkoLy8HPX19SgqKsK1a9fg7OyM8PBw7N69G1u2bEF5eTlycnKwadMmTf+6tNHH9OnT4enpiYqKik7pjzHGuhLnelOc64yZAHpAeno6NbO5TeXl5fTEE0+Qo6MjASArKyvy9fWlZcuWtbsvuvc7rZSenq5T24yMDPLx8SEArd7mz59PycnJJJPJCAD16dOHfvzxR1q+fDnZ29sTAHJxcaHt27dTWloaubi4EABSKpW0Y8cOIiJKTU2lp556inr27Ek2NjbUo0cPevHFF+ny5cua+dTU1FBcXBx5enqSjY0NOTs7U1hYGOXl5RER0d27d2nKlCnUo0cPsrW1pVGjRlFCQgIBIA8PD/rtt9/abDNlyhRydXUlACSTySg4OJjWr1+veW5+fn5UUFBAmzZtIjs7OwJAvXv3pj/++IMOHTpEPXr00No3QqGQ+vfvT3v27GnX69TR90t30573M7NM4eHhFB4ebnL9d2Z2d2YecK4bL9fbwnnWNkN/3plxtfT6CoiI7i+yd+7cicjISDywucsJBAKkp6fz+UgGkJKSgvz8fK0T7Wtra/HBBx8gJSUFd+7cgVQq1akvU3m/mDp+P7OIiAgAhju32tD964LzwHg6M9fbwnnWNlP4PDLDaen15QsVu5nr168jJiamybmBIpEInp6eUKvVUKvVnRa+jDHGDItznTHTYPHnVDNtUqkUQqEQW7ZsQXFxMdRqNa5evYqPP/4YCQkJiIqK6rRzFBljjBke5zpjpoGL6m7G3t4eBw4cwO+//46+fftCKpViwIABSE1NxfLly/Hpp58ae4qMMcbagXOdMdPAp390Q6NHj8a3335r7GkwxhjrJJzrjBkfH6lmjDHGGGNMT1xUM8YYY4wxpicuqhljjDHGGNMTF9WMMcYYY4zpiYtqxhhjjDHG9GTSRXVkZCQEAgHfTPgWGRlp7LeJxTt48CDmzJmDPXv2wNvbW7PvX3nllSZtg4KCoFAoYG1tjYEDB+LXX381woxbt3jxYgwYMAB2dnYQi8Xw9fXF+++/j4qKCq12R48exciRIyGTyeDm5oa4uDjU1NToPX51dTX8/f0xf/58zTa1Wo2EhAR4e3tDJBLB3d0ds2bNQlVVFQDgiy++wIoVK1BfX6/3+N2BsXOJb4a9McOztNxfsWIF/P39IZVKIZfL4e/vj/j4eJSXl+vdtyllukkvqRcbG4uAgABjT4O14vjx40hOTjb2NCzWggULkJ2dje3bt0OhUCAsLAy+vr4oLS3Ftm3bEBUVhXHjxmnaHzhwAPv378fGjRuRmZlpxJm37NChQ5g+fTqioqIgFAqRlZWFiRMnIjc3F1lZWQCAvLw8BAUFYdasWThw4ABycnIQHByMGzdu4JNPPtFr/Hnz5uHcuXNa22JjY/HJJ58gNTUV48aNw3//+1+EhITg2rVr2L59O4KDg3Hx4kWMHTsWmZmZcHBw0GsOli49Pd3YU2AGxAdTDMsSc//HH3/ElClT8Oqrr0IqlSIrKwsvv/wyTpw4gQMHDujVt0llOj0gPT2dmtnc5QBQenq6safB2mDM94tKpaKAgACz6Lsj7+cPP/yQ+vbtS1VVVVrbfXx8aPv27WRlZUXu7u5UWlqqdX9WVhaFhIToPWdDGTduHNXV1WltmzBhAgGgwsJCIiKKjIwkLy8vamho0LRJSkoigUBAZ86c6fDYP/30EwUFBREAmjdvHhERFRQUkJWVFb355ptabefPn08A6PTp05ptMTExFBAQQGq1ut1jh4eHU3h4eIfnbuz+dWEqfz+YYRnr77M5ZX5HP4+WmvuhoaFNnlNERAQBoKtXr3a4X2Nlekuvr0mf/sFYa7Zs2YKSkhKz61sX58+fR3x8PBYtWgSJRNLk/sDAQMTGxuLPP//ErFmzjDDDjtu3bx+sra21tjk5OQEAVCoV6urq8NVXX2HMmDFaXzU/88wzICLs3bu3Q+NWVVVh9uzZTb5ZOXnyJBoaGvCXv/xFa/vTTz8NAPjmm2802xYuXIhTp07xtzOMGYElZz5g2bmfkZHR5Dm5u7sDQJNT/3RlipnORTXrckSE1atXo3///hCLxVAqlRg/fjzOnj0LAIiJiYFIJIKrq6vmMW+//TbkcjkEAgFu3ryJ2NhYzJw5EwUFBRAIBPD19cXatWshkUjQs2dPvPXWW3Bzc4NEIkFgYCBOnDihV98AsH//ftjZ2WHZsmUG30dr164FESE4OLjFNkuXLkXfvn3x8ccf4+DBgy22a2t/p6SkQC6XQyaTYe/evXjmmWdgZ2cHDw8P7NixQ9NPfX09EhIS4OnpCalUiocffrjTvub/888/IZVK4eXlhQsXLqCiogKenp5abXx8fAAAOTk5HRpj3rx5ePvtt+Hs7Ky13crqXgxKpVKt7X5+fgCAM2fOaLYplUqMGTMGycnJIKIOzYOx7oYzXzfdLffz8/Ph4OCA3r17d+jxJpnpDx66NpWv78Cnf5iFjrxfEhISSCQS0datW6m0tJRycnJoyJAh5OTkRNevXyciopdffplcXFy0HpeUlEQA6MaNG0REFBYWRj4+PlptoqOjSS6X0+nTp6m6upry8vJo+PDhpFAoNKcWdLTvffv2kUKhoMWLF7fr+RK1//3s7e1NAwYMaPY+Hx8funjxIhERHTt2jKysrKhPnz5UUVFBRE2/BtRlf8+bN48A0HfffUdlZWVUUlJCo0ePJrlcTrW1tURENGvWLBKLxbR79266c+cOzZ07l6ysrOjkyZPt3h/3q6ysJIVCQTExMUREdOTIEQJASUlJTdpKpVIaO3Zsu8c4evQoBQcHExHRjRs3tL4qzMnJIQAUHx+v9Zi6ujoCQKGhoVrb58yZQwAoOzu7XXPg0z+YpWhvnnXHzO/I57E75H5tbS0VFRXRunXrSCwW09atWzvUj7EznU//YCahqqoKq1evxgsvvICJEyfC3t4egwcPxsaNG3Hz5k1s2rRJ7zFsbGw0/zsfMGAAUlJScPfuXaSmpurV77hx41BeXo74+Hi959iayspKXLx4UXNktjUBAQF47733cOnSJXzwwQdN7m/v/g4MDISdnR2cnZ0RFRWFyspKFBYWorq6GikpKQgNDUVYWBgcHBwwf/58CIVCvfdrYmIi3NzcsHTpUgDQrPDx4CkiACAUCjVXb+uqqqoKsbGxSElJafb+wYMH4+mnn8b69etx6NAhVFdX4/r168jIyIBAIIBardZq33i0Izc3t13zYKw74szXTXfJ/V69esHDwwMLFy7ERx991KGLXk0507moZl0qLy8PFRUVGDZsmNb24cOHQyQSab6y60zDhg2DTCbTfO1l6kpKSkBEkMlkOrVfunQp+vXrh/Xr1+Po0aNa9+mzv0UiEYB7SxOdO3cOKpUKgwYN0twvlUrh6uqq137NyMjAzp078c0330ChUACA5ry7urq6Ju1ra2ubfKXXlrlz5+LNN9/UnL/XnLS0NERERODVV1+Fo6MjRo4cic8//xxEhB49emi1bXxdiouL2zUPxrojznzddJfcv3LlCkpKSvDZZ5/h008/xWOPPdbuc9lNOdO5qH5ATU0N3n33Xbi6ukImk+Fvf/sbevbsCYFAgI0bNxp8fF3WctR1nV9TVFpaCgCwtbVtcp+DgwPu3r1rkHHFYjFu3LhhkL47W3V1NYB7c9aFRCJBamoqBAIBXn/9da0juZ21vysrKwEA8+fP11qv9vLly1CpVDr18aC0tDQsX74chw8fRp8+fTTbG899fHD9UpVKherqari5uek8xtGjR5Gbm4s33nij1Xb29vbYuHEjioqKoFKpUFBQgFWrVgEAHnroIa22jUV94+vETB/nuvFw5uumu+S+UCiEs7MzgoKCkJaWhry8PCQmJur8eFPPdC6qH7Bq1Srs378fZ8+eRXJyMt566y0cO3asy8ZvXMuxsLAQxcXFWLJkCVasWIHw8HBNm8Z1fi9duoSbN28iMTERycnJiIiI6LJ5dlTjWpDNfahLS0vh4eHR6WOq1WqD9W0IjR/w9ixKHxAQgBkzZiA/Px9LlizRbO+s/d14IciaNWtARFq348eP6zzPRuvWrcO2bdtw6NChJgHn5eUFhUKBy5cva20/f/48AODhhx/WeZwtW7bgu+++g5WVleYPQuNzWbZsGQQCAX755ZdmH3vy5EkAwFNPPaW1vba2FkDTi2CY6eJcNx7OfN10h9x/kK+vL6ytrZGXl6fzY0w907mofkBmZiaGDRsGBwcHvPnmm1qh19mqqqoQGBiotU0kEmmuZrW1tUVERATGjx+Pb7/9FteuXQNw73+f0dHRcHR0hEKhwIQJExAaGor9+/fjypUrBptvZxg0aBBsbW2bvOlPnDiB2tpaDB06FMC9c+QePO+pow4fPgwiwogRIzq9b0NoPIJWVlbWrsctWbIE/v7+yM7O1mzTdX+3pVevXpBIJDh16lS75vQgIkJcXBxyc3ORmZnZ7JEUGxsbPPvss/jhhx/Q0NCg2Z6VlQWBQNDqlfEPSk1NbfLHoPHo1bx580BETb4ibbR582Z4eXlhzJgxWtsbXxcXFxed58GMi3PdeDjzdWPJuX/r1i289NJLTbbn5+ejvr4evXr10rkvU890LqofUFRUBKFQ2CVjNbcupi5rOba1zq8pk0gkmDlzJjIyMrBt2zaUl5cjNzcXU6dOhZubG6KjowHc+x/s7du3kZmZCbVajRs3bjQ5cuno6IirV6/i0qVLuHv3riY0GxoacOfOHdTV1SEnJwexsbHw9PTE5MmT9eo7KyurS5ZXkslk8Pb2RlFRUbse1/h14P3vDV33ty59v/baa9ixYwdSUlJQXl6O+vp6FBUVaYqCqKgouLi4tPoTuadPn8ZHH32EzZs3QygUNvn545UrVwIA4uPjUVxcjAULFqCyshLHjx9HUlISJk+ejH79+uk8nq4ef/xxXL58GXV1dbh06RJmzZqFgwcPYsuWLZpzDBs1vi6DBw/We1zWNTjXjYczXzeWnPtyuRwHDhzAoUOHUF5eDrVajezsbEyaNAlyuRwzZszQuS9dGS3TH1wOxFSWREIXL6l34MAB8vHxIQCam1wuJyKi/Px8AkAbNmzQtG9oaKBVq1aRv78/iUQicnBwoJCQEK1fe/vhhx+of//+ZGdnR2KxmAYNGkT79+8nIqJ3332XRCKRZqwHl/K537hx48jBwYFqampabBMSEkJSqbTVNobQkfdLQ0MDJSUlkZ+fHwmFQlIqlRQaGkrnzp3TtLl16xY99dRTJJFIyMvLi9555x2aPXs2ASBfX18qLCykX3/9lXr37k1SqZRGjRpF169fp+joaBIKheTu7k42NjZkZ2dH48ePp4KCAr37/vrrr0mhUNDSpUvbvZ/a+36OiYkhoVBIKpVKsy0jI0PzHnVycqLp06c3+9jZs2drLa3U1v5ev349yWQyAkB+fn5UUFBAmzZtIjs7OwJAvXv3pj/++INqamooLi6OPD09ycbGhpydnSksLIzy8vKI6N4vZgGghISEFp9Xbm6u1mfswdv9y+gdOXKEHn/8cRKLxeTm5kazZ8+m6upqzf26jNecB5dfIiL6+9//Tg4ODmRjY0NKpZLGjRvX4pJR48aNI3d3d61fe9QFL6nX9TjXDaO9edYdM78jn0dLzX0iouDgYPLy8iJbW1sSi8Xk4+NDUVFRlJubq2ljTpne0uvLRfUDXFxcaNKkSVrbmgtfXdaA3LVrFy1cuJBu375Nt27dohEjRlCPHj00fTS3Lmaj9qzl+OA6v13JVN4vjaKjo8nR0dHY02iive/n/Px8srGx6fAansZQX19Po0ePpi1btljkeEREN2/eJIlEQitXrmz3Y7moNh7O9c5lrL/PzTHVzO/I57G75745ZTqvU92JdF0DMjw8HAsWLIBSqYSjoyOCg4Nx69Ytna5Ibs9ajg+u89vdtedCD1Pl6+uLxYsXY/HixWZx9X99fT0yMzNx9+5dREVFWdx4jRYuXIhHH30UMTExXTYm6xqc6+bLEjIf6N65bymZzkV1B3R0DcjGc/p0CQBd13Jsbp1fZhnmzJmDiIgIREVFtfvila52+PBh7NmzB1lZWTqvs2pO4wHA6tWrcerUKXz99ddddn4u6zqc68wUdNfct5RM56K6A3RdA/Krr77Ck08+CWdnZ4jFYrz//vs6j6HLWo4trfPbXc2dOxepqakoKyuDl5cXdu/ebewp6W3ZsmWIiYnBhx9+aOyptGrs2LHYvn27Zo1pSxtv7969qKmpweHDh6FUKrtkTNa1ONfNjyVmPtA9c99SMp2L6g7QZQ3IwsJChIaGwtXVFSdOnEBZWRlWrFjRofGaW8uxtXV+u6vExETU1NSAiHDx4kWDLpvVlYKCgrB8+XJjT6NbCwkJwZw5c5r96XRmGTjXzY+lZj7AuW9ohsp0Lqo7QJc1IHNzc6FWqzFt2jR4e3tDIpFAIBC02q8uazmSDuv8MsYYax/OdcaYvrio7gBd1oD09PQEABw8eBDV1dXIz89vck7eg+tiikSiNtdy1HWdX8YYY7rjXGeM6YuL6v/v8uXLGDJkCIqLi7F9+3YMHToUe/bswerVqzFq1CgAwKxZsxAWFgYAWLBgARITE7F48WI4OTlhzJgx6NOnDw4fPgy5XI7BgwcjLi4O69evh5ubG+bNm4cnn3wSADBq1ChcuXIFU6dORc+ePTFgwAA8++yzUKlUGDlyJN544w24u7tDoVAgIiICffr0wc8//4xBgwaBiIy1ixhjzKxwrjPGupKAHvg079y5E5GRkUb/kAsEAqSnp2PChAlGnQdrnam8X0wdv59ZREQEAGDXrl1m2b8uOA+6B86ztpnC55EZTkuvLx+pZowxxhhjTE9cVDPGGGOMMaYnLqoZY4wxxhjTExfVjDHGGGOM6YmLasYYY4wxxvTERTVjjDHGGGN64qKaMcYYY4wxPXFRzRhjjDHGmJ5sWrpj586dXTmPZh0/ftzYU2BtaHyNTOH9Yur4/dy9FRUVwcPDw+BjGPOzyHnQfXCeta6oqAgAfxYsVYt5Tg9IT08nAHzjG9/4xrdOvoWHhz8YuZ0mPDzc6M+Pb3zjG9+6y625PG/yM+WMmauePXti4cKFmDZtmrGnwhhjrA0zZ87ETz/9hJ9//tnYU2GsU/A51cxiKJVK3L5929jTYIwxpgO1Wg2hUGjsaTDWabioZhZDqVTizp07xp4GY4wxHXBRzSwNF9XMYjg6OnJRzRhjZoKLamZpuKhmFoOPVDPGmPngoppZGi6qmcXgopoxxsyHWq2GjU2LK/syZna4qGYWgy9UZIwx81FXV8dHqplF4aKaWQw+Us0YY+aDT/9gloaLamYxuKhmjDHzwUU1szRcVDOL4ejoiMrKStTU1Bh7KowxxtrARTWzNFxUM4uhVCoBAKWlpUaeCWOMsbZwUc0sDRfVzGI0FtV8CghjjJk+LqqZpeGimlkMLqoZY8x8cFHNLA0X1cxiODo6AuCimjHGzAEX1czScFHNLIZMJoNYLOa1qhljzAxwUc0sDRfVzKI4ODjwkWrGGDMD/IuKzNJwUc0siqOjIxfVjDFmBvgXFZml4aKaWRT+ARjGGDMPfPoHszRcVDOLwkU1Y4yZBy6qmaXhoppZFKVSyRcqMsaYGeCimlkaLqqZReEj1YwxZh64qGaWhotqZlH4QkXGGDMPXFQzS8NFNbMofKSaMcbMAxfVzNJwUc0sCp9TzRhj5oGX1GOWhotqZlGUSiWqq6tRXV1t7KkwxhhrQX19PRoaGrioZhaFi2pmUZRKJQDwKSCMMWbC1Go1APAvKjKLwkU1syiOjo4AuKhmjDFT1lhU85FqZkm4qGYWpfFINZ9XzRhjpquurg5JoRs1AAAgAElEQVQAF9XMsnBRzSwKn/7BGGOmj49UM0vERTWzKBKJBFKplItqxhgzYVxUM0vERTWzOLxWNWOMmTYuqpkl4qKaWRwuqhljzLRxUc0sERfVzOLwD8Awxphp46KaWSIuqpnF4SPVjDFm2rioZpaIV11nZq2qqgrFxcW4c+eO5nbr1i1cvnwZc+fOxZ07d3D79m3cvHkTL7zwAt5++21jT5kxxrqVqqoqLFq0SPNvqVSK27dvQyAQIDU1FV5eXpr7FAoFoqKiIBAIjDFVxvQiICIy9iQY66i9e/di/PjxWttsbGxgbW0NAGhoaNAcEdm/fz/+8Y9/dPkcGWOsuxs6dChOnTrV5Mg0EaGxDKmrq8Po0aNx5MgRY0yRMb3x6R/MrD333HPw8PDQ2lZXV4eamhrU1NRoCmqRSIQnnnjCGFNkjLFuLzIyEtbW1ppsbrzV1tZCrVZDrVZDIBBg8uTJxp4qYx3GRTUza9bW1nj33Xc1R6abIxAIMGrUKEil0i6cGWOMsUYRERGaX1FsiUgkQnh4eBfNiLHOx0U1M3tvvPFGqxe72NjY4Nlnn+3CGTHGGLufl5cXBg0a1OK50kKhEGFhYVAoFF08M8Y6DxfVzOw5ODjglVdeabGwVqvVfC41Y4wZWVRUFGxsml8fQa1W47XXXuviGTHWufhCRWYR8vLyMHjwYDT3dnZyckJJSQlfTc4YY0aUn5+Pvn37Nntfz549cfXq1VZP5WPM1PGRamYRBg4ciJEjRzYJZKFQiOeee44LasYYMzI/Pz8MGDCgyXahUIg33niDC2pm9rioZhbjvffeQ319vda2+vp6PvWDMcZMRFRUVJNT9dRqNV555RUjzYixzsOnfzCLUV9fjz59+qCoqEizTSAQoLi4GM7OzkacGWOMMQA4d+4c/P39Nf8WCAQYOnQoTp48acRZMdY5+Eg1sxjW1taYPn261oUwjzzyCBfUjDFmIvr16wc/Pz/Nv62srPDGG28YcUaMdR4uqplFefPNNzXn5YlEIjz33HNGnhFjjLH7vfTSS5pTQKysrDBhwgQjz4ixzsFFNbMoSqUSL7/8MqytrVFbW4ugoCBjT4kxxth9wsLCoFarYWVlhZCQECiVSmNPibFOwedUM4vz+++/4+GHH4ZEIkFZWVmrPwzDGGOs6/n4+ODChQv46quv+Me5mMUwWlG9c+dOREZGGmNoxhgzmPT0dIv5OptzmjFmbox5rLj5nzbqQunp6UYdPzIyErGxsQgICDDqPEzZmjVrANxbss5c/PzzzygvL++y0z+OHz+O5ORko7+fmXFZagFq7Pc153TbzC2nL126hKNHj2LixIldNibntGVrfH2NyehFtbGP6ERGRiIgIMDo8zBlu3btAmD816o9XnjhBdy8eROurq5dNmZycrJZ7SPW+Sy1qDb2+5pzum3mmNMvv/wy3N3du3RMzmnLZuyimi9UZBbJxsamSwtqxhhj7dPVBTVjhsZFNWOMMcYYY3riopoxxhhjjDE9cVHNGGOMMcaYnrioZowxxhhjTE9cVBvAypUr0bNnTwgEAmzcuNHY02GMsW7F3DK4oaEBa9asQWBgoLGnwhjTAxfVBjBr1iwcO3bM2NNgjLFuyZwyOD8/H0888QRmzJgBlUpl7OkwxvTARbWJqKqq4qMUjDFmJMbI4N9++w0ffPABpk6dikcffbRLx2aMdT4uqk3Eli1bUFJSYuxpMMZYt2SMDH7kkUewZ88evPzyyxCLxV06NmOs83FR3YWOHDmCxx9/HDKZDHZ2dhg8eDDKy8sRGxuLmTNnoqCgAAKBAL6+vkhOToZcLoeVlRWGDh0KFxcXCIVCyOVyDBkyBKNHj0avXr0gkUjg4OCA999/39hPjzHGTBpnMGPMkLio7iKVlZUIDg5GeHg4bt++jfz8fPTt2xe1tbVITk7G888/Dx8fHxARzp8/j9jYWMyePRtEhA0bNuDixYu4fv06nnjiCWRnZ2POnDnIzs7G7du3MWnSJCQlJeG3334z9tNkjDGTxBnMGDM0Lqq7yKVLl1BeXo6BAwdCIpHAxcUFe/bsgZOTU5uPHTBgAGQyGXr06IEXX3wRAODp6QknJyfIZDJMnDgRAHD27FmDPgfGGDNXnMGMMUPjorqLeHt7o2fPnpg4cSIWLlyIS5cudagfkUgEAKirq9NsEwqFAAC1Wq33PA3l66+/hr29Pb788ktjT8UkHTx4EHPmzMGePXvg7e0NgUAAgUCAV155pUnboKAgKBQKWFtbY+DAgfj111+NMOPWLV68GAMGDICdnR3EYjF8fX3x/vvvo6KiQqvd0aNHMXLkSMhkMri5uSEuLg41NTV6j19dXQ1/f3/Mnz9fs02tViMhIQHe3t4QiURwd3fHrFmzUFVVBQD44osvsGLFCtTX1+s9PjM93T2DdcE53TpLy+kVK1bA398fUqkUcrkc/v7+iI+PR3l5ud59d9cM5qK6i0ilUhw6dAijRo3CsmXL4O3tjaioKM2bydIRkbGnYLIWLFiAtWvXYu7cuQgLC8OFCxfg4+ODHj16YNu2bfjqq6+02h84cAC7du3C888/j7y8PAwZMsRIM2/ZoUOHMH36dFy6dAk3b95EYmIikpOTERERoWmTl5eHoKAgjB07Fjdu3EBGRgY++eQTTJ06Ve/x582bh3Pnzmlti42NRVJSEhITE3Hr1i1s374dmzdvxhtvvAEACA4OhkQiwdixY1FaWqr3HJhp6e4ZrAvO6ZZZYk7/+OOPmDJlCgoLC1FcXIwlS5ZgxYoVCA8P17vv7prBXFR3oYEDB+LLL7/E1atXERcXh/T0dKxcudLY0+oS48aNQ1lZGZ5//nmjjG+qSxYuX74caWlp2LlzJxQKhdZ9a9euhZWVFaKjo1FWVmakGXaMra0toqOj4ejoCIVCgQkTJiA0NBT79+/HlStXAABLliyBq6srFi1aBLlcjoCAAMTFxeH//u//9Poa/dixY/j999+1tl24cAEbN27Eq6++iqioKCgUCjz55JOIiYnBZ599hjNnzgAA3n33XTzyyCN49tlntY5EMsvQnTNYF5zTzbPUnBaJRHj77bfh7OwMW1tbREREYPz48fj2229x7dq1DvfbnTOYi+oucvXqVZw+fRoA4OzsjA8//BBDhgzRbGOGZYpLFp4/fx7x8fFYtGgRJBJJk/sDAwMRGxuLP//8E7NmzTLCDDtu3759sLa21trWeO6qSqVCXV0dvvrqK4wZMwYCgUDT5plnngERYe/evR0at6qqCrNnz0ZycrLW9pMnT6KhoQF/+ctftLY//fTTAIBvvvlGs23hwoU4depUkz6YeeMMNn2c010rIyOjyXNyd3cHgCan6umqu2cwF9Vd5OrVq3jrrbdw9uxZ1NbWIjs7G5cvX8aIESMAAI6Ojrh69SouXbqEu3fvmv25efc7evQoPD09IRAI8K9//QsAkJKSArlcDplMhr179+KZZ56BnZ0dPDw8sGPHDgD3jgBIJBL07NkTb731Ftzc3CCRSBAYGIgTJ04AAGJiYiASieDq6qoZ7+2334ZcLodAIMDNmzebXS4LAPbv3w87OzssW7asi/cINM+PiBAcHNxim6VLl6Jv3774+OOPcfDgwRbbERFWr16N/v37QywWQ6lUYvz48ZojvrrsbwCor69HQkICPD09IZVK8fDDDyM9Pb1Tnu+ff/4JqVQKLy8vXLhwARUVFfD09NRq4+PjAwDIycnp0Bjz5s3THHm5n5XVvaiTSqVa2/38/ABAc5QEAJRKJcaMGYPk5GT+OtyCdOcM1gXndPO6W07n5+fDwcEBvXv37tDju30Gk5Gkp6eTEYfXAEDp6emd2ueqVavIxcWFAJBcLqcXXniBLl26RIGBgaRUKsna2poeeughmjdvHtXV1RER0a+//kq9e/cmqVRKo0aNojlz5pBMJiMA1KdPH/rxxx9p+fLlZG9vTwDIxcWFtm/fTmlpaZqxlEol7dixo1OfCxFReHg4hYeH69XHlStXCACtW7dOs23evHkEgL777jsqKyujkpISGj16NMnlcqqtrSUioujoaJLL5XT69Gmqrq6mvLw8Gj58OCkUCiosLCQiopdffplcXFy0xktKSiIAdOPGDSIiCgsLIx8fH602+/btI4VCQYsXL9bruRF17P3s7e1NAwYMaPY+Hx8funjxIhERHTt2jKysrKhPnz5UUVFBRERZWVkUEhKiaZ+QkEAikYi2bt1KpaWllJOTQ0OGDCEnJye6fv06Eem2v2fNmkVisZh2795Nd+7coblz55KVlRWdPHmyvbtES2VlJSkUCoqJiSEioiNHjhAASkpKatJWKpXS2LFj2z3G0aNHKTg4mIiIbty4QQBo3rx5RESUk5NDACg+Pl7rMXV1dQSAQkNDtbbPmTOHAFB2dna75mCIPDEmc81pc8ng48eP08iRI8nNzY0AEABydXWlwMBAOnLkSLv2Eed02zinm1dbW0tFRUW0bt06EovFtHXr1g71Y+wMNoW84qLawv4IGoKhw7qqqkqzbf369QSAzp8/T0T3wtre3l6rr5MnTxIAWrRoERF1PKw7U3vfzxUVFSQQCOj5559v9v77w5qIaObMmQSApk+fTkTaYa1SqcjW1paioqK0+vjPf/5DADR/jNra31VVVSSTybT6UalUJBaLadq0aTo/t+bMmzeP+vbtS+Xl5UREdODAAQJAq1evbtLWzs6OAgMD29W/SqWiYcOGUVFRERE1DXQioqeffpocHR3pu+++o6qqKrp27Rrt3LmTBAIBPffcc1r9ffLJJwSA/v3vf7drHpaWJ5zT5oNzum2c081r/E9hjx496J///KemeG8PU8hgU8grPv2DmZTG5apa++p12LBhkMlkZr0mbElJCYgIMplMp/ZLly5Fv379sH79ehw9elTrvry8PFRUVGDYsGFa24cPHw6RSKT5CrY59+/vc+fOQaVSYdCgQZr7pVIpXF1d9drXGRkZ2LlzJ7755hvNRT6N5/E1dyFKbW1tk68I2zJ37ly8+eabmvMBm5OWloaIiAi8+uqrcHR0xMiRI/H555+DiNCjRw+tto2vS3FxcbvmwVh3wDndPHPN6StXrqCkpASfffYZPv30Uzz22GPtPredM/geLqqZWRKLxbhx44axp9Fh1dXVAO49D11IJBKkpqZCIBDg9ddf11oGrHHpIVtb2yaPc3BwwN27d3Uao7KyEgAwf/58zfqrAoEAly9fhkql0qmPB6WlpWH58uU4fPgw+vTpo9neeG7lg+uhqlQqVFdXw83NTecxjh49itzcXM2yTC2xt7fHxo0bUVRUBJVKhYKCAqxatQoA8NBDD2m1bSzqG18nxnR19uxZrc9PS7eoqChjT9XgOKfNI6eFQiGcnZ0RFBSEtLQ05OXlITExUefHcwb/DxfVzOyo1WqUlpbCw8PD2FPpsMbAaM8i9wEBAZgxYwby8/OxZMkSzXYHBwcAaDaU27OfGi8sWbNmDejeqWGa2/Hjx3WeZ6N169Zh27ZtOHToUJPA9PLygkKhwOXLl7W2nz9/HgDw8MMP6zzOli1b8N1338HKykrzB6bxuSxbtgwCgQC//PJLs489efIkAOCpp57S2l5bWwug6UU1jLXF39+/yeenuVtaWpqxp2pQnNPmkdMP8vX1hbW1NfLy8nR+DGfw/3BRzczO4cOHQUSaq/ZtbGzM7kr9nj17QiAQtHtd0yVLlsDf3x/Z2dmabYMGDYKtrW2T0Dpx4gRqa2sxdOhQnfru1asXJBIJTp061a45PYiIEBcXh9zcXGRmZjZ7ZMbGxgbPPvssfvjhBzQ0NGi2Z2VlQSAQtHql/YNSU1Ob/HFpPDo2b948EFGTr1wbbd68GV5eXhgzZozW9sbXxcXFRed5MMb+h3PatHP61q1beOmll5psz8/PR319PXr16qVzX5zB/8NFNTN5DQ0NuHPnDurq6pCTk4PY2Fh4enpi8uTJAO79z/r27dvIzMyEWq3GjRs3mhwBbW65rKysLKMt1SSTyeDt7Y2ioqJ2Pa7x68X714CWSCSYOXMmMjIysG3bNpSXlyM3NxdTp06Fm5sboqOjde77tddew44dO5CSkoLy8nLU19ejqKhI80MAUVFRcHFxafUnd0+fPo2PPvoImzdvhlAobPK1d+OPbcTHx6O4uBgLFixAZWUljh8/jqSkJEyePBn9+vXTeTxdPf7447h8+TLq6upw6dIlzJo1CwcPHsSWLVs05yw2anxdBg8erPe4jHUHnNP/Yw45LZfLceDAARw6dAjl5eVQq9XIzs7GpEmTIJfLMWPGDJ370lW3yGBDXwnZElO4SpOIryrXhb5Xla9bt45cXV0JAMlkMgoODqb169drlqvy8/OjgoIC2rRpE9nZ2REA6t27N/3xxx8UHR1NQqGQ3N3dycbGhuzs7Gj8+PFUUFCg6f/WrVv01FNPkUQiIS8vL3rnnXdo9uzZBIB8fX2psLCwyXJZ169fp6+//poUCgUtXbpU733UkfdzTEwMCYVCUqlUmm0ZGRnk4+NDAMjJyUlzFfmDZs+erbVUU0NDAyUlJZGfnx8JhUJSKpUUGhpK586dIyLSeX/X1NRQXFwceXp6ko2NDTk7O1NYWBjl5eUREVFoaCgBoISEhBafV25urmZ5sOZu9y+jd+TIEXr88cdJLBaTm5sbzZ49m6qrqzX36zJec5q78vzvf/87OTg4kI2NDSmVSho3blyLS1CNGzeO3N3dqaGhoV3jWlqecE6bD87ptnFOawsODiYvLy+ytbUlsVhMPj4+FBUVRbm5uZo25pTBppBXXFRzWLepM5Zq6qjo6GhydHQ0ytjt0ZH3c35+PtnY2HR4TVBjqK+vp9GjR9OWLVsscjwiops3b5JEIqGVK1e2+7GWliec0+aDc7ptnNPG7UtXHc1gU8grPv2Dmbz2XCRiTnx9fbF48WIsXry4wz8J25Xq6+uRmZmJu3fvdsnKBV09XqOFCxfi0UcfRUxMTJeNyZi545w2DZ2Zm5zB7Wdj7AmYgs64YtaSFRUVmfUV3KZszpw5qKioQFRUFLZv3w57e3tjT6lFhw8fxp49e5CVlaXzuq3mNB4ArF69GqdOncLXX38NoVDYJWMy3XBOt45z2nC6a05zBneAsQ6Rm8JheiJq9dxPvv3vZoyvFefMmUMikYiAez8TvGvXri6fg670fT9/8803FBcX14kzYu2VmZlJiYmJmp+t7ghY2GkKnNPmdeOcbh3ntGnTN4NNIa/4SDWA9PR0TJgwwdjTMFkRERFGGTcxMbFdC9Cbs6CgIAQFBRl7Gt1aSEgIQkJCjD0N1gLO6dZxThse57RhWUIG8znVjDHGGGOM6YmLasYYY4wxxvTERTVjjDHGGGN64qKaMcYYY4wxPXFRzRhjjDHGmJ64qGaMMcYYY0xPZlNUR0VFQSAQ6HTbt2+fQeeyZ88eeHt7a8ZzdXXFxIkTW33Mb7/9hqioKHh5eUEsFsPJyQmPPPIIli5d2u7n99prr2mNHx8f3+rYq1evhkAggJWVFfz9/fHDDz902r5gjLFGnNOc04x1Z2ZTVAPAgQMHUFpaCrVajWvXrgEAgoODUVtbi8rKSpSUlGDKlCkGn0dYWBguXLgAHx8f2Nvb4/r169i2bVuL7XNzcxEYGAhXV1d8//33KCsrw7Fjx/D000/j8OHDmna6Pr/7xweAjz/+GGq1utmx6+vrsXbtWgDAX//6V5w9exZPPPFEJ+0JxhjTxjnNOc1Yd2U2RbVAIMDIkSNhb28PGxsbre1CoRAymQzOzs4YOnSoEWfZvJUrV8LBwQHJycno06cPJBIJ+vbtiyVLlkAqlQLo+PMbOnQorl+/jszMzGbH3rNnD9zd3Q335Bhj7P/jnOacZqw7M5uieseOHTr99nx0dDSee+65LpiR7m7duoWysjLcvn1ba7tIJMKXX34JoOPPb9q0aQCADRs2NNt+9erVmDlzZkenzhhjOuOcvodzmrHuyWyKanM2fPhwVFZW4q9//St++umnTu37r3/9K/r374/vv/8e586d07rvp59+gkql4p9VZYyxNnBOM8b0xUV1F3j//fcxbNgw/Pbbbxg1ahQGDhyIjz76qMkRkY566623AAAbN27U2r5q1SrMmDGjU8ZgjDFLxjnNGNOXTdtNmL6kUimOHTuGDRs2YMOGDTh9+jTi4uKwatUq7Ny5E2PGjNGr/0mTJmHu3Ln49NNPkZiYCKlUigsXLuDkyZNIS0tDbW2t3s/h559/RkREhN79WKqioiIA4H3EmJninLZ8nNOWrfH1NSY+Ut1FhEIhYmJicObMGfz8888YP348SkpKEBERgTt37ujVt729PV566SXcuXMHaWlpAIA1a9Zg2rRpEIlEnTF9xhizeJzTjDF98JFqI/jLX/6Czz//HNOmTcOGDRvw/fff44UXXtCrz2nTpmHz5s3YuHEjQkNDsWvXLpw5c6aTZgyMGDECu3bt6rT+LM3OnTsRGRnJ+6ibEwgExp4C6ySc05aHc9qyNb6+xsRHqg3khx9+wJo1awDcWy+1rq6uSZtXXnkFAKBSqfQe79FHH8WIESPwn//8B9HR0YiIiIBSqdS7X8YYs1Sc04yxzsRFtYH897//hVwuBwDU1NTg9OnTTdo0XgX+8MMPd8qYjcs27d69G++9916n9MkYY5aKc5ox1pm4qO5karUaxcXFOHz4sCasASA0NBQ7d+5EaWkpysrKsHfvXnzwwQcICQnptLCeMGECnJycEBoaCm9v707pkzHGLA3nNGPMEMyuqL579y7GjBmDgQMHAgC+/PJL+Pn5ITExscvm8Pnnn8PX1xcFBQUoKyuDQCDQ3EQiEVxdXfHFF19ofiTg3XffxfDhwzF37ly4urqiZ8+eiIuLw9SpU5Gent7u53f/+MOHD8c777wDABCLxXj99de1fkQgPj4efn5+AIDvv/8eAwcOxNGjRw26fxhj3RvnNOc0Y92RgIjIGAM3nlBupOE1BAIB0tPTMWHCBKPOw5Q1Lj/EF3e0zFTez8y4LC1PTOV9bWn71RA4p9tmKu9nZhim8Pqa3ZFqxhhjjDHGTA0X1YwxxhhjjOmJi2rGGGOMMcb0xEU1Y4wxxhhjeuKimjHGGGOMMT1xUc0YY4wxxpieuKhmjDHGGGNMT1xUM8YYY4wxpicbY0/AFKxZs4YXzG/Fzz//jBEjRhh7Gt3ewYMH8d1332HYsGGYPXs2Ll68CACYOHEitm7dqtU2KCgIx48fh0qlgr+/P7Zu3YohQ4YYY9otWrx4MdLS0lBUVISamhr06tULL7zwAhISEmBrawsAWLp0KeLj45s8duDAgfj99981/1ar1UhKSsInn3yCwsJCyGQyeHh4YN++fcjJycGZM2cwa9YsWFtbd9nzY52Lc7p1nNPGwbn8P5zLfKSaMbOwYMECrF27FnPnzkVYWBguXLgAHx8f9OjRA9u2bcNXX32l1f7AgQPYtWsXnn/+eeTl5ZlccAPAoUOHMH36dFy6dAk3b95EYmIikpOTNb8M1x6RkZH497//je3bt0OlUuHMmTPw8fFBRUUFgoODIZFIMHbsWJSWlhrgmTDGuiPO5dZ1y1wmI0lPTycjDq8BgNLT0409DZMWHh5O4eHhRhlbpVJRQECAyfdtyPfzhx9+SH379qWqqiqt7T4+PrR9+3aysrIid3d3Ki0t1bo/KyuLQkJCDDKnzjBu3Diqq6vT2jZhwgQCQIWFhUREtGTJEtq6dWur/ezYsYMEAgHl5OS02i4mJoYCAgJIrVbrN/FWWFqecE6bD87ptnXm+5lz2fRy2RTyio9UM5O2ZcsWlJSUmF3fneX8+fOIj4/HokWLIJFImtwfGBiI2NhY/Pnnn5g1a5YRZthx+/bta/K1n5OTEwBApVLp3M+GDRswZMgQDB48uNV2CxcuxKlTp5CcnNz+yTLGWtTdcppzuW3dNZe5qGYGQURYvXo1+vfvD7FYDKVSifHjx+Ps2bMAgJiYGIhEIri6umoe8/bbb0Mul0MgEODmzZuIjY3FzJkzUVBQAIFAAF9fX6xduxYSiQQ9e/bEW2+9BTc3N0gkEgQGBuLEiRN69Q0A+/fvh52dHZYtW9aFe6tla9euBREhODi4xTZLly5F37598fHHH+PgwYMttmvrNUlJSYFcLodMJsPevXvxzDPPwM7ODh4eHtixY4emn/r6eiQkJMDT0xNSqRQPP/ww0tPTO+X5/vnnn5BKpfDy8tKpfW1tLX7++Wc8+uijbbZVKpUYM2YMkpOTQUT6TpUxs8c53TGcy63r1rlsrEPkpnCYnoi/VtRFR75WTEhIIJFIRFu3bqXS0lLKycmhIUOGkJOTE12/fp2IiF5++WVycXHRelxSUhIBoBs3bhARUVhYGPn4+Gi1iY6OJrlcTqdPn6bq6mrKy8uj4cOHk0Kh0Hw91dG+9+3bRwqFghYvXtyu52uo97O3tzcNGDCg2ft8fHzo4sWLRER07NgxsrKyoj59+lBFRQURNf2aUZfXZN68eQSAvvvuOyorK6OSkhIaPXo0yeVyqq2tJSKiWbNmkVgspt27d9OdO3do7ty5ZGVlRSdPntTruVZWVpJCoaCYmBjNtiVLlpCHhwc5ODiQUCikPn36UEhICP3nP/8hIqKLFy8SAHr00UfpySefJFdXVxKLxeTv70//+te/qKGhQWuMOXPmEADKzs7Wa64tsbQ84Zw2H5zTbeus9zPnsmnmsinkFR+pZp2uqqoKq1evxgsvvICJEyfC3t4egwcPxsaNG3Hz5k1s2rRJ7zFsbGw0/7MfMGAAUlJScPfuXaSmpurV77hx41BeXt7slc1drbKyEhcvXoSPj0+bbQMCAvDee+/h0qVL+OCDD5rc397XJDAwEHZ2dnB2dkZUVBQqKytRWFiI6upqpKSkIDQ0FGFhYXBwcMD8+fMhFJ+0kyYAACAASURBVAr13veJiYlwc3PD0qVLNdsmTZqEL774AleuXEFFRQV27NiBwsJCjBkzBnl5eaioqAAAODs7Y9myZcjLy0NxcTHGjx+P6dOn47PPPtMaw8/PDwCQm5ur11wZM3ec0x3Ducy53Bouqlmna/xQDRs2TGv78OHDIRKJNF//daZhw4ZBJpNpvjKzBCUlJSAiyGQyndovXboU/fr1w/r163H06FGt+/R5TUQiEYB7yyOdO3cOKpUKgwYN0twvlUrh6uqq177PyMjAzp078c0330ChUGi29+rVC4899hhsbW0hEokwYsQIpKamoqqqCuvXr4dYLAZwbymnwMBAODo6wt7eHosWLYK9vX2TP0qN+7K4uLjDc2XMEnBOdwznMudya7io7oCamhq8++67cHV1hUwmw9/+9jf07NkTAoEAGzduNPj4K1asgL+/P6RSKeRyOfz9/REfH4/y8nJNm8WLF2PAgAGws7ODWCyGr68v3n//fc3/IA2pcXmcxjUt7+fg4IC7d+8aZFyxWIwbN24YpG9jqK6uBgBNQLVFIpEgNTUVAoEAr7/+OqqqqjT3ddZrUllZCQCYP38+BAKB5nb58uV2XcRyv7S0NCxfvhyHDx9Gnz592mw/ePBgWFtb448//oCbmxsA4ObNm1ptRCIRevfujYKCAq3tUqkUwP/2LbNcnNOt45zuGM7l5nEu38NFdQesWrUK+/fvx9mzZ5GcnIy33noLx44d67Lxf/zxR0yZMgWFhYUoLi7GkiVLsGLFCoSHh2vadOZak+3l4OAAAM0GQmlpKTw8PDp9TLVabbC+jaUxaOrr63V+TEBAAGbMmIH8/HwsWbJEs72zXhNnZ2cA936Ig4i0bsePH9d5no3WrVuHbdu24dChQ3jooYd0ekxDQwMaGhogFotha2sLPz8/nD59ukm7uro62Nvba22rra0F8L99yywX53TrOKc7hnO5eZzL93BR3QGZmZkYNmwYHBwc8Oabb2qFZGerqqpCYGCg1jaRSIS3334bzs7OsLW1RUREBMaPH49vv/0W165dA3Dvf77R0dFwdHSEQqHAhAkTEBoaiv379+PKlSsGmy8ADBo0CLa2tvjll1+0tp84cQK1tbUYOnQogHvn26nV6k4Z8/DhwyAizS+KdWbfxtJ4VK2srKxdj1uyZAn8/f2RnZ2t2abra9KWXr16QSKR4NSpU+2a04OICHFxccjNzUVmZmazR2oA4B//+EeTbSdPngQRISAgAMC9HxjIzs7GhQsXNG1UKhUuX77cZDmnxn3p4uKi1/yZ6eOcbh3ndMdwLnMut4aL6g4oKiqCUCjskrGaW6MzIyOjydqY7u7uAKD52rCz1prsCIlEgpkzZyIjIwPbtm1DeXk5cnNzMXXqVLi5uSE6OhoA4Ovri9u3byMzMxNqtRo3btzA5cuXtfpydHTE1atXcenSJdy9e1cTwA0NDbhz5w7q6uqQk5OD2NhYeHp6YvLkyXr1nZWVZTJL6slkMnh7e6OoqKhdj2v8uvH+11/X10SXvl977TXs2LEDKSkpKC8vR319PYqKijSFQlRUFFxcXPDrr7+22M/p06fx0UcfYfPmzRAKhVpfWQoEAqxcuRLAvaWc0tLSUFpaCrVajePHj+ONN96Ap6cnpk6dCgCYMWMGevfujcmTJ6OwsBC3bt1CXFwcqqqqmlwc1Lgv21o7lZk/zunWcU53DOcy53Krun7BkXtMYekTovYt1XTgwAHy8fEhAJqbXC4nIqL8/HwCQBs2bNC0b2hooFWrVpG/vz+JRCJycHCgkJAQOnPmjKbNDz/8QP379yc7OzsSi8U0aNAg2r9/PxERvfvuuyQSiTRjPbis0P3GjRtHDg4OVFNT02KbkJAQkkqlrbZpTkeWampoaKCkpCTy8/MjoVBISqWSQkND6dy5c5o2t27doqeeeookEgl5eXnRO++8Q7NnzyYA5OvrS4WFhfTrr79S7969SSqV0qhRo+j69esUHR1NQqGQ3N3dycbGhuzs7Gj8+PFUUFCgd99ff/01KRQKWrp0abuer6HezzExMSQUCkmlUmm2ZWRkaN6HTk5ONH369GYfO3v2bK2lm9p6TdavX08ymYwAkJ+fHxUUFNCmTZvIzs6OAFDv3r3pjz/+oJqaGoqLiyNPT0+ysbEhZ2dnCgsLo7y8PCIiCg0NJQCUkJDQ4vPKzc3V+hw9eEtKSiIiopkzZ5KPjw/J5XKysbEhDw8PmjJlCl29elWrvytXrtCLL75ISqWSxGIxPf7445SVldVk3HHjxpG7u3uTJZ06S3vyxBxwTt/DOc05fT/OZdPMZVPIKy6qO/BH0MXFhSZNmqS1rbmw1mX9yV27dtHChQvp9u3bdOvWLRoxYgT16NFD00dza3Q2qq2tpaKiIlq3bh2JxeJWfza0ubUmdWXMn79tTnR0NDk6Ohp7GloM9X7Oz88nGxubNn8S1pTU19fT6NGjacuWLcaeipabN2+SRCKhlStXGmwMLqoNg3O6bZzTbeus9zPncufpzFw2hbzi0z8MRNf1J8PDw7FgwQIolUo4OjoiODgYt27d0unq6F69esHDwwMLFy7ERx99hMjIyBbbNrfWpDlrz0Ui5szX1xeLFy/G4sWLu2RFAH3V19cjMzMTd+/eRVRUlLGno2XhwoV49NFHERMTY+ypMBPBOW1YlprTnMudx9JymYtqA+no+pON5wDqEkZXrlxBSUkJPvvsM3z66ad47LHHmpzXB7S81iQzD3PmzEFERASioqLafXFMVzt8+DD27NmDrKwsnddx7QqrV6/GqVOn8PXXX3fZebbM9HFOs47iXNafJeYyF9UGouv6k1999RWefPJJODs7QywW4/3339d5DKFQCGdnZwQFBSEtLQ15eXlITEzUatPetSZN3dy5c5GamoqysjJ4eXlh9+7dxp5Sl1i2bBliYmLw4YcfGnsqrRo7diy2b98OV1dXY09FY+/evaipqcHhw4ehVCqNPR1mQjinDaO75DTncsdZai5zUW0guqw/WVhYiNDQULi6uuLEiRMoKyvDihUrOjSer68vrK2tkZeXp9nWkbUmTV1iYiJqampARLh48aJBl8kyNUFBQVi+fLmxp2F2QkJCMGfOnCarLDDGOW0Y3SmnOZc7xlJzmYtqA9Fl/cnc3Fyo1WpMmzYN3t7ekEgkEAgErfZ769YtvPTSS0225+fno76+Hr169dJ5rUnGGOvOOKcZY52Ji2oD0WX9SU9PTwDAwYMHUV1djfz8/Cbn8D24RqdIJMKBAwdw6NAhlJeXQ61WIzs7G5MmTYJcLseMGTN0XmuSMca6M85pxlhn4qL6/7F353FV1fn/wF8XuAv7kigkAgIampYpNoqaljPW5BeRQGHScWk0tEzNJbc0c2E0GyVKcyzHb6nJ4oKlaVR+zfyKml/1p4M7ioAbaoIgyPr+/WHeCQFlvecur+fjwR+e87nnvO85577v23PPeZ86uHjxIjp37oxr165h/fr16NKlCzZt2oSlS5eiZ8+eAIApU6YgPDwcAPDee+8hJiYG8+bNQ7NmzdC7d2/4+vpi9+7dsLe3R8eOHTFt2jQsX74cnp6emDVrFvr06QMA6NmzJ7KysjB27Fg0b94c7du3x8svv4zCwkL06NEDo0aNQsuWLeHo6IhBgwbB19cX+/fvR4cOHSAiSm0iIiJFMU8TkVJUotAnOzExEZGRkYonFpVKhYSEBAwePFjROIzZoEGDAABJSUkKR2K8jOV4JmWZWz4xluPa3LZrU2CefjRjOZ6paRjD/uWZaiIiIiKiBmJRTURERETUQCyqiYiIiIgaiEU1EREREVEDsagmIiIiImogFtVERERERA3EopqIiIiIqIFYVBMRERERNRCLaiIiIiKiBrJROgCVSqV0CIiMjERkZKTSYRg9Y9hXxo7biMyRMRzXzNO1Ywz7ythxG1FTUewx5dnZ2di3b58SqyYCcO9xvocPH8bf//53pUMhMxIcHAwvLy+lw2gUzNPU2NLT0zFz5kx88skncHd3VzocMkODBw9WbN2KFdVESluxYgVmz56NmzdvKh0KEZFF2LdvH3r06IHs7Gy0bNlS6XCIGhWvqSaL5efnh19//RW5ublKh0JEZBFKS0sBAGq1WuFIiBofi2qyWP7+/gCA8+fPKxwJEZFlYFFN5oxFNVksX19fWFtbIz09XelQiIgsAotqMmcsqsliqdVqeHl58Uw1EZGBsKgmc8aimiyav78/i2oiIgNhUU3mjEU1WTQ/Pz9e/kFEZCClpaWwsrKClRXLDzI/PKrJovn5+fFMNRGRgZSWlvIsNZktFtVk0fz8/JCZmYmSkhKlQyEiMnssqsmcsagmi+bv74/y8nJkZmYqHQoRkdljUU3mjEU1WTQ/Pz8A7FVNRGQILKrJnLGoJovm5uYGV1dXFtVERAbAoprMGYtqsni8WZGIyDBKS0thY2OjdBhETYJFNVk8ttUjIjKMsrIynqkms8WimiweHwBDRGQYvPyDzBmLarJ4PFNNRGQYLKrJnLGoJovn5+eH/Px8XL9+XelQiIjMGotqMmcsqsni+fv7A2BbPSKipsaimswZi2qyeK1atYJGo+ElIERETYxFNZkzFtVk8aytreHt7c0z1URETYxFNZkzFtVEYK9qIiJDYFFN5oxFNRHuXVfNyz+IiJoWi2oyZyyqicAz1UREhsCimswZi2oi3CuqL126hLt37yodChGR2WJRTeaMRTUR7l3+ISLIyMhQOhQiIrPFoprMGYtqIvynVzWvqyYiajosqsmcsagmAuDg4AB3d3deV01E1IRKS0thY2OjdBhETYJFNdFv/P39WVQTETWhsrIynqkms8Wimug3fn5+vPyDiKgJ8fIPMmcsqol+wzPVRERNi0U1mTMW1US/ud+rWkSUDoWIyCyxqCZzxqKa6Dd+fn4oKirClStXlA6FiMgssagmc8aimug3fn5+AMBLQIiImgiLajJn7GtD9JuWLVvC1tYW//d//wfgXnGdnp6O8+fPY+rUqXjqqacUjpCIyHSkpaXpn1JrZWUFZ2dnFBYWIj8/Hzk5OfriWq1Ww8HBQclQiRqFSngBKVmo1NRUHDp0COfPn8fZs2dx+vRpZGRkoKysDMC9LwErKyuUl5fjxo0bcHNzUzhiIiLTMXHiRHz00Ue1Gnvw4EF07dq1iSMialosqslirVq1CtHR0VCr1SgtLa1xXKtWrZCZmWnAyIiITN/PP/+M55577pHjAgICcPbsWQNERNS0eE01WayRI0eiVatWKC8vr3GMtbU1evToYcCoiIjMQ48ePeDu7v7QMWq1GqNHjzZQRERNi0U1WSy1Wo333nvvoWOsra35kyQRUT1YWVlh8ODB0Gg0NY4pKyvDq6++asCoiJoOi2qyaCNGjICPjw+srKr/KJSUlLCoJiKqp4iICJSUlFQ7z9raGi+88AK8vLwMHBVR02BRTRbN2toac+fOrfGBLyqVCp06dTJwVERE5uG5557DY489Vu08EcHf/vY3A0dE1HRYVJPFGzJkCPz8/Ko9Wx0QEABHR0cFoiIiMn1WVlYYNGhQtZeA6HQ6hIaGKhAVUdNgUU0Wz9raGvPmzatyttrGxgbBwcEKRUVEZB7Cw8OrXAKiVqvx6quvws7OTqGoiBofi2oiAFFRUXjiiSeqnK3m9dRERA3z/PPPw8XFpdK00tJSjBgxQpmAiJoIi2oi3PuJ8sGz1WVlZSyqiYgayNraGuHh4ZUeT+7t7c1fAsnssKgm+k1ERATatWsHa2trAPe+CPhociKihouIiNA/ZEutVmPUqFFQqVQKR0XUuFhUE/1GpVJh4cKF+ofBtGvXDjqdTuGoiIhMX9++ffU3fZeVleGvf/2rwhERNT4W1US/Exoaqm+hxycpEhE1DrVajVdeeQUA0LNnT/j6+iobEFETsFE6gKYyaNAgpUMgE2Vvbw8AOHToEI8jMphJkyahe/fuBlvf0qVLkZqaarD1EV25cgUAUFRUxNxKBpOUlGSwdZntmeqNGzciOztb0Rj279+P/fv3KxqDuTDk/vT09ISbmxvc3NwMsr7GwuPNdG3cuBFZWVkGXWdqaqrix0t2djY2btyoaAyWzNDbv0WLFrC1tTW5JygaQz1BdadEflFJTY+SM3EqlQoJCQkYPHiwYjHc/5+4If+XZK4MvT93796Nnj17wsbGdH7M4fFmupTIV8ZwvCQmJiIyMrLGJ5pS01Ji+6ekpKBfv34GW19jMIZ6gupOiePbdCoGIgPq06eP0iEQEZkdUyuoierCbC//ICIiIiIyFBbVREREREQNxKKaiIiIiKiBWFQTERERETUQi2oTMWrUKDg6OkKlUuHo0aNKh0NEZBQsOTdWVFRg2bJlCA4OVjoUIgKLapPx+eef47PPPlM6DCIio2KpufHs2bN47rnnMGnSJBQWFiodDhGBRTUZQFFREc+kEBE9oL658f/9v/+H6dOnY+zYsejUqVMTREZE9cGi2oSoVCqlQ6iX1atXIycnR+kwiMhMWVpufPrpp7Fp0yYMGTIEWq22CSIjovpgUW2kRARLlizBE088Aa1WC2dnZ0ydOlU//4MPPoCdnR0cHR2Rk5ODyZMno2XLljh9+jREBEuXLkW7du2g1Wrh6uqKgQMH4tSpUwCAuLg46HQ6NG/eHGPGjIGnpyd0Oh2Cg4Nx4MCBSjE8bDnjx4+HRqOBh4eH/jVvvvkm7O3toVKpcOPGDUycOBGTJ09Geno6VCoVAgICDLQFicgcMTcSkbFiUW2kZs+ejWnTpiE6OhrXrl3D1atXMX36dP38d955B5MmTUJBQQFiYmLQunVrdOvWDSKCuXPnYsaMGZg1axZycnKwZ88eZGVloVevXrh27RrGjx+PESNGoLCwEBMmTEBGRgYOHz6MsrIy/OlPf0JWVhYAPHI5cXFxVR7bunz5crz//vv6f8fGxiIkJAT+/v4QEZw7d84wG5CIzBJzIxEZKxbVRqioqAjLli3DH//4R0yaNAkuLi6wtbWFm5tbteMXLVqEcePGYdOmTfDx8cHSpUvxyiuvYOjQoXB2dkbHjh2xcuVK3LhxA6tWrdK/zsbGRn+mpX379lixYgXy8/OxZs0aFBUV1Xo5RESGwNxIRMaMRbUROnfuHAoLC9G3b986vzYtLQ0FBQUICgqqNL1r167QaDSVfsJ8UFBQEOzs7HDq1KkGLYeIqCkwNxKRMWNRbYSys7MBAO7u7nV+bW5uLgDAwcGhyjwXFxfk5+c/9PVarRbXr19v8HKM0bfffgtnZ2d88803SodilH744QfMmDEDmzZtgp+fH1QqFVQqFf76179WGduvXz84OjrC2toaTz75JA4fPqxAxA83b948tG/fHk5OTtBqtQgICMA777yDgoIC/ZgFCxbo3+fv/zp06FBpWaWlpYiJiUFAQAA0Gg1cXFzQoUMHZGRk4Ouvv8bixYtRXl5u6LdocZgbjRNza82YVy0rr7KoNkI6nQ4AUFxcXOfXuri4AEC1iT03NxdeXl41vra0tFQ/piHLMVYionQIRuu9995DXFwcZs6cifDwcJw/fx7+/v547LHHsG7dOmzfvr3S+JSUFCQlJSEkJARpaWno3LmzQpHXbNeuXRg3bhwyMjJw48YNxMTEIDY2FoMGDarzsiIjI/Hll19i/fr1KCwsxMmTJ+Hv74+CggIMGDAAOp0Offv21Rdc1DSYG40Tc2v1mFcfzhzzKotqI9ShQwdYWVnhp59+qtdrHRwccOjQoUrTDxw4gJKSEnTp0qXG1+7evRsigm7dutV6OTY2NigtLa1znEro378/8vLyEBISosj6jbVf96JFixAfH4/ExEQ4OjpWmhcXFwcrKytER0cjLy9PoQjrx8HBAdHR0XBzc4OjoyMGDx6MsLAw7Ny5U3/DGQCsXbsWIlLp79///rd+fnx8PJKTk5GUlIQ//OEPsLGxgaenJ7Zu3ao/8zJhwgQ8/fTTePnll1FWVmbw92opmBuNE3NrVcyrlplXWVQbIXd3d0RERGDjxo1YvXo1bt++jWPHjtXqBhidTofJkydj8+bNWLduHW7fvo3jx49j7Nix8PT0RHR0tH5sRUUFbt26hbKyMhw7dgwTJ06Et7c3RowYUevlBAQE4Ndff0VycjJKS0tx/fp1XLx4sVJMbm5uuHz5MjIyMpCfn28xXzQPMsZ+3efOncPs2bPx/vvv688C/l5wcDAmTpyIS5cuYcqUKQpEWH/btm2DtbV1pWnNmjUDgDo9ge7TTz9F586d0bFjx4eOmzt3Lo4ePYrY2Ni6B0u1wtxI1TG23Mq8+mhmm1fFTAGQhIQERWOIiIiQiIiIer02Pz9fRo8eLY899pg4ODhIz549Zc6cOQJAvLy8ZMiQIWJraysApFWrVrJ27Vr9aysqKmTJkiXSpk0bUavV4urqKmFhYXL69Gn9mOjoaFGr1dKyZUuxsbERJycnGThwoKSnp9dpOTdv3pTnn39edDqdtG7dWt566y2ZOnWqAJCAgADJzMyUw4cPi4+Pj9ja2krPnj3l6tWrdd4eDd2fP//8s7Rq1UoAyMcffywiIsuXLxc7OzuxtbWV5ORkeemll8TR0VFatmwpX331lYiIfPTRR6LVasXd3V2io6PFw8NDtFqtdO/eXfbv3y8iIm+99Zao1Wpp0aKFfn1vvPGG2NnZCQC5fv26TJgwQTQajQAQAOLv7y8iIjt27BBHR0dZsGBBvd/bffU53t566y2xtraWO3fuVJnn7+8vFy5ckMLCQmnbtq0AkO+//14/f8eOHRIaGqr/d0VFhfzjH/+QwMBA0Wg04uLiIqGhoXLy5EkRqd32FhEpKyuT2bNnS6tWrUSn00nHjh0lPj6+rpujWqGhoWJrayvFxcUiIjJ//vxKn50HFRcXi0ajkb/97W+1Wv5LL70kLVu2lIqKijrFpUS+akh+aiwJCQlS168h5kaR1NRU6dGjh3h6eupzioeHhwQHB8tPP/1U621Zn+3/IEvIrXX9fDKvGkdebYzju65YVDchY/jSqkl0dLS4ubkpHUatNcb+zMrKqpT4RURmzZolAOTHH3+UvLw8ycnJkV69eom9vb2UlJSIyL1tZW9vLydOnJC7d+9KWlqadO3aVRwdHSUzM1NERIYMGVIp8YuILFmyRJ/4RUTCw8P1Cf++bdu2iaOjo8ybN69B702kfsebn5+ftG/fvtp595O/iMi+ffvEyspKfH19paCgQESqJv85c+aIRqORtWvXSm5urhw7dkw6d+4szZo10xcLtdneU6ZMEa1WKxs3bpRbt27JzJkzxcrKSn755Ze6bpJK7ty5I46OjjJ+/Hj9tPnz54uXl5e4uLiIWq0WX19fCQ0NlYMHD4qIyIULFwSAdOrUSfr06aP/4g8MDJRPPvmkSpKfMWOGAJAjR47UKTYW1cbD1HJjQzTW9jf33FrXzyfzqnHkVSXyCy//sGCmdldtUwoODoaTkxPc3d0RFRWFO3fuIDMzUz//YX1rG6J///64ffs2Zs+e3dC3UGd37tzBhQsX4O/v/8ix3bt3x9tvv42MjIxKD9q4r669e2va3nfv3sWKFSsQFhaG8PBwuLi44N1334VarW7wto6JiYGnpycWLFignzZ8+HB8/fXXyMrKQkFBATZs2IDMzEz07t1b3zoNuHfZwcKFC5GWloZr165h4MCBGDduHL766qtK62jTpg0A4Pjx4w2KlZTF3Nh4LC23Mq9adl5lUU30AI1GAwAPvb7x931rTVVOTg5EBHZ2drUav2DBAjzxxBNYvnw59u7dW2leQ3r3/n57nz59GoWFhZVaL9na2sLDw6NB23rz5s1ITEzEd999V+mmoVatWuGZZ56Bg4MDNBoNunXrpn/Ax/Lly6HVagEATz75JIKDg+Hm5gZnZ2e8//77cHZ2rvKldn9bXrt2rd6xkmU6depUtW3IHvyLiopSOtR6s4Tcyrxq2XmVRbUFmjlzJtasWYO8vDy0bt0aGzduVDokk3S/b62punv3LgDoE9yj6HQ6rFmzBiqVCq+99hqKior08xqrd++dO3cAAO+++26lQuLixYt1ugnm9+Lj47Fo0SLs3r0bvr6+jxzfsWNHWFtb48yZM/D09AQA3Lhxo9IYjUYDHx8fpKenV5pua2sL4D/blkyLkrkxMDCwSreE6v7i4+MNFpNSTDm3Mq9Wz1LyKotqCxQTE4Pi4mKICC5cuICIiAilQzI5v+9ba6ruJ6q6/NTdvXt3TJo0CWfPnsX8+fP10xurd+/9h3osW7asSjGRmppa6zjv+/jjj7Fu3Trs2rULjz/+eK1eU1FRgYqKCmi1Wjg4OKBNmzY4ceJElXFlZWVwdnauNK2kpATAf7YtmRbmRuWZem5lXq2epeRVFtVE9fD7vrWAafakbd68OVQqVZ37pM6fPx+BgYE4cuSIflpDegD/XqtWraDT6XD06NE6xfQgEcG0adNw/PhxJCcnV3umBwBefPHFKtN++eUXiAi6d+8O4N4DCo4cOYLz58/rxxQWFuLixYtV2kHd35YtWrRoUPxElsrUcyvzqmXnVRbVRLXwsL61QP170u7YsQNOTk5YuHChwd+TnZ0d/Pz89I9+rq37P1f+vldpXXoAP2rZI0eOxIYNG7BixQrcvn0b5eXlyM7OxpUrVwAAUVFRaNGixUMf4XvixAl88MEH+Oyzz6BWq6tcl/rhhx8CAC5duoT4+Hjk5uaitLQUqampGDVqFLy9vTF27FgAwKRJk+Dj44MRI0YgMzMTN2/exLRp01BUVFTl5qL72/JRvVeJ6B5zy63MqxaeVw3UZcTgwJZ6ZqWh+/Pjjz8WDw8PASB2dnYyYMAAfX9PANKmTRtJT0+XVatWiZOTkwAQHx8fOXPmTK361ta3J+23336raJ/q8ePHi1qtlsLCQv20zZs3i7+/vwCQZs2aXM8z5QAAIABJREFUybhx46p97dSpU6v0U31Y797abu/i4mKZNm2aeHt7i42Njbi7u0t4eLikpaWJiEhYWJgAkDlz5tT4vo4fP67vW1vd35IlS0REZPLkyeLv7y/29vZiY2MjXl5eMnr0aLl8+XKl5WVlZclf/vIXcXV1Fa1WK88++6zs2LGjynr79+/PPtV1YIwt9SxJY2x/S8itdf18Mq8aR15ln+pGxKLavCi5P02lb219jrezZ8+KjY3NQxv1G5vy8nLp1auXrF69WulQKrlx44bodDr58MMP6/xaFtWkBKW3v6nk1rp+PplXG09D8ir7VBMZKXPtWxsQEIB58+Zh3rx5+t6hxqy8vBzJycnIz883utZic+fORadOnTB+/HilQyEyGeaYW5lXG4+p5VUbpQMwdxs3boRKpVI6DKIazZgxAwUFBYiKisL69eur3HltTHbv3o1NmzZhx44dte4DawhLly7F0aNH8e2330KtVisdjslhjiRzw7zacKaYV1lUN7Fu3brh7bffVjoMkxcZGanIeu/3rS0pKUHr1q2xZMkSs2yztXDhQqSkpODvf/87Fi1apHQ4Nerbty/69u2rdBiVbN26FcXFxdi9e3elm4yo9hISEpQOwSKlpqYiNjZWkXVbQm5lXq0/U82rLKqbmJeXFwYPHqx0GCZPqaI6JiYGMTExiqzb0Pr164d+/fopHYbJCQ0NRWhoqNJhmDTmSOUoVVRbSm5lXq0fU82rvKaaiIiIiKiBWFQTERERETUQi2oiIiIiogZiUU1ERERE1EAsqomIiIiIGohFNe498/7BZ9jX9Ldt27Ymi2PTpk3w8/Orsk6NRoPmzZujT58+WLJkCW7dutVkMRARVcdY8mRNmD+JSGksqn+TkpKC3NxclJaW4sqVKwCAAQMGoKSkBHfu3EFOTg5Gjx7dpDGEh4fj/Pnz8Pf3h7OzM0QEFRUVyMnJQWJiIlq3bo1p06bhySefxKFDh5o0FiKiBxlDnqwJ8ycRKY1FNe49zatHjx5wdnaGjY1NpelqtRp2dnZwd3dHly5dFInNxcUFffr0wZo1a5CYmIhr166hf//+yMvLM3g8DVFUVITg4GClwyCiejDmPFkT5k8iMiQW1QA2bNhQq0dzRkdH47/+678MEFHNIiIiMGLECOTk5GDlypWKxlJXq1evRk5OjtJhEFE9mFKerAnzJxE1JRbVJmjEiBEAgB07duCDDz6AnZ0dHB0dkZOTg8mTJ6Nly5Y4ffo0RARLly5Fu3btoNVq4erqioEDB+LUqVMAgLi4OOh0OjRv3hxjxoyBp6cndDodgoODceDAAf36HrWc8ePHQ6PRwMPDQ/+aN998E/b29lCpVLhx4wYmTpyIyZMnIz09HSqVCgEBAYbbYEREv2H+JKKmwqLaBHXq1AkAcP78ebzzzjuYNGkSCgoKEBMTg9atW6Nbt24QEcydOxczZszArFmzkJOTgz179iArKwu9evXCtWvXMH78eIwYMQKFhYWYMGECMjIycPjwYZSVleFPf/oTsrKyAOCRy4mLi6vymOHly5fj/fff1/87NjYWISEh8Pf3h4jg3LlzhttgRES/Yf4koqZi8+ghZGwcHR2hUqmQn59fafqiRYug0+kwbtw4FBUVYenSpXjllVcwdOhQAEDHjh2xcuVKPPvss1i1ahVmz54NALCxsUG7du0AAO3bt8eKFSvQtWtXrFmzBlOnTq31cppaamqqQdZjqrKzswEAiYmJCkdCZLwsNX8+DHPGo/H7x/Qosc9YVJugO3fuQETg5ORU45i0tDQUFBQgKCio0vSuXbtCo9FU+nnyQUFBQbCzs8OpU6catJzGFhsbi9jYWIOtz1RFRkYqHQKR0bLU/PkwzBmPxu8fqg0W1SbozJkzAIDAwMAax+Tm5gIAHBwcqsxzcXGpcpbmQVqtFtevX2/wchpTQkJClZ9J6T8GDRoEAEhKSlI4EqorlUqldAgWw1Lz58OIiNIhGDWVSsXvHxOUmJho8P8w8ppqE7Rz504AwJ///Ocax7i4uABAtUk7NzcXXl5eNb62tLRUP6YhyyEiMjbMn0TUVFhUm5irV69i2bJl8PLywmuvvVbjuA4dOsDBwaHKQw4OHDiAkpKSh/aS3b17N0QE3bp1q/VybGxsUFpa2oB3RkTUtJg/iagpsag2UiKCgoICVFRUQERw/fp1JCQkoEePHrC2tkZycvJDrwnU6XSYPHkyNm/ejHXr1uH27ds4fvw4xo4dC09PT0RHR+vHVlRU4NatWygrK8OxY8cwceJEeHt7Y8SIEbVeTkBAAH799VckJyejtLQU169fx8WLFyvF5ObmhsuXLyMjIwP5+fn8EiGiJsH8SUSKEDMFQBISEur0mtu3b8tzzz0nbm5uAkCsrKwkICBAFi5cWK8YIiIiJCIiotbjv/76a3nqqafEzs5ONBqNWFlZCQBRqVTi4uIizz77rMybN09u3rypf83ixYvF1tZWAEirVq1k7dq1+nkVFRWyZMkSadOmjajVanF1dZWwsDA5ffq0fkx0dLSo1Wpp2bKl2NjYiJOTkwwcOFDS09PrtJybN2/K888/LzqdTlq3bi1vvfWWTJ06VQBIQECAZGZmyuHDh8XHx0dsbW2lZ8+ecvXq1Vpvm/rsT0tT1+ONjIcSx3d9j5fGzJMJCQnSWF9DzJ9115jb35zx+8c0KXF8q0TM8w4FY7ixwBRuHBszZgySkpJw8+ZNpUN5KGPYn8bOFI43qp4Sx7cxHC/3byQy1a8hU8mfNTH17W8o/P4xTUoc37z8g1BeXq50CEREJon5k4juY1FNRERERNRALKot2MyZM7FmzRrk5eWhdevW2Lhxo9IhERGZBOZPInoQH/5iwWJiYhATE6N0GEREJof5k4gexDPVREREREQNxKKaiIiIiKiBWFQTERERETUQi2oiIiIiogbijYpNLDs7G4mJiUqHQURktJgjlZGamqp0CERmhUV1E9u/fz8iIyOVDoPokX744Qf8+OOPCAoKwtSpU3HhwgUAwNChQ7F27dpKY/v164fU1FQUFhYiMDAQa9euRefOnZUIu0bz5s1DfHw8srOzUVxcjFatWuGVV17BnDlz4ODgAABYsGABZs+eXeW1Tz75JP7973/r/11aWoolS5bgX//6FzIzM2FnZwcvLy9s27YNx44dw8mTJzFlyhRYW1sb7P2ZE+ZIMlfMq/9hCXmVl380sYiICIgI/xr4R03rvffeQ1xcHGbOnInw8HCcP38e/v7+eOyxx7Bu3Tps37690viUlBQkJSUhJCQEaWlpRpf4AWDXrl0YN24cMjIycOPGDcTExCA2Nlb/eO66iIyMxJdffon169ejsLAQJ0+ehL+/PwoKCjBgwADodDr07dsXubm5TfBOzJ/S+cVS/xISEpTe9WaNefXhzDGvsqgmeoiioiIEBweb3LLrYtGiRYiPj0diYiIcHR0rzYuLi4OVlRWio6ORl5enUIT14+DggOjoaLi5ucHR0RGDBw9GWFgYdu7ciaysLP24tWvXVik2fn82JT4+HsnJyUhKSsIf/vAH2NjYwNPTE1u3bkWHDh0AABMmTMDTTz+Nl19+GWVlZQZ/r0SmxtxzK/OqZeZVFtVED7F69Wrk5OSY3LJr69y5c5g9ezbef/996HS6KvODg4MxceJEXLp0CVOmTFEgwvrbtm1blZ8NmzVrBgAoLCys9XI+/fRTdO7cGR07dnzouLlz5+Lo0aOIjY2te7BEFsaccyvz6qOZa15lUU1mSUSwdOlStGvXDlqtFq6urhg4cCBOnToFABg/fjw0Gg08PDz0r3nzzTdhb28PlUqFGzduYOLEiZg8eTLS09OhUqkQEBCAuLg46HQ6NG/eHGPGjIGnpyd0Oh2Cg4Nx4MCBBi0bAHbu3AknJycsXLjQINspLi4OIoIBAwbUOGbBggVo27YtPv/8c/zwww81jnvUNl+xYgXs7e1hZ2eHrVu34s9//jOcnJzg5eWFDRs26JdTXl6OOXPmwNvbG7a2tnjqqaca7WfqS5cuwdbWFq1bt67V+JKSEuzfvx+dOnV65FhXV1f07t0bsbGxvGSJzBZz66Mxrz6cWedVMVMAJCEhQdEYIiIiJCIiQtEYzEVd9+ecOXNEo9HI2rVrJTc3V44dOyadO3eWZs2aydWrV0VEZMiQIdKiRYtKr1uyZIkAkOvXr4uISHh4uPj7+1caEx0dLfb29nLixAm5e/eupKWlSdeuXcXR0VEyMzMbtOxt27aJo6OjzJs3r9bv9b76HG9+fn7Svn37auf5+/vLhQsXRERk3759YmVlJb6+vlJQUCAiIjt27JDQ0FD9+Nps81mzZgkA+fHHHyUvL09ycnKkV69eYm9vLyUlJSIiMmXKFNFqtbJx40a5deuWzJw5U6ysrOSXX36p6yap5M6dO+Lo6Cjjx4/XT5s/f754eXmJi4uLqNVq8fX1ldDQUDl48KCIiFy4cEEASKdOnaRPnz7i4eEhWq1WAgMD5ZNPPpGKiopK65gxY4YAkCNHjtQpNiXylTHkp4SEBDHjryGjV5/tb4m5ta6fT+ZV48irSuQXnqkms1NUVISlS5filVdewdChQ+Hs7IyOHTti5cqVuHHjBlatWtXgddjY2OjPHLRv3x4rVqxAfn4+1qxZ06Dl9u/fH7dv3672zunGdufOHVy4cAH+/v6PHNu9e3e8/fbbyMjIwPTp06vMr+s2Dw4OhpOTE9zd3REVFYU7d+4gMzMTd+/exYoVKxAWFobw8HC4uLjg3XffhVqtbvC2jYmJgaenJxYsWKCfNnz4cHz99dfIyspCQUEBNmzYgMzMTPTu3RtpaWkoKCgAALi7u2PhwoVIS0vDtWvXMHDgQIwbNw5fffVVpXW0adMGAHD8+PEGxUpkjJhbH4151bLzKotqMjv3P7RBQUGVpnft2hUajUb/U2JjCgoKgp2dnf4nOVOQk5MDEYGdnV2txi9YsABPPPEEli9fjr1791aa15BtrtFoANxrr3T69GkUFhbqb1QBAFtbW3h4eDRo227evBmJiYn47rvvKt001KpVKzzzzDNwcHCARqNBt27dsGbNGhQVFWH58uXQarUA7rWCCg4OhpubG5ydnfH+++/D2dm5ypfa/W157dq1esdKZKyYWx+NedWy8yqLahNQXFyMCRMmwMPDA3Z2dvjjH/+I5s2bQ6VSYeXKlU2+/sWLFyMwMBC2trawt7dHYGAgZs+ejdu3b+vHzJs3D+3bt4eTkxO0Wi0CAgLwzjvv6P9Hakj32+/c75n5ey4uLsjPz2+S9Wq1Wly/fr1Jlt0U7t69CwD6BPcoOp0Oa9asgUqlwmuvvYaioiL9vMba5nfu3AEAvPvuu1CpVPq/ixcv1ukmmN+Lj4/HokWLsHv3bvj6+j5yfMeOHWFtbY0zZ87A09MTAHDjxo1KYzQaDXx8fJCenl5puq2tLYD/bFtSHvNn42FufTTm1epZSl5lUW0C/vGPf2Dnzp04deoUYmNjMWbMGOzbt89g6//5558xevRoZGZm4tq1a5g/fz4WL16MiIgI/ZjG7F3ZUC4uLgBQbcLJzc2Fl5dXo6+ztLS0yZbdVO4nqvLy8lq/pnv37pg0aRLOnj2L+fPn66c31jZ3d3cHACxbtqxKO6b6PP3t448/xrp167Br1y48/vjjtXpNRUUFKioqoNVq4eDggDZt2uDEiRNVxpWVlcHZ2bnStJKSEgD/2bakPObPxsPc+mjMq9WzlLzKotoEJCcnIygoCC4uLnj99dcrJePGVl1/T41GgzfffBPu7u5wcHDAoEGDMHDgQHz//fe4cuUKgNr3rjSEDh06wMHBAYcOHao0/cCBAygpKUGXLl0A3Lt2r7S0tFHWuXv3bogIunXr1ujLbir3z9bVtU/q/PnzERgYiCNHjuin1XabP0qrVq2g0+lw9OjROsX0IBHBtGnTcPz4cSQnJ1d7pgcAXnzxxSrTfvnlF4gIunfvDuDeAwqOHDmC8+fP68cUFhbi4sWLVdpB3d+WLVq0aFD81HiYPxsPc+ujMa9adl5lUW0CsrOzoVarDbKu6vp7bt68uUqvzZYtWwKA/ufJxupd2Rh0Oh0mT56MzZs3Y926dbh9+zaOHz+OsWPHwtPTE9HR0QCAgIAA/Prrr0hOTkZpaSmuX7+OixcvVlqWm5sbLl++jIyMDOTn5+uTeUVFBW7duoWysjIcO3YMEydOhLe3N0aMGNGgZe/YscNgbZ/s7Ozg5+eH7OzsOr3u/s+Vv9/ftd3mtVn2yJEjsWHDBqxYsQK3b99GeXk5srOz9QVIVFQUWrRogcOHD9e4nBMnTuCDDz7AZ599BrVaXeknT5VKhQ8//BDAvVZQ8fHxyM3NRWlpKVJTUzFq1Ch4e3tj7NixAIBJkybBx8cHI0aMQGZmJm7evIlp06ahqKioys1F97flo3qvkuEwfzYe5tZHY1618Lxq0F4jBgQzaKmXkpIi/v7+AkD/Z29vLyIiZ8+eFQDy6aef6sdXVFTIP/7xDwkMDBSNRiMuLi4SGhoqJ0+e1I/Zs2ePtGvXTpycnESr1UqHDh1k586dIiIyYcIE0Wg0+nU92JLo9/r37y8uLi5SXFxc45jQ0FCxtbV96Jjaquv+rKiokCVLlkibNm1ErVaLq6urhIWFyenTp/Vjbt68Kc8//7zodDpp3bq1vPXWWzJ16lQBIAEBAZKZmSmHDx8WHx8fsbW1lZ49e8rVq1clOjpa1Gq1tGzZUmxsbMTJyUkGDhwo6enpDV72t99+K46OjrJgwYI6b6P6HG/jx48XtVothYWF+mmbN2/WH3fNmjWTcePGVfvaqVOnVmr99Khtvnz5crGzsxMA0qZNG0lPT5dVq1aJk5OTABAfHx85c+aMFBcXy7Rp08Tb21tsbGzE3d1dwsPDJS0tTUREwsLCBIDMmTOnxvd1/PjxSp+bB/+WLFkiIiKTJ08Wf39/sbe3FxsbG/Hy8pLRo0fL5cuXKy0vKytL/vKXv4irq6totVp59tlnZceOHVXW279/f2nZsmWVllCPokS+MveWesyfj1af7W+JubWun0/mVePIq0q01GNR3YQa60urRYsWMnz48ErTqvtSqE0/y6SkJJk7d678+uuvcvPmTenWrZs89thj+mVU19/zvpKSEsnOzpaPP/5YtFqtrF27tsaYq+td2RDGsD/vi46OFjc3N6XDqKI+x9vZs2fFxsbmofvS2JSXl0uvXr1k9erVSodSyY0bN0Sn08mHH35Y59eyqG46zJ81M7Y+4caaW+v6+WRebTwNyavsU031Vtt+lhEREXjvvffg6uoKNzc3DBgwADdv3qzVndWtWrWCl5cX5s6diw8++ACRkZE1jq2ud6U5qctNKMYsICAA8+bNw7x584yu00B1ysvLkZycjPz8fERFRSkdTiVz585Fp06dMH78eKVDoTpi/jQe5pBbmVcbj6nlVRbVZqK+/SzvX2tYm0SWlZWFnJwcfPXVV/jiiy/wzDPPVLl+EKi5dyUZpxkzZmDQoEGIioqq8801hrZ7925s2rQJO3bsqHUfWENYunQpjh49im+//dZg1+9S42H+pMbGvNpwpphXWVSbidr2s9y+fTv69OkDd3d3aLVavPPOO7Veh1qthru7O/r164f4+HikpaUhJiam0pi69q40NTNnzsSaNWuQl5eH1q1bY+PGjUqH1CgWLlyI8ePH4+9//7vSoTxU3759sX79enh4eCgdit7WrVtRXFyM3bt3w9XVVelwqB6YP5VnjrmVebX+TDWvsqg2E7XpZ5mZmYmwsDB4eHjgwIEDyMvLw+LFi+u1voCAAFhbWyMtLU0/rT69K01NTEwMiouLISK4cOFCk7bnMrR+/fph0aJFSodhckJDQzFjxowq3RvIdDB/Ks9ccyvzav2Yal5lUW0matPP8vjx4ygtLcUbb7wBPz8/6HQ6qFSqhy735s2bePXVV6tMP3v2LMrLy9GqVata964kIjJGzJ9E1BhYVJuJ2vSz9Pb2BgD88MMPuHv3Ls6ePVvlWsEH+3tqNBqkpKRg165duH37NkpLS3HkyBEMHz4c9vb2mDRpUq17VxIRGSPmTyJqDCyqjdjFixfRuXNnXLt2DevXr0eXLl2wadMmLF26FD179gQATJkyBeHh4QCA9957DzExMZg3bx6aNWuG3r17w9fXF7t374a9vT06duyIadOmYfny5fD09MSsWbPQp08fAEDPnj2RlZWFsWPHonnz5mjfvj1efvllFBYWokePHhg1ahRatmwJR0dHDBo0CL6+vti/fz86dOgAEVFqExERVYv5k4gMTSVm+olWqVRISEjA4MGDFYth0KBBAICkpCTFYjAXxrA/jR2PN9OlxPFtDMdLYmIiIiMjWVgqhNu/dvj9Y5qUOL55ppqIiIiIqIFYVBMRERERNRCLaiIiIiKiBmJRTURERETUQCyqiYiIiIgaiEU1EREREVEDsagmIiIiImogFtVERERERA1ko3QATWnZsmWKPthg//79AP7zkAVqGKX3p7FryPFWUVEBKyv+H9vS7N+/X9H8lJ2dDYA58j5Dfw65/WuP3z+m5/7xbUhm+0RFJgmi2hER7NmzB66urujYsSNUKpXSIVmkSZMmoXv37gZb39KlS5Gammqw9dHDFRQUYN++fQgMDIS3t7fS4RCZDUP+Z8hsi2oiqr2EhASMHDkSvXv3Rnx8PJydnZUOichipKSkICoqCr6+vtiyZQt8fHyUDomI6oG/9xIRIiMjsWvXLhw5cgS9evVCRkaG0iERWYRVq1ahf//+ePHFF7F3714W1EQmjEU1EQEAunXrhkOHDkGtVqNr167Ys2eP0iERma3i4mKMHDkSb7zxBhYsWIANGzbAzs5O6bCIqAFYVBORnpeXF3766Sf06NED/fr1w5dffql0SERm5/Lly3juueewefNmbNmyBdOmTVM6JCJqBCyqiagSBwcHbNmyBdOnT8fw4cMxYcIEVFRUKB0WkVlITU1FUFAQcnNzceDAAYSEhCgdEhE1EhbVRFSFSqXC3Llz8fnnn2PlypUYPHgwCgsLlQ6LyKStW7cOL7zwAp555hkcPHgQgYGBSodERI2IRTUR1ehvf/sbdu3ahT179iA4OBiZmZlKh0RkcsrKyjB9+nQMGzYMEyZMwDfffMMOO0RmiC31iOiR0tPTERISgry8PCQnJ6Nr165Kh0RkEm7evInIyEj87//+Lz777DMMHTpU6ZCIqInwTDURPZK/vz8OHDiAZ555Bs899xy++uorpUMiMnrHjh1D165dcebMGezdu5cFNZGZY1FNRLXi6OiIrVu34vXXX8fQoUMxd+5c8Icuoup988036NWrF7y8vHDo0CF06dJF6ZCIqImxqCaiWrO2tsZHH32ElStXIiYmBn/5y19QVFSkdFhERkNEsHjxYgwcOBBRUVH48ccf0bx5c6XDIiID4DXVRFQv33//PQYPHozAwEBs2bIFHh4eSodEpKiCggIMGzYM27dvx/LlyzFq1CilQyIiA2JRTUT1dvbsWYSEhKCgoABff/01OnfurHRIRIo4d+4cBg4ciJycHCQlJaF3795Kh0REBsbLP4io3tq0aYN9+/ahbdu26N27N7Zu3ap0SEQGl5KSgmeffRYajQa//PILC2oiC8WimogaxM3NDSkpKRg2bBjCwsIwd+5cpUMiMphVq1ahf//+ePHFF7F37174+PgoHRIRKcRG6QCIyPTZ2Nhg+fLlaNu2LSZPnoysrCx8+umn0Gg0SodG1CSKi4sxZswYrF27FgsXLsS0adOUDomIFMZrqomoUe3cuRNRUVHo0KEDNm/ezM4HZHYuX76MsLAwnDp1CuvWrUNISIjSIRGREeDlH0TUqF566SX8/PPPuHTpErp3744TJ04oHRJRo0lNTUVQUBByc3Nx4MABFtREpMeimogaXceOHfHLL7/Ay8sL3bp1w/bt25UOiajB1q1bhxdeeAHPPPMMDh48iMDAQKVDIiIjwqKaiJpEs2bNkJKSgrCwMISGhmLx4sVKh0RUL2VlZZg+fTqGDRuGCRMm4JtvvoGzs7PSYRGRkeGNikTUZLRaLb744gt07twZkyZNwvnz5/HJJ59ArVYrHRpRrdy8eRORkZHYv38/EhMTERERoXRIRGSkeKMiERnEpk2bMGzYMPTo0QOJiYlwcXFROiSihzp27BgGDhyIsrIybNmyBV26dFE6JCIyYrz8g4gMIjw8HPv27cPp06fx7LPP4vTp00qHRFSjpKQkBAcHw8vLC4cOHWJBTUSPxKKaiAzm6aefRmpqKlxcXBAcHIz/+Z//UTokokpEBIsXL0ZUVBSGDBmCH3/8kW0hiahWWFQTkUE9/vjj2LNnD1566SX069cPK1asUDokIgBAQUEBwsPDMWfOHPzzn//EP//5T17/T0S1xhsVicjgdDod1q1bhzZt2mDcuHE4ffo0li5dCmtra6VDIwt17tw5DBw4EDk5OUhJSUHv3r2VDomITAxvVCQiRSUkJGDkyJHo3bs34uPj2aqMDC4lJQVRUVHw9fXFli1b4OPjo3RIRGSCePkHESkqMjISu3btwpEjR9CzZ09kZGQoHRJZkFWrVqF///548cUXsXfvXhbURFRvLKqJSHHdunXDoUOHoNFo0LVrV+zZs0fpkMjMFRcXY+TIkXjjjTewYMECbNiwAXZ2dkqHRUQmjEU1ERkFLy8v/PTTT+jRowf69euHL7/8UumQyExdunQJzz33HDZv3owtW7Zg2rRpSodERGaARTURGQ0HBwds2bIF06dPx/DhwzFhwgRUVFQoHRaZkX379iEoKAi5ubk4cOAAQkJClA6JiMwEi2oiMioqlQpz587F6tWrsXLlSgwePBiFhYVKh0VmYN26dejbty86d+6MgwcPIjAwUOmQiMiMsKgmIqP02muvYdeuXfhq6b0VAAAgAElEQVT5558RHByMzMxMpUMiE1VWVobp06dj2LBhmDBhAr755ht2mSGiRseWekRk1M6fP4+QkBDcunULW7duRdeuXZUOiUzIzZs3ERkZif379+O///u/ERERoXRIRGSmeKaaiIyan58f9u/fj86dO+O5557DV1999dDxPE9A9x07dgxdu3bFmTNn8NNPP7GgJqImxaKaiIyeo6Mjtm7ditdffx1Dhw7F9OnTqy2eL1++jAEDBqC8vFyBKMmQysvLMXLkSNy5c6fa+UlJSQgODoaXlxcOHTqELl26GDhCIrI0LKqJyCRYW1vjo48+wsqVK7F06VJERUWhqKhIP7+goAB/+tOfsG3bNqxatUrBSMkQ4uLi8N///d8YOXJkpf9giQgWL16MqKgoDBkyBD/++COaN2+uYKREZCl4TTURmZzvv/8egwcPRmBgILZs2YLmzZtjwIABSElJQWlpKZycnJCeno5mzZopHSo1gezsbLRt2xZFRUVQqVRYuHAhZsyYgYKCAgwbNgzbt2/H8uXLMWrUKKVDJSILwqKaiEzS2bNnERISgoKCArzwwgtYv369vqe1Wq3GiBEjeMbaTL3yyivYvn07SkpKANxrw/jPf/4TH330EXJycpCUlITevXsrHCURWRoW1URksm7evImePXvi1KlTVeapVCrs378fzz77rAKRUVP57rvv8NJLL1WaZmVlBRsbG7Rt2xY7duyAl5eXQtERkSXjNdVEZLJOnjyJ9PT0audZW1sjOjqaT2Q0I0VFRRg9ejSsra0rTa+oqEBFRQUKCgrg4OCgUHREZOlYVBORSbpw4QIGDBhQY9FcVlaGY8eO4YsvvjBwZNRUFixYgCtXrlTb3aWsrAyXLl1CeHg4u78QkSJ4+QcRmZy8vDwEBQUhIyMDZWVlNY5TqVRwcXHB+fPn4eLiYsAIqbGdPHkSTz311EP3N3DvF4opU6Zg0aJFBoqMiOgenqkmIpOTnJyMa9euoby8vMqlAL8nIsjPz8fs2bMNGB01NhHB66+/DpVK9dBx9+d/+OGHSE1NNURoRER6PFNNRCapuLgYX3/9Nf71r3/h+++/h5WVFUpLS6sda2VlhcOHD+Ppp582cJTUGL744osq/ah/T6PRoKSkBAEBARgyZAiGDx+O1q1bGzhKIrJ0LKqJyORdunQJ69atw6effoqLFy9CrVZXKrBtbGwQFBSEffv2PfJsJxmXW7duISAgALdu3apUVN8vpJs1a4ZXX30VgwYNQs+ePRWMlIgsHYtqIjIbIoK9e/dizZo1SEhIwN27d6FSqfQ3rq1fvx6vvvqqwlFSXbz++uv417/+pb/Up6KiAra2toiIiMDw4cPRp08fWFnxSkYiUh6LamoS2dnZ2Ldvn9JhkAUrLi7G/v37sWvXLn0faycnJ8TFxcHW1lbh6Kg2zpw5gzlz5kBEYGVlhaeeegq9e/dGUFAQNBqN0uGRBQoODmYfdKoRi2pqEomJiYiMjFQ6DCIiokaTkJCAwYMHKx0GGSkbpQMg86b0/9lUKhWToAm6/5+yxj5+KioqsG/fPnTv3v2hXUNMhTkf35cvX0ZhYSECAgKUDoUIAHg/Bj0Si2oishhWVla8mc1EPP7440qHQERUJ7y7g4iIiIiogVhUExERERE1EItqIiIiIqIGYlFNRERERNRALKqJiIiIiBqIRTURERERUQOxqCYiIiIiaiAW1UQmrKioCMHBwRazXiIiImPFoprIhK1evRo5OTkWs14iIiJjxaKaqAZr165FUFAQdDod7O3t4evri/nz5wO49/j1pUuXol27dtBqtXB1dcXAgQNx6tQpAMCKFStgb28POzs7bN26FX/+85/h5OQELy8vbNiwodbr+fnnn9G+fXs4OztDp9OhY8eO+O677wAAEydOxOTJk5Geng6VSqV/nHN5eTnmzJkDb29v2Nra4qmnnkJCQkKd4mrs9RIREZk7FtVE1YiNjcWwYcMQERGBy5cvIzs7GzNnzsTp06cBAHPnzsWMGTMwa9Ys5OTkYM+ePcjKykKvXr1w7do1vPHGG3j77bdRVFQER0dHJCQkID09HX5+fhg9ejRKS0trtZ5r164hMjISGRkZuHz5MhwcHDBkyBD9a0NCQuDv7w8Rwblz5wAA06dPxwcffIBly5bhypUrCAkJwauvvopDhw7VOq7GXi8REZHZE6ImkJCQIMZweAGQhISEOr2mpKREXFxc5Pnnn680vaysTGJjY6WwsFAcHBwkKiqq0vyDBw8KAJk3b56IiMyaNUsASFFRkX7M8uXLBYCcO3fukeupTkxMjACQnJwcEREJDw8Xf39//fyioiKxs7OrFFthYaFotVp54403ahVXU623Lozl+DF29Tm+iah++HmjR+GZaqIHHDt2DLm5uXjxxRcrTbe2tsaECROQlpaGgoICBAUFVZrftWtXaDQaHDhwoMZlazQaAEBpaekj11MdtVoN4N6lFtU5ffo0CgsL0aFDB/00W1tbeHh46C9NeVRchlxvU/v222/h7OyMb775RrEYjMmYMWOgUqn0f0OHDq0y5ocffsCMGTOwadMm+Pn56cf+9a9/rTK2X79+cHR0hLW1NZ588kkcPnzYEG+jTubNm4f27dvDyckJWq0WAQEBeOedd1BQUKAfs2DBgkrb5f7f749n4N7nIyYmBgEBAdBoNHBxcUGHDh2QkZGBr7/+GosXL67xM1JX3A+Nux+Sk5MrLbNZs2YGed9kWVhUEz3g9u3bAAAXF5dq5+fm5gIAHBwcqsxzcXFBfn5+o6wHALZv344+ffrA3d0dWq0W77zzzkOXeefOHQDAu+++W+kL5OLFiygsLKxVXEqut7GJiGLrNlZubm7YsWMHTp8+jdWrV1ea99577yEuLg4zZ85EeHg4zp8/D39/fzz22GNYt24dtm/fXml8SkoKkpKSEBISgrS0NHTu3NmQb6VWdu3ahXHjxiEjIwM3btxATEwMYmNjMWjQoDovKzIyEl9++SXWr1+PwsJCnDx5Ev7+/igoKMCAAQOg0+nQt29ffY6oL+6Hh6vPfggNDUV2djb27NmDl19+uTHfGpEei2qiBzz++OMAgBs3blQ7/34RXF3xnJubCy8vr0ZZT2ZmJsLCwuDh4YEDBw4gLy8Pixcvfugy3d3dAQDLli2DiFT6S01NrVVcSq23KfTv3x95eXkICQlRZP3G2HrQ1tYWL730Etq2bQutVqufvmjRIsTHxyMxMRGOjo6VXhMXFwcrKytER0cjLy/P0CE3iIODA6Kjo+Hm5gZHR0cMHjwYYWFh2LlzJ7KysvTj1q5dW+XY/fe//62fHx8fj+TkZCQlJeEPf/gDbGxs4Onpia1bt+rPpE6YMAFPP/00Xn75ZZSVldUrXu6HptkPKpUKLVu2RK9evdCmTRvDvnmyGCyqiR7g6+sLNzc3pKSkVDu/Q4cOcHBwqHID3oEDB1BSUoIuXbo0ynqOHz+O0tJSvPHGG/Dz84NOp4NKpXroMlu1agWdToejR4/WKgZjWq85MpXWg+fOncPs2bPx/vvvQ6fTVZkfHByMiRMn4tKlS5gyZYoCEdbftm3bYG1tXWna/Z/+6/IryqefforOnTujY8eODx03d+5cHD16FLGxsXWOlfvh0QyxH4jqi0U10QO0Wi1mzpyJPXv2YPz48bh06RIqKiqQn5+PEydOQKfTYfLkydi8eTPWrVuH27dv4/jx4xg7diw8PT0RHR3dKOvx9vYGcO/ayrt37+Ls2bNVrtd2c3PD5cuXkZGRgfz8fFhbW2PkyJHYsGEDVqxYgdu3b6O8vBzZ2dm4cuVKreJSar2Nbe/evfD29oZKpcInn3wCoHYtBePi4qDT6dC8eXOMGTMGnp6e0Ol0CA4O1m+H8ePHQ6PRwMPDQ7++N998E/b29lCpVLhx40aNrQd37twJJycnLFy40MBbpGZxcXEQEQwYMKDGMQsWLEDbtm3x+eef44cffqhxnDRSu8mmbNF46dIl2NraonXr1rUaX1JSgv3796NTp06PHOvq6orevXsjNja2zpcfcT88nKH2A1G9GfCmSLIgxtK9AQ24W/uTTz6Rjh07ik6nE51OJ88884wsX75cREQqKipkyZIl0qZNG1Gr1eLq6iphYWFy+vRpEbnXTcPOzk4ASJs2bSQ9PV1WrVolTk5OAkB8fHzkzJkzj1zPtGnTxM3NTVxcXGTQoEHyySefCADx9/eXzMxMOXz4sPj4+Iitra307NlTrl69KsXFxTJt2jTx9vYWGxsbcXd3l/DwcElLS6t1XI293rpqrOMnKytLAMjHH3+sn3a/+8mPP/4oeXl5kpOTI7169RJ7e3spKSkREZHo6Gixt7eXEydOyN27dyUtLU26du0qjo6OkpmZKSIiQ4YMkRYtWlRa35IlSwSAXL9+XUSqdkkREdm2bZs4Ojrqu8Q0RF2P7+joaGnZsmWV6X5+ftK+fftqX+Pv7y8XLlwQEZF9+/aJlZWV+Pr6SkFBgYiI7NixQ0JDQ/Xj58yZIxqNRtauXSu5ubly7Ngx6dy5szRr1kyuXr0qIrXbB1OmTBGtVisbN26UW7duycyZM8XKykp++eWXWr/f6ty5c0ccHR1l/Pjx+mnz588XLy8vcXFxEbVaLb6+vhIaGioHDx4UEZELFy7I/2fvTqOiuNI+gP9b6Ka72VEUIiIC7mLUaAZQozkmZnFcCAjEmMRkZFCTIC4RdxHQuAU4GhiPxmFm1FEwOpjFLcYhxgQdPW4Eo0GUTRTckK2RFu77wZceewDptmka9P87hw9W3br36aoLPhS3ngIgBgwYIEaOHCmcnJyEhYWF6NWrl/jiiy9EbW2t1hgLFiwQAMSZM2f0io3XoWWuw8yZM0X79u31jtmQ/0/o2WD6rIeeSk9DUk2m0xJJ9eNKCoaGhgpbW1utvk6ePCkAiOXLlwshnjypbk7NkVSXl5cLiUQixo4d2+AxjyZzQggxZ84cAUB8/PHHQgjtZK65yk02d4nGRy1atEj06NFDlJaWarbV/aJYVlYm7t+/L9LT08XAgQOFQqEQv/76q8jIyBAAxKuvvip+/vlncfv2bVFSUiLmz58vAIht27ZpjfHXv/5VABD/+Mc/dI6L16HlrgOTajIWLv8gomdeUyUFAWDw4MFQKpUmLRFoDMXFxRBCQKlU6tQ+JiYGPXv2REJCAo4dO6a1r7nKTRqrROOePXuQkpKCgwcPaj0E2KVLFwwcOBBWVlaQyWTw9vZGUlISVCoVEhISNA909u3bF76+vnBwcICtrS2WL18OW1tbbNq0SWucunNZVFSkc2y8Dq3jOhAZgkk1EZGOLCwscPPmTVOH0ayqqqoAQKsSyOPI5XIkJSVBIpHgww8/hEql0uxrrnKTxijRuHPnTqxatQppaWlwc3Nrsr2XlxfMzMzw+++/w9nZGUD9Sj0ymQxdu3ZFdna21naFQgHgv+dWF7wODWvp60BkCCbVREQ6UKvVepVMbCvqEg99Xlri4+OD2bNnIysrC9HR0ZrtzVVusrlLNG7YsAHbtm3DkSNHNKUsm1JbW4va2lpYWFjAysoK3bt3x4ULF+q1e/DgAWxtbbW2VVdXA/jvudUFr0PDWvo6EBmCSTURkQ7S0tIghIC3tzcAwNzc/LHLRdqKjh07QiKR6F33ODo6Gr169cKZM2c025qr3GRzlWgUQiAiIgIZGRlITU1t8M4tgHpvNQWAkydPQggBHx8fAA9fOHLmzBlcuXJF06ayshK5ubn1yrvVnctOnTrpHCuvQ+u4DkSGYFJNRNSA2tpa3L17Fw8ePMD58+cRHh4OV1dXTJkyBQDg6emJO3fuIDU1FWq1Gjdv3kRubq5WH/9belCtVmP//v2tqqSeUqmEu7s7CgoK9DqubvnBo7WHm6vcpFwub7JEY3BwMDp16vTYV3JfuHABa9aswebNmyGVSuu9/nrdunUAHpZ227lzJ0pKSqBWq5Geno6pU6fC1dUV06dPBwDMnj0bXbt2xZQpU5CXl4fbt28jIiICKpUK8+fP1xq37lzWJXm6xMrrYPzrQGR0Jng4kp4BrP5BhmiO+bNhwwbh5OQkAAilUinGjRunc0nB0NBQIZVKRefOnYW5ubmwsbEREyZMENnZ2Zr+b9++LV5++WUhl8tFt27dxCeffCI+/fRTAUB4eno2Wnpw3759wtraWsTExBh6mpqtpF5YWJiQSqWisrJSs23Pnj3Cw8NDABAdOnTQVJn4X59++qlWKbfmKjfZVIlGPz8/AUAsXbq00c9bVy2isa+1a9cKIR5W0vDw8BCWlpbC3NxcuLi4iJCQEFFYWKjVX35+vnj77beFvb29sLCwEC+++KLYv39/vXHHjBkjOnfurCnxpkusvA7Gvw51WP2DjMX0WQ89lZhUkyFMPX9CQ0OFg4ODycbXVXMl1VlZWcLc3Fxs3bq1OcMzqpqaGjF8+HCxZcsWU4ei5datW0Iul4t169ZptukaK69D82noOtRhUk3GwuUfREQN0OeBsbZEpVLh4MGDyMrK0jzI5enpiaioKERFRaG8vNzEETatpqYGqampKCsrQ3BwsKnD0RIZGYkBAwYgLCwMgH6x8jo0n/+9DkIIFBYW4tixY7h8+bKJo6OnlbmpAyAytri4OOzatcvUYZAe9F1XSrq7c+cOXn/9dQDAO++8g23btgEAFixYgPLycgQHB2P79u31Kim0Jmlpadi9ezf279+vc13nlhAbG4uzZ89i3759kEqlAPSPldfBcA1dh71798LPz0/Tpn379qYKj55iEiGEMHUQ9PRJSUlBUFAQTD29JBIJvL29n7oyaE+7goICHD9+3CTzZ+HChfj8889RXV0NNzc3rF27FgEBAS0ehy4kEgmSk5MRGBjYbH0eOnQIR44cwapVq5qtz2fB3r17ceHCBcybN0/rocEnxevwZJr7OjzKGN9v9HRhUk1G0ZqSav4QbHtay/xp7Ti/iVoOv9+oKVxTTURERERkICbVREREREQGYlJNRERERGQgJtVERERERAZiUk1EREREZCAm1dQqBAcHQyKR6PT17bffGj2eS5cu4ZNPPkHfvn1hbW0Nc3Nz2NraokePHhgzZgzS09ONHgMRERG1HUyqqdU4dOgQSkpKoFarcf36dQDAuHHjUF1djYqKChQXFyMkJMTocWzZsgVeXl44f/48YmNjkZ+fj4qKCpw5cwbR0dEoKSlBRkaG0eMgIiKitoNvVKRWQSKRYOjQofXeyiWRSCCVSiGVSqFUKvHCCy8YNY7jx48jNDQUI0aMwMGDB2Fu/t9vEXd3d7i7u8POzg5ZWVlGjUNfKpUKo0aNwi+//PJMjEtERNTaMKmmVmHHjh06tQsNDTVqHDExMaipqcFnn32mlVA/6rXXXsNrr71m1Dj0tWXLFhQXFz8z4xIREbU2XP5B9P+qq6vxww8/oH379njxxRd1OkYIgdjYWPTu3RsWFhawt7fHhAkTcPHiRQBAYmIiLC0toVQqsXfvXrzxxhuwsbGBi4tLvV8ktm7disGDB0Mul8PS0hJubm6Ijo4GAPz000/o06cPbG1tIZfL4eXlhYMHDwIAwsPDMWfOHGRnZ0MikcDT0xMAUFNTg6VLl8LV1RUKhQL9+/dHcnKyXnE197hERERPKybVRP8vNzcXVVVV6N69u87HREZGYsGCBVi0aBGKi4tx9OhR5OfnY/jw4SgqKsKMGTMwa9YsqFQqWFtbIzk5GdnZ2XB3d0dISAjUajUAID4+Hu+99x4CAgJQWFiIgoICLFy4EJcuXQIAFBUVISgoCDk5OSgsLISVlRXeeecdzbFjx46Fh4cHhBC4fPkyAGD+/PlYs2YN4uLicP36dYwdOxaTJk3CqVOndI6rucclIiJ6WjGpJvp/paWlAAArKyud2qtUKsTGxuKtt97C5MmTYWtrCy8vL2zcuBG3bt3Cpk2btNr7+vrCxsYGjo6OCA4ORkVFBfLy8qBWq7F8+XK8/PLLmD9/PhwcHGBvb48//elPGDJkCAAgICAAy5Ytg729PRwcHDBu3Djcvn0bN2/ebDC2qqoqJCYmws/PD/7+/rCzs8PixYshlUqRlJSkU1zGHpeIiOhpwjXVRP+vLpmurKzUqX1mZibKy8sxePBgre1DhgyBTCbDiRMnGj1WJpMBANRqNc6fP4+SkpJ667TNzMwwc+bMBo+XSqUAHi61aMilS5dQWVmJfv36abYpFAo4OTlplqY0FVdLjtsYiUSi9zHPmqCgIAQFBZk6DCKiZx6TaqL/5+bmBrlcjt9//12n9iUlJQAavrNtZ2eHsrIynfqpu0NuZ2fXaJvvvvsOa9euRWZmJkpLSxtNeutUVFQAABYvXozFixdr7XN2dtYpLlOOW4drsR8vKCgI4eHh8PHxMXUoRE89/vJKTWFSTfT/LCws8Nprr2Hv3r34+eefMXTo0Abb3blzB/PmzcO0adMAoMHkuaSkBC4uLjqN+9xzzwEAbt261eD+vLw8+Pn54a233sJf//pXPPfcc9iwYQPmzZvXaJ+Ojo4AgLi4OISHh+sUR2sZ91GBgYEG9/E0CwoKgo+PD88TUQtgUk1N4ZpqokdERkbCwsICs2fPhkqlarDNr7/+CnNzc/Tr1w9WVlb1HsA7ceIEqqurda6p7ebmBgcHBxw6dKjB/RkZGVCr1ZgxYwbc3d0hl8ubXBbRpUsXyOVynD17VqcYWtO4REREbRGTaqJHDBgwANu3b8evv/6K4cOHY9++fbh37x7UajWuXr2KzZs3409/+hOkUinkcjnmzJmDPXv2YNu2bSgtLUVGRgamT58OZ2dnnWtqW1hYYOHChTh69CjCwsJw7do11NbWoqysDBcuXICrqysA4PDhw6iqqkJWVla99doODg4oLCxETk4OysrKYGZmhg8++AA7duxAYmIiSktLUVNTg4KCAs3bKptiqnGJiIjaJEFkBMnJyeJJpldpaal46aWXhIODgwAg2rVrJzw9PcWKFSueKA4AIjk5We/j8vLyxNy5c4WXl5ewsrISZmZmws7OTgwcOFD86U9/Ej///LMQQoja2lqxdu1a0b17dyGVSoW9vb3w8/MTly5dEkIIkZCQIJRKpQAgunfvLrKzs8WmTZuEjY2NACC6du0qfv/9dyGEEF988YXw8vIScrlcyOVyMXDgQJGQkCCEECIiIkI4ODgIOzs7MXHiRPHFF18IAMLDw0Pk5eWJ06dPi65duwqFQiGGDRsmbty4Ie7fvy8iIiKEq6urMDc3F46OjsLf319kZmbqHFdzj6urJ50/z5onnd9EpD9+v1FTJEIIYZp0np5mKSkpCAoKgqmnl0QiQXJyMtectjGtZf60dpzfRC2H32/UFC7/ICIiIiIyEJNqIiIiIiIDMakmIiIiIjIQk2oiIiIiIgMxqSYiIiIiMhCTaiIiIiIiAzGpJiIiIiIyEJNqIiIiIiIDMakmIiIiIjIQk2p66gUFBUEikfCrDX0FBQWZetpQG3b48GEsWLAAu3fvhru7u2Zevfvuu/Xajh49GtbW1jAzM0Pfvn1x+vRpE0T8eDExMQ1+n/Tr169e29raWsTFxcHX17fevqioKPTp0wc2NjawsLCAp6cn5s2bh/LycgDA119/jdWrV6Ompsbon4noaWRu6gCIjC08PBw+Pj6mDoP0kJ6ejvj4eFOHQW3QsmXLcObMGWzfvh3W1tbw9/eHp6cnSkpKsG3bNgQHB2PMmDGa9ocOHcKBAwewceNGpKammjByw2VlZeGDDz7Azz//jOeff77e/iNHjuDjjz9GcHAwpFIp9u/fj8mTJyMjIwP79+/HuHHjcPXqVYwaNQqpqamws7MzwacgaruYVNNTz8fHB4GBgaYOg/RkqqRapVJh1KhR+OWXX9pU3wSsWrUKO3fuxLlz5yCXy7X2rV+/Hu+++y5CQ0ORmZkJW1tbE0X5ZLZu3YrJkyc3uv/cuXOIiorC9OnTUVFRASFEvTZWVlYIDQ2FmZkZACAwMBC7d+9GSkoK8vPz0aVLF8ycORNXrlzBm2++iaNHj8LcnGkCka64/IOI6BFbtmxBcXFxm+v7WXf58mUsWbIEy5cvr5dQA4Cvry/Cw8Nx7do1zJ071wQRGtfzzz+P3bt345133oGFhUWDbb799ltNQl2nQ4cOAIDKykrNtsjISJw9e5Z/LSLSE5NqInoqCCEQGxuL3r17w8LCAvb29pgwYQIuXrwIAAgLC4NMJoOTk5PmmI8++giWlpaQSCS4desWwsPDMWfOHGRnZ0MikcDT0xPr16+HXC5Hx44dMW3aNDg7O0Mul8PX1xcnTpwwqG8AOHDgAGxsbLBixYoWPFtPn/Xr10MIgXHjxjXaJiYmBj169MCXX36Jw4cPN9quqbmUmJgIS0tLKJVK7N27F2+88QZsbGzg4uKCHTt2aPqpqanB0qVL4erqCoVCgf79+yM5Obn5PnQzuHbtGhQKBbp166bZZm9vjxEjRiA+Pr7BO95E1DAm1UT0VIiMjMSCBQuwaNEiFBcX4+jRo8jPz8fw4cNRVFSE9evX11sGlJCQgOXLl2v+HR8fj7Fjx8LDwwNCCFy+fBlhYWGYMmUKKisrMXPmTOTk5OD06dN48OABXn31VeTn5z9x3wA0D4XV1tYa69Q8E7777jv07NkTSqWy0TYKhQJ/+9vf0K5dO4SEhKCioqLBdk3NpRkzZmDWrFlQqVSwtrZGcnIysrOz4e7ujpCQEKjVagDA/PnzsWbNGsTFxeH69esYO3YsJk2ahFOnTun9+RYsWAB7e3vIZDJ069YNEyZMwMmTJ/Xu51GVlZU4cuQIQkJCIJPJtPYNHDgQ165dw7lz5wwag+hZwqSaiNo8lUqF2NhYvPXWW5g8eTJsbW3h5eWFjRs34tatW9i0aZPBY5ibm2vuXPbp0weJiYkoKytDUlKSQf2OGTMGpaWlWLJkiWjU0u4AACAASURBVMExPqsqKipw9epVeHh4NNnWx8cHs2bNQk5ODubPn19vv75zydfXFzY2NnB0dERwcDAqKiqQl5eHqqoqJCYmws/PD/7+/rCzs8PixYshlUr1njPvv/8+vv76a+Tn56O8vBw7duxAXl4eRowYgczMTL36etTKlSvh7OyMmJiYevu6d+8OAMjIyHji/omeNUyqiajNy8zMRHl5OQYPHqy1fciQIZDJZJplGs1p8ODBUCqVmiUBZDrFxcUQQjz2LvWjYmJi0LNnTyQkJODYsWNa+wyZS3V3e9VqNS5duoTKykqtsncKhQJOTk56z5kuXbpg4MCBsLKygkwmg7e3N5KSkqBSqZCQkKBXX3X27NmDlJQUHDx4ENbW1vX2153LoqKiJ+qf6FnEpJrIiO7fv4+ZM2fCyckJSqUSr7zyCjp27AiJRIKNGzcaffzVq1ejV69eUCgUsLS0RK9evbBkyRKUlpZq2jRVu7YtKCkpAfCwusH/srOzQ1lZmVHGtbCwwM2bN43SN+muqqoKABp9QO9/yeVyJCUlQSKR4MMPP4RKpdLsa665VLe0ZPHixVq1pXNzc7UeCnxSXl5eMDMzw++//673sTt37sSqVauQlpYGNze3BtsoFAoA/z23RNQ0JtVERvT555/jwIEDuHjxIuLj4zFt2rQWLaf2008/ISQkBHl5eSgqKkJ0dDRWr16NgIAATZu62rU5OTm4desWVq5cifj4eEycOLHF4jRUXT3dhhKekpISuLi4NPuYarXaaH2TfuoSQH1eWuLj44PZs2cjKysL0dHRmu3NNZccHR0BAHFxcRBCaH2lp6frHGdjamtrUVtbq/MvEnU2bNiAbdu24ciRI3juuecabVddXQ3gv+eWiJrGpJrIiFJTUzF48GDY2dnhz3/+s1Yy29xUKlW9t6jJZDJ89NFHcHR0hJWVFSZOnIgJEybg+++/x/Xr1wH8t3atg4MDrK2tERgYCD8/Pxw4cAD5+flGi7c59evXD1ZWVvUeADtx4gSqq6vxwgsvAHi4LrruITJDpaWlQQgBb2/vZu+b9FP315979+7pdVx0dDR69eqFM2fOaLbpOpea0qVLF8jlcpw9e1avmBry2muv1dt28uRJCCF0frGVEAIRERHIyMhAampqg3fiH1V3Ljt16qR/wETPKCbVREZUUFAAqVTaImM1VAN5z5499Wr2du7cGQA0yzt0rV3bmsnlcsyZMwd79uzBtm3bUFpaioyMDEyfPh3Ozs4IDQ0FAHh6euLOnTtITU2FWq3GzZs3kZubq9WXg4MDCgsLkZOTg7KyMk2iXFtbi7t37+LBgwc4f/48wsPD4erqiilTphjU9/79+1lSz0BKpRLu7u4oKCjQ67i6ZSCPzn9d55IufX/wwQfYsWMHEhMTUVpaipqaGhQUFGh+oQ0ODkanTp2afDX6tWvXsHPnTpSUlECtViM9PR1Tp06Fq6srpk+frlM8Fy5cwJo1a7B582ZIpdJ6rzxft26dVvu6c+nl5aVT/0QEQBAZQXJysmgN0wuASE5ObvFxDx06JDw8PAQAzZelpaUQQoisrCwBQPzlL3/RtK+trRWff/656NWrl5DJZMLOzk6MHz9e/Pbbb5o2R48eFb179xY2NjbCwsJC9OvXTxw4cEAIIcTMmTOFTCbTjOXh4dFobGPGjBF2dnbi/v37jbYZP368UCgUj21jTE8yf2pra8XatWtF9+7dhVQqFfb29sLPz09cunRJ0+b27dvi5ZdfFnK5XHTr1k188skn4tNPPxUAhKenp8jLyxOnT58WXbt2FQqFQgwbNkzcuHFDhIaGCqlUKjp37izMzc2FjY2NmDBhgsjOzja473379glra2sRExOj93ky1fxujcLCwoRUKhWVlZWabXv27NF8H3bo0EF8/PHHDR776aefivHjx2v+3dRcSkhIEEqlUgAQ3bt3F9nZ2WLTpk3CxsZGABBdu3YVv//+u7h//76IiIgQrq6uwtzcXDg6Ogp/f3+RmZkphBDCz89PABBLly597GebM2eO8PDwEJaWlsLc3Fy4uLiIkJAQUVhYqGmTnp4uhg4dKpydnTU/B5ycnISvr6/48ccfRUZGhtbPo//9Wrt2rdaYY8aMEZ07dxa1tbX6XYinGL/fqCmmz3roqfSsJ9V1OnXqJN5//32tbQ0l1UuXLhUymUxs3bpVlJSUiPPnz4tBgwaJDh06iBs3bgghhNi1a5eIjIwUd+7cEbdv3xbe3t6iffv2mj78/f0bTaarq6tFQUGB2LBhg7CwsBBbt25tNOaKigphbW0twsLCDPjkhmkt86dOaGiocHBwMHUY9Zh6frcmWVlZwtzc/LFzu7WpqakRw4cPF1u2bDF1KFpu3bol5HK5WLdunalDaVX4/UZN4fIPIhPTtS5uQEAAli1bBnt7ezg4OGDcuHG4ffu2TtUnunTpAhcXF0RGRmLNmjUICgpqtO3jatc+y/R5CI5anqenJ6KiohAVFdUmKtfU1NQgNTUVZWVlCA4ONnU4WiIjIzFgwACEhYWZOhSiNoVJNZGJPWld3Lq12roke/n5+SguLsY///lP/P3vf8fAgQPrrb8Gmq5dS9SaLViwABMnTkRwcLDeDy22tLS0NOzevRv79+/Xub52S4iNjcXZs2exb9++FnsehOhpwaSayMR0rYv73XffYeTIkXB0dISFhQXmzZun8xhSqRSOjo4YPXo0du7ciczMTKxcuVKrjS61a59FCxcuRFJSEu7du4du3brhq6++MnVI9BgrVqxAWFgYPvvsM1OH8lijRo3C9u3b4eTkZOpQNPbu3Yv79+8jLS0N9vb2pg6HqM1hUk1kYrrUxc3Ly4Ofnx+cnJxw4sQJ3Lt3D6tXr36i8Tw9PWFmZqb1emNda9c+i1auXIn79+9DCIGrV68atSwiNY/Ro0dj1apVpg6jzRk/fjwWLFhQrxoQEemGSTWRielSFzcjIwNqtRozZsyAu7s75HI5JBLJY/u9ffs2Jk2aVG97VlYWampq0KVLF71r1xIREVHDmFQTmZgudXFdXV0BAIcPH0ZVVRWysrLqrbX+3xrIMpkMhw4dwpEjR1BaWgq1Wo0zZ87g/fffh6WlJWbPnq137VoiIiJqGJNqIiPIzc3FoEGDUFRUhO3bt+OFF17A7t27ERsbi2HDhgEA5s6dC39/fwDAsmXLsHLlSkRFRaFDhw4YMWIE3NzckJaWBktLS3h5eSEiIgIJCQlwdnbGokWLMHLkSADAsGHDkJ+fj+nTp6Njx47o06cP3nzzTVRWVmLo0KGYOnUqOnfuDGtra0ycOBFubm44fvw4+vXrByGEqU4RERHRU0Ui+L8qGUFKSgqCgoJMnrRJJBIkJycjMDDQpHGQflrL/GntOL+JWg6/36gpvFNNRERERGQgJtVERERERAZiUk1EREREZCAm1UREREREBmJSTURERERkICbVREREREQGYlJNRERERGQgJtVERERERAYyN3UA9HRLSUkxdQhIT083dQikp7pr1hrmT2vH+U1E1DrwjYpkFHVvxCMiInpa8I2K9DhMqomI2rC6/+B5V5+IyLS4ppqIiIiIyEBMqomIiIiIDMSkmoiIiIjIQEyqiYiIiIgMxKSaiIiIiMhATKqJiIiIiAzEpJqIiIiIyEBMqomIiIiIDMSkmoiIiIjIQEyqiYiIiIgMxKSaiIiIiMhATKqJiIiIiAzEpJqIiIiIyEBMqomIiIiIDMSkmoiIiIjIQEyqiYiIiIgMxKSaiIiIiMhATKqJiIiIiAzEpJqIiIiIyEBMqomIiIiIDMSkmoiIiIjIQEyqiYiIiIgMxKSaiIiIiMhATKqJiIiIiAzEpJqIiIiIyEBMqomIiIiIDMSkmoiIiIjIQEyqiYiIiIgMxKSaiIiIiMhATKqJiIiIiAzEpJqIiIiIyEBMqomIiIiIDMSkmoiIiIjIQOamDoCIiHRz9OhRpKena227ePEiAGD16tVa2318fPDSSy+1WGxERM86iRBCmDoIIiJq2uHDh/Hqq69CKpWiXbuG/9BYW1sLtVqN77//Hq+88koLR0hE9OxiUk1E1EbU1taiU6dOuHXr1mPbtW/fHkVFRTAzM2uhyIiIiGuqiYjaiHbt2mHSpEmQyWSNtpHJZJg8eTITaiKiFsakmoioDXn77bdRXV3d6P7q6mq8/fbbLRgREREBXP5BRNTmuLm5ITc3t8F9Xbp0QW5uLiQSSQtHRUT0bOOdaiKiNmby5MmQSqX1tstkMrz//vtMqImITIB3qomI2pjffvsNffr0aXDfr7/+ir59+7ZwRERExDvVRERtTO/evdG7d+96d6R79+7NhJqIyESYVBMRtUHvvfeeVoUPqVSK999/34QRERE927j8g4ioDcrLy4ObmxvqfoRLJBJcuXIFbm5upg2MiOgZxTvVRERtkKurK4YMGYJ27dpBIpHgxRdfZEJNRGRCTKqJiNqo9957DxKJBO3atcO7775r6nCIiJ5pXP5BRNRG3bx5E87OzgCAwsJCdOzY0cQRERE9u5hUE5kQ6wkTUWvBdIDIMOamDoDoWRceHg4fHx+TjR8XFwcAmDVrlsliaO3S09MRHx+P5ORkU4dSz9GjRwEAL730kokjAYKCgkw+n0l/dfObiAzDO9VEJiSRSJCcnIzAwECTxTBx4kQAwK5du0wWQ2uXkpKCoKCgVnknr7S0FABgY2Nj4khax3wm/bXm+U3UlvBONRFRG9YakmkiImL1DyIiIiIigzGpJiIiIiIyEJNqIiIiIiIDMakmIiIiIjIQk2oiMoqpU6fC2toaEokEZ8+eNXU4RERERsWkmoiM4ssvv8TmzZtNHQYREVGLYFJNRERERGQgJtVEZDR8DTsRET0rmFQTUbMQQmDt2rXo2bMnLCwsYGtri08//VSrTU1NDZYuXQpXV1coFAr0799f8+rvxMREWFpaQqlUYu/evXjjjTdgY2MDFxcX7NixQ9PHjz/+iBdffBFKpRI2Njbw8vLSvFXwcf0TEREZE5NqImoWS5YsQUREBEJDQ1FUVIQbN25g/vz5Wm3mz5+PNWvWIC4uDtevX8fYsWMxadIknDp1CjNmzMCsWbOgUqlgbW2N5ORkZGdnw93dHSEhIVCr1aioqMC4ceMQEBCAO3fuICsrCz169EB1dXWT/RMRERkTk2oiMphKpUJcXBxeeeUVzJ49G3Z2dlAoFHBwcNC0qaqqQmJiIvz8/ODv7w87OzssXrwYUqkUSUlJWv35+vrCxsYGjo6OCA4ORkVFBfLy8pCTk4PS0lL07dsXcrkcnTp1wu7du9GhQwe9+iciImpuTKqJyGCXL19GZWUlRo0a1WibS5cuobKyEv369dNsUygUcHJywsWLFxs9TiaTAQDUajXc3d3RsWNHTJ48GZGRkcjJyTG4/5a0b98+2Nra4ptvvjF1KK3O4cOHsWDBAuzevRvu7u6QSCSQSCR4991367UdPXo0rK2tYWZmhr59++L06dMmiPjxYmJiNJ/h0a9H52ed2tpaxMXFwdfXt96+qKgo9OnTBzY2NrCwsICnpyfmzZuH8vJyAMDXX3+N1atXo6amxuifiYgej0k1ERmsoKAAAODo6Nhom4qKCgDA4sWLtZKM3NxcVFZW6jSOQqHAkSNHMGzYMKxYsQLu7u4IDg6GSqVqlv6NTQhh6hBapWXLlmH9+vVYuHAh/P39ceXKFXh4eKB9+/bYtm0bvvvuO632hw4dwq5duzB27FhkZmZi0KBBJorccFlZWXjppZcwe/bsBufpkSNH8PHHHyMnJwe3bt3CypUrER8fj4kTJwIAxo0bB7lcjlGjRqGkpKSlwyeiRzCpJiKDyeVyAMD9+/cbbVOXcMfFxUEIofWVnp6u81h9+/bFN998g8LCQkRERCA5ORnr1q1rtv6NacyYMbh37x7Gjh1rkvFVKlWDd0NNadWqVdi5cydSUlJgbW2ttW/9+vVo164dQkNDce/ePRNF+OS2bt1aby7++uuvmv3nzp3D/PnzMX36dAwYMKDBPqysrBAaGgoHBwdYW1sjMDAQfn5+OHDgAPLz8wEAM2fOxPPPP48333wTDx48aJHPRkT1MakmIoP169cP7dq1w48//thomy5dukAulxv0dsXCwkJcuHABwMMk/bPPPsOgQYNw4cKFZun/abdlyxYUFxebOgyNy5cvY8mSJVi+fLnmF7NH+fr6Ijw8HNeuXcPcuXNNEKFxPf/889i9ezfeeecdWFhYNNjm22+/hZmZmda2Dh06AIDWne3IyEicPXsW8fHxxguYiB6LSTURGczR0REBAQH46quvsGXLFpSWluL8+fPYtGmTpo1cLscHH3yAHTt2IDExEaWlpaipqUFBQQGuX7+u0ziFhYWYNm0aLl68iOrqapw5cwa5ubnw9vZulv6N6dixY3B1dYVEIsEXX3wBQLcyguvXr4dcLkfHjh0xbdo0ODs7Qy6Xw9fXFydOnAAAhIWFQSaTwcnJSTPeRx99BEtLS0gkEty6dQvh4eGYM2cOsrOzIZFI4OnpCQA4cOAAbGxssGLFihY+Iw8/mxAC48aNa7RNTEwMevTogS+//BKHDx9utJ0QArGxsejduzcsLCxgb2+PCRMmaNbT61qysS2UZbx27RoUCgW6deum2WZvb48RI0YgPj6ey4yITEUQkckAEMnJySaNISAgQAQEBBjcT1lZmQgJCRHt27cXVlZWYtiwYWLp0qUCgHBxcRHnzp0T9+/fFxEREcLV1VWYm5sLR0dH4e/vLzIzM0VCQoJQKpUCgOjevbvIzs4WmzZtEjY2NgKA6Nq1q/j++++Fr6+vsLe3F2ZmZuK5554TixYtEg8ePBBCiMf2b4jk5GTRHD8u8/PzBQCxYcMGzbZFixYJAOKHH34Q9+7dE8XFxWL48OHC0tJSVFdXCyGECA0NFZaWluLChQuiqqpKZGZmiiFDhghra2uRl5cnhBDinXfeEZ06ddIab+3atQKAuHnzphBCCH9/f+Hh4aHV5ttvvxXW1tYiKirK4M+n73x2d3cXffr0aXCfh4eHuHr1qhBCiF9++UW0a9dOuLm5ifLyciGEEPv37xfjx4/XtF+6dKmQyWRi69atoqSkRJw/f14MGjRIdOjQQdy4cUMIodu5njt3rrCwsBBfffWVuHv3rli4cKFo166dOHnypF7nIjo6Wri4uAg7OzshlUqFm5ubGD9+vPjPf/7TYPs//OEP4vnnn2+y34qKCmFtbS3CwsLq7VuwYIEAIM6cOaNXrM01v4medfwuIjKhpympfpq1RFKtUqk02xISEgQAcfnyZSHEw6Ta1tZWq6+TJ08KAGL58uVCiCdPqpuTPvO5vLxcSCQSMXbs2Ab3P5pUCyHEnDlzBADx8ccfCyG0k+rKykphZWUlgoODtfr4z3/+IwBofmFo6lyrVCqhVCq1+qmsrBQWFhZixowZOn2uOnl5eeL06dOirKxM3L9/X6Snp4uBAwcKhUIhfv3113rtdU2qFy1aJHr06CFKS0vr7fvrX/8qAIh//OMfesXKpJqoeXD5BxFRK/NoGcHGDB48GEqlstWUC9RXcXExhBBQKpU6tY+JiUHPnj2RkJCAY8eOae3LzMxEeXk5Bg8erLV9yJAhkMlkmmUyDXn0XDdnWcYuXbpg4MCBsLKygkwmg7e3N5KSkqBSqZCQkKBXX3X27NmDlJQUHDx4sN5DnQA057KoqOiJ+iciwzCpJiJqoywsLHDz5k1Th/FEqqqqAKDRB/T+l1wuR1JSEiQSCT788EOoVCrNvrpSclZWVvWOs7OzQ1lZmU5jGLsso5eXF8zMzPD777/rfezOnTuxatUqpKWlwc3NrcE2CoUCwH/PLRG1LCbVRERtkFqtRklJCVxcXEwdyhOpSwD1eWmJj48PZs+ejaysLERHR2u229nZAUCDybM+58jYZRlra2tRW1ur8y8SdTZs2IBt27bhyJEjeO655xptV11dDeC/55aIWhaTaiKiNigtLQ1CCHh7ewMAzM3NH7tcpLXp2LEjJBKJ3vWno6Oj0atXL5w5c0azrV+/frCyssKpU6e02p44cQLV1dV44YUXdOq7Ocsyvvbaa/W2nTx5EkII+Pj46NSHEAIRERHIyMhAampqg3fiH1V3Ljt16qR/wERkMCbVRERtQG1tLe7evYsHDx7g/PnzCA8Ph6urK6ZMmQIA8PT0xJ07d5Camgq1Wo2bN28iNzdXqw8HBwcUFhYiJycHZWVlUKvV2L9/v0lK6imVSri7u2vexqmrumUgj9ZulsvlmDNnDvbs2YNt27ahtLQUGRkZmD59OpydnREaGqpz302VZQwODkanTp2afDX6tWvXsHPnTpSUlECtViM9PR1Tp06Fq6srpk+frlM8Fy5cwJo1a7B582ZIpdJ6rzxft26dVvu6c+nl5aVT/0TUvJhUExG1gC+++AJDhgwBAERERGD8+PFITExEXFwcAKB///64cuUKNm/ejDlz5gAAXn/9dWRlZQF4uE7Wy8sLCoUCw4cPR48ePfDvf/9bs5RgxowZePnll/H222+jZ8+eiI6O1iwD8PHxQX5+PqZPn46OHTuiT58+ePPNN3Hnzp2WPg1axowZg8zMTK310f/617/g6emJ7OxsDBkyBJ988km947y9vTF79mytbcuWLcPKlSsRFRWFDh06YMSIEXBzc0NaWhosLS11Ptfx8fGYNWsWVq9ejfbt28PZ2Rnh4eG4e/cugIdLLIqLi7F3797HfrbXX38dixcvhouLC5RKJQIDAzF06FAcP34c7du3BwAcP34cw4YNw3PPPYcTJ07g3LlzcHZ2xtChQ3H06FG9602fPHkSnTt3Rv/+/fU6joiah0To+11LRM1GIpEgOTkZgYGBJoth4sSJAIBdu3aZLIbWLiUlBUFBQSZ7qca0adOwa9cu3L592yTj60rf+Xz58mX07t0bSUlJmDx5spGjax61tbUYOXIkpkyZgg8//NDU4Wjcvn0bLi4uiImJ0fyioCtTz2+ipwXvVBMRtQH6PNDXVnh6eiIqKgpRUVEoLy83dThNqqmpQWpqKsrKyhAcHGzqcLRERkZiwIABCAsLM3UoRM8sc1MHQESmV1BQgJSUFFOH0Wo1R+UHatiCBQtQXl6O4OBgbN++Hba2tqYOqVFpaWnYvXs39u/fr3N97ZYQGxuLs2fPYt++fZBKpaYOh+iZxaSaiHD8+HEEBQWZOgxqwMKFC5GUlITq6mp069YNa9euRUBAgKnDalYrVqzAoUOH8Nlnn2HVqlWmDqdRo0aNwqhRo0wdhpa9e/fi/v37SEtL03p4k4haHtdUE5kQ11S3DVxzqpvWMJ9Jf5zfRM2Da6qJiIiIiAzEpJqIiIiIyEBMqomIiIiIDMSkmoiIiIjIQEyqiYiIiIgMxKSaiIiIiMhATKqJ2ojg4GBIJBKdvr799tsWiWn37t1wd3evN75MJkPHjh0xcuRIrF27Fnfv3m2ReIiIiEyFSTVRG3Lo0CGUlJRArVbj+vXrAIBx48ahuroaFRUVKC4uRkhISIvF4+/vjytXrsDDwwO2trYQQqC2thbFxcVISUlBt27dEBERgb59++LUqVMtFhcREVFLY1JN1EZIJBIMHToUtra2MDc319oulUqhVCrh6OiIF154wYRRPozHzs4OI0eORFJSElJSUlBUVIQxY8bg3r17Jo2NiIjIWJhUE7URO3bsgFKpbLJdaGgo/vjHP7ZARLoJCAjAlClTUFxcjI0bN5o6HCIiIqNgUk1ERjdlyhQAwP79+wEANTU1WLp0KVxdXaFQKNC/f38kJycDABITE2FpaQmlUom9e/fijTfegI2NDVxcXLBjxw5Nnz/++CNefPFFKJVK2NjYwMvLC6WlpU32T0REZAxMqonI6AYMGAAAuHLlCgBg/vz5WLNmDeLi4nD9+nWMHTsWkyZNwqlTpzBjxgzMmjULKpUK1tbWSE5ORnZ2Ntzd3RESEgK1Wo2KigqMGzcOAQEBuHPnDrKystCjRw9UV1c32T8REZExmDfdhIjIMNbW1pBIJCgrK0NVVRUSExPh5+cHf39/AMDixYvx+eefIykpCYMHD9Yc5+vrC7lcDuBh9ZOffvoJeXl5qKqqQmlpKfr27Qu5XA65XI7du3cDgF7962vixIlPfOyzIi4uDrt27TJ1GKSHgoICU4dA9FTgnWoiMrqKigoIIWBjY4NLly6hsrIS/fr10+xXKBRwcnLCxYsXG+1DJpMBANRqNdzd3dGxY0dMnjwZkZGRyMnJ0bR70v6JiIgMwTvVRGR0v//+OwCgV69eqKioAPDw7vHixYu12jk7O+vUn0KhwJEjRzB//nysWLECUVFRCAwMRFJSUrP03xjegX08iUSCWbNmITAw0NShkB5SUlIQFBRk6jCI2jzeqSYioztw4AAA4I033oCjoyOAh8sEhBBaX+np6Tr32bdvX3zzzTcoLCxEREQEkpOTsW7dumbrn4iISB9MqonIqG7cuIG4uDi4uLjgww8/RJcuXSCXy3H27Nkn7rOwsBAXLlwAADg6OuKzzz7DoEGDcOHChWbpn4iISF9MqomoWQghUF5ejtraWgghcPPmTSQnJ2Po0KEwMzNDamoqbGxsIJfL8cEHH2DHjh1ITExEaWkpampqUFBQoHlLZFMKCwsxbdo0XLx4EdXV1Thz5gxyc3Ph7e3dLP0TERHpi0k1URtTVlaGESNGoG/fvgCAb775Bt27d8fKlStbPJZvvvkGzz//PK5fv46qqirY2trCzMwMZmZm6NGjB2JjYzFlyhRkZmZqvekxPj4es2bNwurVq9G+fXs4OzsjPDwcd+/eRWJiIuLi4gAA/fv3x5UrV7B582bMmTMHAPD666+jpKQENTU18PX1hVKpxB//+EdMmzYNH3/8cZP9ExERGYNECCFMHQTRs0oikSA5OdmkD3bVn0KoZQAADv1JREFUlYnjQ3iNq3uQiz8uH681zGfSH+c3UfPgnWoiIiIiIgMxqSYiIiIiMhCTaiIiIiIiAzGpJiIiIiIyEJNqIiIiIiIDMakmIiIiIjIQk2oiIiIiIgMxqSYiIiIiMpC5qQMgItM7fvy45iUwVF9BQYGpQ3gmHT58GD/88AMGDx6MTz/9FFevXgUATJ48GVu3btVqO3r0aKSnp6OyshK9evXC1q1bMWjQIFOErbOqqioMGDAAAQEBiImJAQCo1WpER0dj27ZtKCgogKOjI95++21ER0dDoVDg66+/xm+//Ya5c+fCzMzMxJ+AiB7FO9VERNTqLFu2DOvXr8fChQvh7++PK1euwMPDA+3bt8e2bdvw3XffabU/dOgQdu3ahbFjxyIzM7PVJ9QAsGjRIly6dElrW3h4ONauXYuVK1fi9u3b2L59OzZv3oypU6cCAMaNGwe5XI5Ro0ahpKTEFGETUSN4p5qI4O3tzdeUP0bda5xNQaVSYdSoUfjll1/aVN+GWLVqFXbu3Ilz585BLpdr7Vu/fj3effddhIaGIjMzE7a2tiaK0jC//PILfv31V61tV65cwcaNGzF16lQEBwcDAEaOHImwsDDExMRg8eLF6N27N2bOnIkrV67gzTffxNGjR2Fuzv/KiVoD3qkmImrFtmzZguLi4jbX95O6fPkylixZguXLl9dLqAHA19cX4eHhuHbtGubOnWuCCA2nUqnw6aefIj4+Xmv7yZMnUVtbiz/84Q9a219//XUAwMGDBzXbIiMjcfbs2Xp9EJHpMKkmIjICIQRiY2PRu3dvWFhYwN7eHhMmTMDFixcBAGFhYZDJZHByctIc89FHH8HS0hISiQS3bt1CeHg45syZg+zsbEgkEnh6emL9+vWQy+Xo2LEjpk2bBmdnZ8jlcvj6+uLEiRMG9Q0ABw4cgI2NDVasWNGCZ+u/1q9fDyEExo0b12ibmJgY9OjRA19++SUOHz7caLumrkFiYiIsLS2hVCqxd+9evPHGG7CxsYGLiwt27Nih6aempgZLly6Fq6srFAoF+vfvj+Tk5Cf+jIsWLcJHH30ER0dHre3t2j38L1mhUGht7969OwDgt99+02yzt7fHiBEjEB8fDyHEE8dCRM2HSTURkRFERkZiwYIFWLRoEYqLi3H06FHk5+dj+PDhKCoqwvr16xEYGKh1TEJCApYvX675d3x8PMaOHQsPDw8IIXD58mWEhYVhypQpqKysxMyZM5GTk4PTp0/jwYMHePXVV5Gfn//EfQMPE0gAqK2tNdapeazvvvsOPXv2hFKpbLSNQqHA3/72N7Rr1w4hISGoqKhosF1T12DGjBmYNWsWVCoVrK2tkZycjOzsbLi7uyMkJARqtRoAMH/+fKxZswZxcXG4fv06xo4di0mTJuHUqVN6f76ff/4Z2dnZmDRpUr19vXr1AqCdPANA+/btAQA3b97U2j5w4EBcu3YN586d0zsOImp+TKqJiJqZSqVCbGws3nrrLUyePBm2trbw8vLCxo0bcevWLWzatMngMczNzTV3YPv06YPExESUlZUhKSnJoH7HjBmD0tJSLFmyxOAY9VVRUYGrV6/Cw8OjybY+Pj6YNWsWcnJyMH/+/Hr79b0Gvr6+sLGxgaOjI4KDg1FRUYG8vDxUVVUhMTERfn5+8Pf3h52dHRYvXgypVKr3uVapVAgPD0diYmKD+728vPD6668jISEBR44cQVVVFW7cuIE9e/ZAIpFokvw6dXewMzIy9IqDiIyDSTURUTPLzMxEeXk5Bg8erLV9yJAhkMlkmmUazWnw4MFQKpWapQ1tUXFxMYQQj71L/aiYmBj07NkTCQkJOHbsmNY+Q66BTCYD8LC83aVLl1BZWYl+/fpp9isUCjg5Oel9rhcuXIg///nP6Ny5c6Ntdu7ciYkTJ+K9996Dg4MDhg4din/9618QQmjuWNepO09FRUV6xUFExsGkmoieyP379zFz5kw4OTlBqVTilVdeQceOHSGRSLBx40ajj7969Wr06tULCoUClpaW6NWrF5YsWYLS0lJNm6ioKPTp0wc2NjawsLCAp6cn5s2bh/LycqPGVlfqzMrKqt4+Ozs7lJWVGWVcCwuLeksE2pKqqioADz+HLuRyOZKSkiCRSPDhhx9CpVJp9jXXNahbWrJ48WJIJBLNV25uLiorK3XqAwCOHTuGjIwMTWm8xtja2mLjxo0oKChAZWUlsrOz8fnnnwMAnnvuOa22dWuv684bEZkWk2oieiKff/45Dhw4gIsXLyI+Ph7Tpk1r0dJsP/30E0JCQpCXl4eioiJER0dj9erVCAgI0LQ5cuQIPv74Y+Tk5ODWrVtYuXIl4uPjjf6iGzs7OwBoMHErKSmBi4tLs4+pVquN1ndLqUsS69Z168LHxwezZ89GVlYWoqOjNdub6xrUPUwYFxcHIYTWV3p6us5xbtmyBT/88APatWunSczr+l6xYgUkEkmja7RPnjwJAHj55Ze1tldXVwOo/2AjEZkGk2oieiKpqakYPHgw7Ozs8Oc//1krmW1uKpUKvr6+WttkMpmmgoKVlRUmTpyICRMm4Pvvv8f169cBPLxLGRoaCgcHB1hbWyMwMBB+fn44cOAA8vPzjRZvv379YGVlVS9JOnHiBKqrq/HCCy8AeLgu+n/XyT6ptLQ0CCHg7e3d7H23lLq/dNy7d0+v46Kjo9GrVy+cOXNGs03Xa9CULl26QC6X4+zZs3rF9L+SkpLqJeV1f1VYtGgRhBD1lqrU2bx5M7p164YRI0Zoba87T506dTIoNiJqHkyqieiJFBQUQCqVtshYDdVT3rNnT706xnVrVeuWd3z77bf1XuXcoUMHANDrT/f6ksvlmDNnDvbs2YNt27ahtLQUGRkZmD59OpydnREaGgoA8PT0xJ07d5Camgq1Wo2bN28iNzdXqy8HBwcUFhYiJycHZWVlmkS5trYWd+/exYMHD3D+/HmEh4fD1dUVU6ZMMajv/fv3m6yknlKphLu7u96vha9bBvLotdb1GujS9wcffIAdO3YgMTERpaWlqKmpQUFBgeaXt+DgYHTq1AmnT5/WK+6GvPjii8jNzcWDBw+Qk5ODuXPn4vDhw9iyZYtmrXeduvPk5eVl8LhEZDgm1USkl++//x6enp64fv06/v73v0MikTS4brVOU7WCgYdLOfr06QNbW1vI5XJ4eXlpXnTRWD3lhmRlZcHOzg5du3ZttM21a9egUCjQrVu3J/j0ulu2bBlWrlyJqKgodOjQASNGjICbmxvS0tJgaWkJAJgxYwZefvllvP322+jZsyeio6M1f8r38fFBfn4+pk+fjo4dO6JPnz548803cefOHQAP19F6eXlBoVBg+PDh6NGjB/79739r1iMb0rcpjRkzBpmZmVrro//1r3/B09MT2dnZGDJkCD755JN6x3l7e2P27Nla25q6BomJiYiLiwMA9O/fH1euXMHmzZsxZ84cAA9fupKVlYX4+HjMmjULq1evRvv27eHs7Izw8HDcvXsXwMNlGMXFxdi7d6/Bn9/Ozg4DBgyAQqHAoEGDcPHiRfz000/1ln4AD5eFdO7cGf379zd4XCJqBoKITAaASE5ONmkMAQEBIiAgQO/jOnXqJN5//32tbVlZWQKA+Mtf/qLZtnTpUiGTycTWrVtFSUmJOH/+vBg0aJDo0KGDuHHjhhBCiF27donIyEhx584dcfv2beHt7S3at2+v6cPf3194eHg0GEd1dbUoKCgQGzZsEBYWFmLr1q2NxlxRUSGsra1FWFiYXp81OTlZtKYfl6GhocLBwcHUYdTTHPM5KytLmJubP/Y6tjY1NTVi+PDhYsuWLS025q1bt4RcLhfr1q0zuK/WNr+J2ireqSYio9G1VnBAQACWLVsGe3t7ODg4YNy4cbh9+7ZOlSy6dOkCFxcXREZGYs2aNQgKCmq07cqVK+Hs7IyYmJhm+4ymos/DfG2Jp6cnoqKiEBUVZfQqLc2hpqYGqampKCsrQ3BwcIuNGxkZiQEDBiAsLKzFxiSix2NSTURG86S1guvWauuSOObn56O4uBj//Oc/8fe//x0DBw6st/4aeLgGOyUlBQcPHoS1tfUTfBpqKQsWLMDEiRMRHBys90OLLS0tLQ27d+/G/v37da6vbajY2FicPXsW+/bta7HnGoioaUyqichodK0V/N1332HkyJFwdHSEhYUF5s2bp/MYUqkUjo6OGD16NHbu3InMzEysXLlSq83OnTuxatUqpKWlwc3N7ck/UCuwcOFCJCUl4d69e+jWrRu++uorU4dkFCtWrEBYWBg+++wzU4fyWKNGjcL27dvh5OTUIuPt3bsX9+/fR1paGuzt7VtkTCLSDZNqIjIaXWoF5+Xlwc/PD05OTjhx4gTu3buH1atXP9F4np6eMDMzQ2Zmpmbbhg0bsG3bNhw5cqTeyzPaopUrV+L+/fsQQuDq1atGLWVoaqNHj8aqVatMHUarMn78eCxYsKBeVRsiMj0m1URkNLrUCs7IyIBarcaMGTPg7u4OuVwOiUTy2H5v376NSZMm1duelZWFmpoadOnSBUIIREREICMjA6mpqY+tUEJERGQoJtVEZDS61Ap2dXUFABw+fBhVVVXIysqqt9b6f+spy2QyHDp0CEeOHEFpaSnUajXOnDmD999/H5aWlpg9ezYuXLiANWvWYPPmzZBKpVqvmJZIJFi3bp0pTgkRET2lmFQTkV5yc3MxaNAgFBUVYfv27XjhhRewe/duxMbGYtiwYQCAuXPnwt/fH0DTtYK9vLwQERGBhIQEODs7Y9GiRRg5ciQAYNiwYQ3WU66srMTQoUMxdepUdO7cGdbW1pg4cSLc3Nxw/Phx9OvXD0IIU50iIiJ6BkkE/+chMhmJRILk5GQEBgaaLIaJEycCAHbt2mWyGFq7lJQUBAUFMVFvQmuYz6Q/zm+i5sE71UREREREBmJSTURERERkICbVREREREQGYlJNRP/X3h2dAAwCQRRcwf77kDSZIlY4QmYq2M+HCAcAlEQ1AACURDUAAJRENQAAlEQ1AACURDUAAJRcVIRBa63pCQBJ4qIilPb0APizc870BADgAi/VAABQ8qcaAABKohoAAEqiGgAASjvJMz0CAAC+7AVX/75gJaaN4AAAAABJRU5ErkJggg==;" vertex="1" parent="Jj0kBVMKE85HHvG1EGaV-35">
          <mxGeometry x="161.5916148023549" y="140.80734824281154" width="486.11585365853654" height="543.779251471825" as="geometry" />
        </mxCell>
        <mxCell id="Jj0kBVMKE85HHvG1EGaV-2" style="edgeStyle=orthogonalEdgeStyle;rounded=0;orthogonalLoop=1;jettySize=auto;html=1;entryX=0.5;entryY=0;entryDx=0;entryDy=0;strokeWidth=2;strokeColor=#000000;endArrow=block;endFill=1;fontSize=10;" edge="1" parent="Jj0kBVMKE85HHvG1EGaV-35" target="Jj0kBVMKE85HHvG1EGaV-7">
          <mxGeometry relative="1" as="geometry">
            <mxPoint x="409.67832632464257" y="684.5919169329075" as="sourcePoint" />
          </mxGeometry>
        </mxCell>
        <mxCell id="Jj0kBVMKE85HHvG1EGaV-3" style="edgeStyle=orthogonalEdgeStyle;rounded=0;orthogonalLoop=1;jettySize=auto;html=1;fontColor=#FFFFFF;strokeColor=#000000;strokeWidth=2;endArrow=block;endFill=1;fontSize=10;" edge="1" parent="Jj0kBVMKE85HHvG1EGaV-35" source="Jj0kBVMKE85HHvG1EGaV-4">
          <mxGeometry relative="1" as="geometry">
            <mxPoint x="280.27093355761144" y="140.80734824281154" as="targetPoint" />
          </mxGeometry>
        </mxCell>
        <mxCell id="Jj0kBVMKE85HHvG1EGaV-4" value="&lt;div style=&quot;font-size: 10px;&quot;&gt;TextVectorization&lt;/div&gt;" style="rounded=0;whiteSpace=wrap;html=1;fillColor=none;strokeColor=#000000;fontFamily=Times New Roman;fontSize=10;fontColor=#000000;labelBackgroundColor=none;labelBorderColor=none;textShadow=0;" vertex="1" parent="Jj0kBVMKE85HHvG1EGaV-35">
          <mxGeometry x="196.4578553406224" y="67.05111821086264" width="167.62615643397814" height="33.52555910543132" as="geometry" />
        </mxCell>
        <mxCell id="Jj0kBVMKE85HHvG1EGaV-5" style="edgeStyle=orthogonalEdgeStyle;rounded=0;orthogonalLoop=1;jettySize=auto;html=1;entryX=0.5;entryY=0;entryDx=0;entryDy=0;strokeColor=#000000;endArrow=block;endFill=1;strokeWidth=2;fontSize=10;" edge="1" parent="Jj0kBVMKE85HHvG1EGaV-35" source="Jj0kBVMKE85HHvG1EGaV-6" target="Jj0kBVMKE85HHvG1EGaV-4">
          <mxGeometry relative="1" as="geometry" />
        </mxCell>
        <mxCell id="Jj0kBVMKE85HHvG1EGaV-6" value="Sõna" style="rounded=0;whiteSpace=wrap;html=1;fillColor=none;strokeColor=#000000;fontFamily=Times New Roman;fontSize=10;fontColor=#000000;labelBackgroundColor=none;labelBorderColor=none;textShadow=0;" vertex="1" parent="Jj0kBVMKE85HHvG1EGaV-35">
          <mxGeometry x="209.86794785534062" width="140.80597140454165" height="26.820447284345054" as="geometry" />
        </mxCell>
        <mxCell id="Jj0kBVMKE85HHvG1EGaV-7" value="Tõenäosuste jadad" style="rounded=0;whiteSpace=wrap;html=1;fillColor=none;strokeColor=#000000;fontFamily=Times New Roman;fontSize=10;fontColor=#000000;labelBackgroundColor=none;labelBorderColor=none;textShadow=0;" vertex="1" parent="Jj0kBVMKE85HHvG1EGaV-35">
          <mxGeometry x="325.8652481076535" y="725.4930990415337" width="167.62615643397814" height="33.52555910543132" as="geometry" />
        </mxCell>
        <mxCell id="Jj0kBVMKE85HHvG1EGaV-8" value="Muuttüüp" style="rounded=0;whiteSpace=wrap;html=1;fillColor=none;strokeColor=#000000;fontFamily=Times New Roman;fontSize=10;fontColor=#000000;labelBackgroundColor=none;labelBorderColor=none;textShadow=0;" vertex="1" parent="Jj0kBVMKE85HHvG1EGaV-35">
          <mxGeometry x="339.9458452481076" y="805.9544408945688" width="140.13546677880572" height="33.52555910543132" as="geometry" />
        </mxCell>
        <mxCell id="Jj0kBVMKE85HHvG1EGaV-9" style="edgeStyle=orthogonalEdgeStyle;rounded=0;orthogonalLoop=1;jettySize=auto;html=1;entryX=0.5;entryY=0;entryDx=0;entryDy=0;strokeWidth=2;strokeColor=#000000;endArrow=block;endFill=1;fontSize=10;" edge="1" parent="Jj0kBVMKE85HHvG1EGaV-35" target="Jj0kBVMKE85HHvG1EGaV-8">
          <mxGeometry relative="1" as="geometry">
            <mxPoint x="409.67832632464257" y="759.018658146965" as="sourcePoint" />
            <mxPoint x="409.67832632464257" y="799.9198402555912" as="targetPoint" />
          </mxGeometry>
        </mxCell>
        <mxCell id="Jj0kBVMKE85HHvG1EGaV-10" value="&lt;font style=&quot;font-size: 10px;&quot; face=&quot;Times New Roman&quot;&gt;TextVectorization saab sisendina sõna&lt;/font&gt;" style="text;html=1;align=center;verticalAlign=middle;whiteSpace=wrap;rounded=0;fontColor=#000000;fillColor=none;fontSize=10;strokeColor=#000000;" vertex="1" parent="Jj0kBVMKE85HHvG1EGaV-35">
          <mxGeometry x="301.72708158116063" y="33.52555910543132" width="127.39587888982341" height="26.820447284345054" as="geometry" />
        </mxCell>
        <mxCell id="Jj0kBVMKE85HHvG1EGaV-11" value="&lt;font style=&quot;font-size: 10px;&quot; face=&quot;Times New Roman&quot;&gt;TextVectorization teisendab sõna tähejadaks ja tähejada omakorda täisarvude jadaks&lt;/font&gt;" style="text;html=1;align=center;verticalAlign=middle;whiteSpace=wrap;rounded=0;fontColor=#000000;fillColor=none;fontSize=10;strokeColor=#000000;" vertex="1" parent="Jj0kBVMKE85HHvG1EGaV-35">
          <mxGeometry x="58.33390243902439" y="83.81389776357828" width="122.702346509672" height="36.878115015974444" as="geometry" />
        </mxCell>
        <mxCell id="Jj0kBVMKE85HHvG1EGaV-12" value="&lt;font style=&quot;font-size: 10px;&quot; face=&quot;Times New Roman&quot;&gt;Tõenäosuste jadast võetakse kõige suurema tõenäosusega sõnale vastav muuttüüp&lt;br style=&quot;font-size: 10px;&quot;&gt;&lt;/font&gt;" style="text;html=1;align=center;verticalAlign=middle;whiteSpace=wrap;rounded=0;fontColor=#000000;fillColor=none;fontSize=10;strokeColor=#000000;" vertex="1" parent="Jj0kBVMKE85HHvG1EGaV-35">
          <mxGeometry x="419.73589571068123" y="765.0532587859426" width="127.39587888982341" height="34.866581469648565" as="geometry" />
        </mxCell>
        <mxCell id="Jj0kBVMKE85HHvG1EGaV-13" value="&lt;font style=&quot;font-size: 10px;&quot; face=&quot;Times New Roman&quot;&gt;Mudelis esinev täisarvuline jada, mis oli sisendina ette antud&lt;br style=&quot;font-size: 10px;&quot;&gt;&lt;/font&gt;" style="text;html=1;align=center;verticalAlign=middle;whiteSpace=wrap;rounded=0;fontColor=#000000;fillColor=none;fontSize=10;strokeColor=#000000;" vertex="1" parent="Jj0kBVMKE85HHvG1EGaV-35">
          <mxGeometry x="1.341009251471825" y="156.22910543130996" width="140.80597140454165" height="33.52555910543132" as="geometry" />
        </mxCell>
        <mxCell id="Jj0kBVMKE85HHvG1EGaV-14" value="&lt;font style=&quot;font-size: 10px;&quot; face=&quot;Times New Roman&quot;&gt;Suuremate mõõtmetega täisarvuline jada teisendatakse väiksemate mõõtmetega ujukomaarvuliseks jadaks&lt;br style=&quot;font-size: 10px;&quot;&gt;&lt;/font&gt;" style="text;html=1;align=center;verticalAlign=middle;whiteSpace=wrap;rounded=0;fontColor=#000000;fillColor=none;fontSize=10;strokeColor=#000000;" vertex="1" parent="Jj0kBVMKE85HHvG1EGaV-35">
          <mxGeometry x="1.341009251471825" y="238.70198083067098" width="140.80597140454165" height="50.28833865814697" as="geometry" />
        </mxCell>
        <mxCell id="Jj0kBVMKE85HHvG1EGaV-15" value="&lt;font style=&quot;font-size: 10px;&quot; face=&quot;Times New Roman&quot;&gt;Õpitakse tuvastama seoseid ujukomaarvuliste jadadena esitatud sõna  ja kahendarvu jadana esitatud muuttüüpide vahel&lt;br style=&quot;font-size: 10px;&quot;&gt;&lt;/font&gt;" style="text;html=1;align=center;verticalAlign=middle;whiteSpace=wrap;rounded=0;fontColor=#000000;fillColor=none;fontSize=10;strokeColor=#000000;" vertex="1" parent="Jj0kBVMKE85HHvG1EGaV-35">
          <mxGeometry y="334.41745207667736" width="140.80597140454165" height="52.4675" as="geometry" />
        </mxCell>
        <mxCell id="Jj0kBVMKE85HHvG1EGaV-16" value="&lt;font style=&quot;font-size: 10px;&quot; face=&quot;Times New Roman&quot;&gt;Eemaldatakse osa infost, et mudel ei ülesobituks ja oskaks üldisemalt ennustada muuttüüpi&lt;br style=&quot;font-size: 10px;&quot;&gt;&lt;/font&gt;" style="text;html=1;align=center;verticalAlign=middle;whiteSpace=wrap;rounded=0;fontColor=#000000;fillColor=none;fontSize=10;strokeColor=#000000;" vertex="1" parent="Jj0kBVMKE85HHvG1EGaV-35">
          <mxGeometry y="437.1732907348243" width="140.80597140454165" height="39.89541533546326" as="geometry" />
        </mxCell>
        <mxCell id="Jj0kBVMKE85HHvG1EGaV-17" value="&lt;font style=&quot;font-size: 10px;&quot; face=&quot;Times New Roman&quot;&gt;Ühendatud info tihendatakse kokku ning arvutatakse igale muuttüübile tõenäosus, et sõna vastab just sellele muuttüübile&lt;br style=&quot;font-size: 10px;&quot;&gt;&lt;/font&gt;" style="text;html=1;align=center;verticalAlign=middle;whiteSpace=wrap;rounded=0;fontColor=#000000;fillColor=none;fontSize=10;strokeColor=#000000;" vertex="1" parent="Jj0kBVMKE85HHvG1EGaV-35">
          <mxGeometry x="1.341009251471825" y="618.2113099041535" width="140.80597140454165" height="53.305638977635795" as="geometry" />
        </mxCell>
        <mxCell id="Jj0kBVMKE85HHvG1EGaV-18" value="&lt;font style=&quot;font-size: 10px;&quot; face=&quot;Times New Roman&quot;&gt;Mudel väljastab muuttüüpide tõenäosuste jada&lt;br style=&quot;font-size: 10px;&quot;&gt;&lt;/font&gt;" style="text;html=1;align=center;verticalAlign=middle;whiteSpace=wrap;rounded=0;fontColor=#000000;fillColor=none;fontSize=10;strokeColor=#000000;" vertex="1" parent="Jj0kBVMKE85HHvG1EGaV-35">
          <mxGeometry x="419.73589571068123" y="687.9444728434505" width="127.39587888982341" height="26.820447284345054" as="geometry" />
        </mxCell>
        <mxCell id="Jj0kBVMKE85HHvG1EGaV-19" style="edgeStyle=orthogonalEdgeStyle;rounded=0;orthogonalLoop=1;jettySize=auto;html=1;fontColor=#FFFFFF;strokeColor=#000000;strokeWidth=2;endArrow=block;endFill=1;fontSize=10;" edge="1" parent="Jj0kBVMKE85HHvG1EGaV-35" source="Jj0kBVMKE85HHvG1EGaV-20">
          <mxGeometry relative="1" as="geometry">
            <mxPoint x="527.0166358284272" y="140.80734824281154" as="targetPoint" />
          </mxGeometry>
        </mxCell>
        <mxCell id="Jj0kBVMKE85HHvG1EGaV-20" value="MultiLabelBinarizer" style="rounded=0;whiteSpace=wrap;html=1;fillColor=none;strokeColor=#000000;fontFamily=Times New Roman;fontSize=10;fontColor=#000000;labelBackgroundColor=none;labelBorderColor=none;textShadow=0;" vertex="1" parent="Jj0kBVMKE85HHvG1EGaV-35">
          <mxGeometry x="443.2035576114382" y="67.05111821086264" width="167.62615643397814" height="33.52555910543132" as="geometry" />
        </mxCell>
        <mxCell id="Jj0kBVMKE85HHvG1EGaV-21" style="edgeStyle=orthogonalEdgeStyle;rounded=0;orthogonalLoop=1;jettySize=auto;html=1;entryX=0.5;entryY=0;entryDx=0;entryDy=0;strokeColor=#000000;endArrow=block;endFill=1;strokeWidth=2;fontSize=10;" edge="1" parent="Jj0kBVMKE85HHvG1EGaV-35" source="Jj0kBVMKE85HHvG1EGaV-22" target="Jj0kBVMKE85HHvG1EGaV-20">
          <mxGeometry relative="1" as="geometry" />
        </mxCell>
        <mxCell id="Jj0kBVMKE85HHvG1EGaV-22" value="Sõnaliigi tähis" style="rounded=0;whiteSpace=wrap;html=1;fillColor=none;strokeColor=#000000;fontFamily=Times New Roman;fontSize=10;fontColor=#000000;labelBackgroundColor=none;labelBorderColor=none;textShadow=0;" vertex="1" parent="Jj0kBVMKE85HHvG1EGaV-35">
          <mxGeometry x="456.6136501261565" width="140.80597140454165" height="26.820447284345054" as="geometry" />
        </mxCell>
        <mxCell id="Jj0kBVMKE85HHvG1EGaV-23" value="&lt;font style=&quot;font-size: 10px;&quot; face=&quot;Times New Roman&quot;&gt;MultiLabelBinarizer saab sisendina sõnaliigi&lt;/font&gt;" style="text;html=1;align=center;verticalAlign=middle;whiteSpace=wrap;rounded=0;fontColor=#000000;fillColor=none;fontSize=10;strokeColor=#000000;" vertex="1" parent="Jj0kBVMKE85HHvG1EGaV-35">
          <mxGeometry x="548.4727838519764" y="33.52555910543132" width="127.39587888982341" height="26.820447284345054" as="geometry" />
        </mxCell>
        <mxCell id="Jj0kBVMKE85HHvG1EGaV-24" value="&lt;font style=&quot;font-size: 10px;&quot; face=&quot;Times New Roman&quot;&gt;MultiLabelBinarizer loob igale sõnaliigile kahendarvu jada, kus iga element vastab selle sõnaliigi olemasolule&lt;br style=&quot;font-size: 10px;&quot;&gt;&lt;/font&gt;" style="text;html=1;align=center;verticalAlign=middle;whiteSpace=wrap;rounded=0;fontColor=#000000;fillColor=none;fontSize=10;strokeColor=#000000;" vertex="1" parent="Jj0kBVMKE85HHvG1EGaV-35">
          <mxGeometry x="622.2282926829267" y="74.42674121405751" width="122.702346509672" height="55.65242811501599" as="geometry" />
        </mxCell>
        <mxCell id="Jj0kBVMKE85HHvG1EGaV-25" value="&lt;font style=&quot;font-size: 10px;&quot; face=&quot;Times New Roman&quot;&gt;Mudelis esinev kahendarvuline jada, mis oli sisendina ette antud&lt;br style=&quot;font-size: 10px;&quot;&gt;&lt;/font&gt;" style="text;html=1;align=center;verticalAlign=middle;whiteSpace=wrap;rounded=0;fontColor=#000000;fillColor=none;fontSize=10;strokeColor=#000000;" vertex="1" parent="Jj0kBVMKE85HHvG1EGaV-35">
          <mxGeometry x="656.4240285954584" y="154.88808306709268" width="140.80597140454165" height="33.52555910543132" as="geometry" />
        </mxCell>
        <mxCell id="Jj0kBVMKE85HHvG1EGaV-26" value="&lt;font style=&quot;font-size: 10px;&quot; face=&quot;Times New Roman&quot;&gt;Suuremate mõõtmetega kahendarvuline jada teisendatakse väiksemate mõõtmetega ujukomaarvuliseks jadaks&lt;br style=&quot;font-size: 10px;&quot;&gt;&lt;/font&gt;" style="text;html=1;align=center;verticalAlign=middle;whiteSpace=wrap;rounded=0;fontColor=#000000;fillColor=none;fontSize=10;strokeColor=#000000;" vertex="1" parent="Jj0kBVMKE85HHvG1EGaV-35">
          <mxGeometry x="656.4240285954584" y="237.3609584664537" width="140.80597140454165" height="50.28833865814697" as="geometry" />
        </mxCell>
        <mxCell id="Jj0kBVMKE85HHvG1EGaV-27" value="&lt;font style=&quot;font-size: 10px;&quot; face=&quot;Times New Roman&quot;&gt;Õpitakse tuvastama seoseid ujukomaarvuliste jadadena esitatud sõnaliigi  ja kahendarvu jadana esitatud muuttüüpide vahel&lt;br style=&quot;font-size: 10px;&quot;&gt;&lt;/font&gt;" style="text;html=1;align=center;verticalAlign=middle;whiteSpace=wrap;rounded=0;fontColor=#000000;fillColor=none;fontSize=10;strokeColor=#000000;" vertex="1" parent="Jj0kBVMKE85HHvG1EGaV-35">
          <mxGeometry x="655.0830193439865" y="333.0764297124601" width="140.80597140454165" height="52.4675" as="geometry" />
        </mxCell>
        <mxCell id="Jj0kBVMKE85HHvG1EGaV-28" value="&lt;font style=&quot;font-size: 10px;&quot; face=&quot;Times New Roman&quot;&gt;Eemaldatakse osa infost, et mudel ei ülesobituks ja oskaks üldisemalt ennustada muuttüüpi&lt;br style=&quot;font-size: 10px;&quot;&gt;&lt;/font&gt;" style="text;html=1;align=center;verticalAlign=middle;whiteSpace=wrap;rounded=0;fontColor=#000000;fillColor=none;fontSize=10;strokeColor=#000000;" vertex="1" parent="Jj0kBVMKE85HHvG1EGaV-35">
          <mxGeometry x="655.0830193439865" y="435.83226837060704" width="140.80597140454165" height="39.89541533546326" as="geometry" />
        </mxCell>
        <mxCell id="Jj0kBVMKE85HHvG1EGaV-32" value="&lt;font style=&quot;font-size: 10px;&quot; face=&quot;Times New Roman&quot;&gt;Konkateneeritakse kahe sisendi tulemused kokku&lt;br style=&quot;font-size: 10px;&quot;&gt;&lt;/font&gt;" style="text;html=1;align=center;verticalAlign=middle;whiteSpace=wrap;rounded=0;fontColor=#000000;fillColor=none;fontSize=10;strokeColor=#000000;" vertex="1" parent="Jj0kBVMKE85HHvG1EGaV-35">
          <mxGeometry x="1.341009251471825" y="531.044856230032" width="140.80597140454165" height="53.305638977635795" as="geometry" />
        </mxCell>
        <mxCell id="Jj0kBVMKE85HHvG1EGaV-33" value="&lt;font style=&quot;font-size: 10px;&quot; face=&quot;Times New Roman&quot;&gt;Konkateneeritakse kahe sisendi tulemused kokku&lt;br style=&quot;font-size: 10px;&quot;&gt;&lt;/font&gt;" style="text;html=1;align=center;verticalAlign=middle;whiteSpace=wrap;rounded=0;fontColor=#000000;fillColor=none;fontSize=10;strokeColor=#000000;" vertex="1" parent="Jj0kBVMKE85HHvG1EGaV-35">
          <mxGeometry x="655.0830193439865" y="524.3397444089458" width="140.80597140454165" height="53.305638977635795" as="geometry" />
        </mxCell>
        <mxCell id="Jj0kBVMKE85HHvG1EGaV-34" value="&lt;font style=&quot;font-size: 10px;&quot; face=&quot;Times New Roman&quot;&gt;Ühendatud info tihendatakse kokku ning arvutatakse igale muuttüübile tõenäosus, et sõna vastab just sellele muuttüübile&lt;br style=&quot;font-size: 10px;&quot;&gt;&lt;/font&gt;" style="text;html=1;align=center;verticalAlign=middle;whiteSpace=wrap;rounded=0;fontColor=#000000;fillColor=none;fontSize=10;strokeColor=#000000;" vertex="1" parent="Jj0kBVMKE85HHvG1EGaV-35">
          <mxGeometry x="656.4240285954584" y="621.5638658146966" width="140.80597140454165" height="53.305638977635795" as="geometry" />
        </mxCell>
      </root>
    </mxGraphModel>
  </diagram>
</mxfile>
